<mxfile host="app.diagrams.net" agent="Mozilla/5.0 (Windows NT 10.0; Win64; x64) AppleWebKit/537.36 (KHTML, like Gecko) Chrome/134.0.0.0 Safari/537.36" version="26.1.1">
  <diagram name="第 1 页" id="ArkMC0KF1G0l4RK38pd9">
    <mxGraphModel dx="1430" dy="757" grid="1" gridSize="10" guides="1" tooltips="1" connect="1" arrows="1" fold="1" page="1" pageScale="1" pageWidth="827" pageHeight="1169" math="0" shadow="0">
      <root>
        <mxCell id="0" />
        <mxCell id="1" parent="0" />
        <mxCell id="r26zlcC6nCp4phhId66P-1" value="" style="group;fontFamily=Times New Roman;" vertex="1" connectable="0" parent="1">
          <mxGeometry x="160" y="280" width="280" height="240" as="geometry" />
        </mxCell>
        <mxCell id="r26zlcC6nCp4phhId66P-4" value="" style="shape=image;verticalLabelPosition=bottom;labelBackgroundColor=default;verticalAlign=top;aspect=fixed;imageAspect=0;image=data:image/png,iVBORw0KGgoAAAANSUhEUgAAAMgAAADICAYAAACtWK6eAAAAAXNSR0IArs4c6QAACyZJREFUeF7tnQuS3LYOReWVJF6JPStxvBLbK0m8EtsrcXaSDKpbZU27pwUQVxQ/R1XzkrwmKeICRwD1fbOwoQAKvKrAG7RBARR4XQEAITpQ4IECAEJ4oACAEAMoUKYAGaRMN3pNogCATOJozCxTAEDKdKPXJAoAyCSOxswyBQCkTDd6TaIAgEziaMwsUwBAynSj1yQKAMgkjsbMMgUApEw3ek2iAIBM4mjMLFMAQMp0o9ckCgDIJI7GzDIFAKRMN3pNogCATOJozCxTAEDKdKPXJAoAyCSOxswyBQCkTDd6TaIAgEziaMwsUwBAynSj1yQKAMgkjsbMMgXOBOSvZVk+LMvy5/WvzII5e/27LIv9fV2W5fv13+dU4mCrzwDk07NNnw+2a6bhDZCPQHKMy2sD8vezIy1zsOkVeLpmE/3IE49YExADwwBhO06Bt2QSrbi1ALF1xk/t1BntjgL/XMstxBEpUAsQ1h0ihzmGIYs4RPI2qQXIt+f6+L13UrRLKWALdsskbAIFagHyn2CuDOFTgDLLp5OrFYC4ZOqq0SiAWMVh18ky23qdqHgMACmWrtmOowCiOOuZLjcBpNk4L54YgPySDkCKw2jcjgACIONGt8AyAAEQQRiNOwSAAMi40S2wDEAARBBG4w4BIBMCYs8+2G3dM2zZu50BZEJARnG6B/DsXQejaMV1EE+0XNuM4nSPyQByUQlAPNECIAGVLk1HOZgASMD1ozjdYzIZhAziiZMXbQDEL9koWpFB/D4fpmzwmEwGIYN44oQMElaJNcitZNPcrDhK2eCJeTIIGcQTJ2SQsEpkEDJIYdD01I0MQgYJxyslll+yUbTiLJbf55zFmlArAJnQ6R6TKbEosTxxwiI9rBKLdBbphUHTUzcyCBkkHK+jLDw9hgMIgHjipLkSy17AbQ9uHb3NAogtwt89ENP0zr6udu/jQj/2XtPay3uxWsgg9n5h+wbH0dssgLTwrZjduAIQX7ivb6evoReA+HyiaAUgAhW33zYBEIGg1yHIIBstez4qbj/dACAAolNgAEBuP/wDILrwIIN0Dsi9z8YBCIDoFOgckHtfxQIQXXiQQToG5LVvKgIIgOgU6BSQR1/kBRBdeJBBOgXk0QdHAQRAdAp0CMje56oBRBceZJDOAHlUWq2mAAiA6BToDBDPt9wBRBceZJCOANkrrcggOjDWkQCkE0A8pRWAAIhegU4A8ZRWAKIPDzJIB4B4SysAARC9Ao0DEimtAEQfHmSQxgGJlFYAAiB6BRoGJFpaAYg+PMggjQJSUloBCIDoFWgUkJLSCkD04UEGaRCQ0tIKQABEr0BjgGRKKwDRhwcZpDFAMqUVgACIXoGGAMmWVgCiDw8ySCOAKEorAAEQvQKNAKIorQBEHx5kkAYAUZVWAAIgegVOBkRZWgGIPjzIICcDoiytAARA9AqcCIi6tAIQfXiQQU4C5IjSajXloz5OfhvRAiez7b7SPzO4sC8f0DkJkCNKK2FcPBzq8/Ov9pfZegFkz0Y+A72n0OZ3r9OPKq0CUy1uap93e7ssS8+fiig2/k5HAAmo6QHkyNIqMNXipgaHQQIgFwkBJBBKHkB6L62+XPUAEAAJoHFpugfICKXVKgqAAIgUkFFKKwB5GRaUWAFMHmWQUUorAAGQABIvm74GyEilFYAAiBSQ0UorFSDFIt90tDNq9mfb12VZvm/+W7WPR+NQYgVUvpdBRiutWgPknnsMEjvbZv88egOQgMK3gIxYWvUAyDrHGqAASCEgo5ZWPQGyztVui1mv3wTc6WoKIC6ZLo22GWTU0qpHQGzOBomtUdb1SsCtD5sCSEDJFZCRS6teAVkhUWcSAAkCYg74GejTWtP1Xqu9eWWvpO+Nf9Tv6nILQAKesgxia4/3gT4tNY0ET6+AmN7eg4DHNwDiUenaxs6aWJ175Pbuegepeh/rbezecXsGxPz05DV0px2ABITcu1kxMNSrTRUOuTd49KjaMyBmvz11af7Kbgp/pOdS47PGJlTW6b0CEimt1oDKapUNzGx/VRYBkIAnegQkWlqNAohqLQIggwMSLa1GAiRd2vBEYYAOxwNTsdHut1YcsdaRS0qrkQBRZHyFP9Kgsgb5BYvCITZaaWk1EiCKdYjCHwCiSB3XMRQOUdTfvS/SFQcJG0PhDwBpDJBMaaXKIJbBsrej2wVZuzCb2bLVCYAE1FfUtHu7yzokW1qpAFFopXgtKIDsRdzm92zZoHD63nSzgJSetbqdVwtaAcjVK1nK94KupaPi3lwzgChKq5a0AhAA+Y2XUkBUpRWAvHRJqT+2o7BI30sLgd9LHaIqrQAEQALh+rJpq2sQZWkFIAAyFCDq0gpAAGQoQNSlFYAAyDCAHFFaAQiADAHIUaUVgADIEIAcVVoBCIB0D8iRpRWAAEjXgBxdWgEIgHQNyNGlFYAASLeA1CitAARAugSkVmkFIADSJSC1SisAAZDuAKlZWgEIgHQFSO3SCkAApCtAapdWAAIg3QByRmkFIADSBSBnlVYAAiBdAHJWaQUgANI8IH8c+FFKr/G81eSiVOkj0FudeSbdG3WOdvaytOwL1xy72W0CIACyGyS3DWo8kx6e1EEdAARAwqEFIH7JFFrxXqyr3rw4zh94tVqSQcgg4VhTHBXDOz2pA4AASDj0AMQvmUIrSixKLH/EVW5JBiGDhENOcVQM7/SkDgACIOHQAxC/ZAqtKLEosfwRV7nlKBkke8uO4kr6U/biL6d5K0e/Y3cAchHp0/P/2F3VmQ1AMuo12rcFQBRH7+x9UN+ej/52+09mSyeA9ADO2bfgdOdUT2/WglYKQDKfgrYPiP4UeCId3+kBnEa04HTnVE9v1oJWduS2I3h2K33wTJE9JM/1AEg2BPT9WwDErLIjePZT0DZOdLGuWHvYfkvhfOFRANEHeHbEVgBRnOo1LexIbusRz6MEKjgAJBuFDfdvBRDFOmQrs12f+XIF5lZ+29cHwaJ8O67k4K8YxOpVM+7RZgJkNjsKeY5AmX200reGVnZE39tUC+Xb/ax+NJ/aPrJnqu7ZIVl/2MAKQNRHmj3H8XteAa/fVeuQ/IxjI0jWHwASE32k1l5AVGezamonyx4AUtNtbe3LC4jNWnHKtab1suwBIDXd1ta+IoD0lEWk2QNA2gramrOJAGLzUp3yPdrG7O0tv80vKtQ9A1mkH+12/fglfm99wa64zR9A9LHW5YglgNgpWVuPKK6uq0XL3Pf1cC4lQt0OSAZRu/v48Ur9rrzSrbJSvu7YTqxUqO0YAKJydb1xMn5vDZL0Mx+PZM8ItY4LIPUCW7WnrN8NEvP7meVW5B6vYt2yQtmOAaRY/tM6Kvxup3/t7NYZkBy25rj1iEIoADktzot3rPC77fyMhbv0QuCeggqhAGRP5fZ+V/j9dh1qZdeR2cRO436tfdOqQigAaQ+AvRkp/H5vHxYLalCsnLLb5E+5m1shFIDshWN7vyv8/sgqW5+soJRmlVMyBmuQ9oL1jBkdDcjWJoPl3ea5jxUY+6ediVr/rM+Pa6aw/6+JraZQTRjMJFAgogCARNSi7XQKAMh0LsfgiAIAElGLttMpACDTuRyDIwoASEQt2k6nAIBM53IMjigAIBG1aDudAgAyncsxOKIAgETUou10CgDIdC7H4IgCABJRi7bTKQAg07kcgyMKAEhELdpOpwCATOdyDI4oACARtWg7nQIAMp3LMTiiAIBE1KLtdAoAyHQux+CIAgASUYu20ykAINO5HIMjCgBIRC3aTqcAgEzncgyOKAAgEbVoO50CADKdyzE4osD/Jgbw9r1yfBYAAAAASUVORK5CYII=;fontFamily=Times New Roman;" vertex="1" parent="r26zlcC6nCp4phhId66P-1">
          <mxGeometry x="8.474576271186441" y="16.551724137931036" width="57.495462794918346" height="57.495462794918346" as="geometry" />
        </mxCell>
        <mxCell id="r26zlcC6nCp4phhId66P-5" value="" style="shape=image;verticalLabelPosition=bottom;labelBackgroundColor=default;verticalAlign=top;aspect=fixed;imageAspect=0;image=data:image/png,iVBORw0KGgoAAAANSUhEUgAAAMgAAADICAYAAACtWK6eAAAAAXNSR0IArs4c6QAACYBJREFUeF7tneuZHDUQReVMcCQ2kYAjMY4EOxJwJDgTmFp28bjZmatRqaRS6/S//UZqlW7V0e33vilsKIACNxV4gzYogAK3FQAQqgMF7igAIJQHCgAINYACbQrgIG260WsTBQBkk0QzzTYFAKRNN3ptogCAbJJoptmmAIC06UavTRQAkE0SzTTbFACQNt3otYkCALJJoplmmwIA0qYbvTZRAEA2STTTbFMAQNp0o9cmCkQA8lMp5f0m+jHN3Ar8WUr55gkxCpC/PEHRFwU6KfChlPLZsy8A8ahH3+wKAEj2DBHfVAUAZKr8DJ5dAQDJniHim6oAgEyVn8GzKwAg2TNEfFMVAJCp8jN4dgWWBeSt9wZO9swQ3xAF/hajAMiQNDBIVgUAJGtmiCuFAgCSIg0EkVUBAMmamRPE9Wsp5d3lWSV7uPRls4f7vix0fgggJyjEbFOwJ61/P4BxjPG3RUABkGzVtXg8BoY5R81mbmJXgVyPi9cM5GgDIA7x6PqjAh8vf5ozPLJlhwRAHsnmoa0VxPXxtWNXqbt+rXjnwXRofUfHoPqUVAEAcSTGCmIHQGoKuMU9XqS3Q6yfkx5qAQiASAVqAFGFpAbJ+uSDmhd30u9kFgf5VxzP4dWLvO5CUwQ2/g4gjcJZNwDpB0iNSzlS1dwVQJqlA5Br6VQhKZkBRCn0wO81lj7imBYH+Z40rxZ2km6XfLNtCnz3oeGsr5oASL9Sq1ndH7lBeIzMrmJZvjJuAOLIyi73QezZKbW6m6v/0XjZuwZAR5pcXQHEJR+drxVouRdi4NnhVdYNQLJmZtG4HoEkOxyWAgBZtBAzh20PK6rDT/tcp53gZt8AJHuGFo7PHns3UF42Oxm357rcH3weqAmADBSbodZTAEDWyxkRD1QAQAaKzVDrKQAg6+WMiAcqACAOsb2PVziGPn3XLFe5AMRRagDiEE90BRCHtjys6BBvka4A4kgUgDjEW6QrgDgSBSAO8RbpCiCORAGIQ7xFugKII1EA4hBvka4A4kgUgDjEW6QrgDgStQoglmR7OI/t/wr8cnlo0R5mvLUBiKNqVgEk85tyDvm7dFWv6AKIQ2YAcYiXpCuAPCdi54824CC3aQQQAHn60nnWjzLPNhIAARAAuUMhgAAIgACINmrOQbRGO7bAQXAQHGSwg6h//WYfjVAfwDuGzPsgjuVbvQ/CSfrYq1gR+QAQAHEo0N414hALQJ7zwY3C9sLM0hNAOAfhHGTwOQgOgoNkMQB3HDgIDoKD4CB6IeE+iNZoxxY4CA6Cg+Ageu3DQbRGO7bAQXAQHAQH0WsfDqI12rEFDoKD4CA4iF77cBCt0Y4tcBAcBAfBQfTah4NojXZsgYPgIDgIDqLXPhxEa7RjiwgHUS9Mtfx3Xd4HcVRnxNOjjnCW6hoBSIQAAOJQFUDaxQMQzkE4Bxl8DtKO6+2eOIhDVRykXTwcBAfBQXAQvYJwFUtrtGMLHAQHwUFwEL324SBaox1bRDiIug/Ch+OuKu1tKcUEidw4SW9XNwKQiHxwFas9xyUiIY5wluoKIJyDcA4y+BwkYsE6tYNEL6mWkHsb3+a9rQ4OMtlBouGo2T+AAIisk1lXsWRgAxoACIDIMgMQKdGWDTjE4hCLk3RO0vXih4NojXZsgYPgIDgIDqLXPhxEa7RjCxwEB8FBcBC99kU4iI1q/4btequ5afdFh3u3RcsY0c+DOac0rTsOEuggr2U1/JGAUsqIMaZV7OCBAQRABpfcWsMBCICsVbGDowWQZIC0fDTsWDPqhZwPl3Ojz4MLbdXhIgBR+WmpgfDD6qiT9GNhqImMKCQAqVc5ApD60etbqrpy5xxA6pOxU0sASXaINaL43KvJiCCTjAEgAJKkFHOGASAAkrMyk0QFIACSpBRzhgEgAJKzMpNEBSCDATHBH9nev/I813X/lo+M2bNedq2dTSsQAYi6D9KS09Nc5tUp+bHFx8uf9s74rc3EtI/PscUoEAEIn/3pmCsA6Shmw64AZPAh1qM5ApBHFevbHkAApG9FnWxvAAIgJyvpvtMBEADpW1En2xuAAMjJSrrvdAAEQPpW1Mn2BiAAcrKS7jsdAAGQvhV1sr0BCICcrKT7TgdAAKRvRZ1sbwACICcr6b7TARAA6VtRJ9sbgADIyUq673QABED6VtTJ9gYgyQGxj1/bS1P3Nj4CF0clgCQHJC717LlGAQABkJo62bYNgADItsVfM3EAAZCaOtm2DYAAyLbFXzNxAAGQmjrZtg2AAMi2xV8zcQAZDIj6aFhN0rxtWv5BixpTfeBO9e/xe8S8AGQwIOoLeD0KRe0j4t8fqI+hqZh6/G4f2PvUY0dX+wAQAOlSUgBSL6PSqgV0tfC6F0X+w1R9gl9rqZLu23td75bCUnvGQXAQVSNVvwNIlUxPjZRWLaDjIPX6y5Zuu31lBJV0GVSHBi2FpYbFQXAQVSNVvwNIlUw4iJJJWaHq3+N3HKReRRwEB6mvljstcZB6GZVWLYeKauF1L4pZrmK5J1JKCRer4RykJenHYSIKS5V1hIOoMVt+D885gLSk5XufEcU7YoyjCgCS7BALB7kNKoDc1gYHeWCBDxeLQ6z/FLDvAdiiNnsLzzmHWL4Uj1jdR4zBIdaNOgAQAHlNAc5BOAfxkfHce8TqPmIMHAQHeTpm7v0trRHFO2IMAHEAYi87vXOut+qFqR4v/YwY4yiDGvPb5QN4NjfPNmKMY3zqRbAe8/Jo8tJXaaPq6qtaNGvOQdTxaI+Jsg8UmKGAvBoHIDPSwphZFACQLJkgjpQKAEjKtBBUFgUAJEsmiCOlAgCSMi0ElUUBAMmSCeJIqcAQQLJcE0+ZAYKaqoC6nzMEEDnIVIkYfGcF1D08Wbs97oPIQXbOEHOfqgCATJWfwbMrACDZM0R8UxUAkKnyM3h2BQAke4aIb6oCADJVfgbPrgCAZM8Q8U1VIAUgUxVgcBRwKCBvUfS4D+KIj64oMFUBAJkqP4NnVwBAsmeI+KYqACBT5Wfw7AoASPYMEd9UBQBkqvwMnl0BAMmeIeKbqkAXQNRLJ1NnyOAo4FBAvuxXcx/EMT5dUWBtBQBk7fwRfbACABIsMLtfWwEAWTt/RB+sAIAEC8zu11YAQNbOH9EHKwAgwQKz+7UVAJC180f0wQoASLDA7H5tBQBk7fwRfbACABIsMLtfWwEAWTt/RB+sAIAEC8zu11YAQNbOH9EHKwAgwQKz+7UVAJC180f0wQr8Az1fowUIJ+BtAAAAAElFTkSuQmCC;fontFamily=Times New Roman;" vertex="1" parent="r26zlcC6nCp4phhId66P-1">
          <mxGeometry x="110.50847457627121" y="16.551724137931036" width="57.495462794918346" height="57.495462794918346" as="geometry" />
        </mxCell>
        <mxCell id="r26zlcC6nCp4phhId66P-6" value="" style="shape=image;verticalLabelPosition=bottom;labelBackgroundColor=default;verticalAlign=top;aspect=fixed;imageAspect=0;image=data:image/png,iVBORw0KGgoAAAANSUhEUgAAAMgAAADICAYAAACtWK6eAAAAAXNSR0IArs4c6QAAC9hJREFUeF7tnYGR3LYOhplKEleSuBLblSSuxE4lSSpxXElycFaTO59WArg/SYj8NON5eXMQIP7AtyC1lPaHwoECKHBXgR/QBgVQ4L4CAEJ1oMCBAgBCeaAAgFADKFCnAB2kTjfOWkQBAFkk0QyzTgEAqdONsxZRAEAWSTTDrFMAQOp046xFFACQRRLNMOsUAJA63ThrEQUAJE+ifyqlvCulfC2l/F1K+TPPpa17JQAyPve/lFL+2LkMg+RzKeXj+Etc9woAZGzuPz11i/cnl/AbkIxLEoCM0/5e59i7ordMucYkCkDG6G5RvzxNoWzd4TlsuvXGY4iNVgEA0eoZ8fZPwBhAAmIpTQFEqabfV2R6tXllmuXXV2YJIDIpQ44AJCTXOGMAGaM9gIzRPRwVQMKSSU4AEImM7Z0ASHuN9yIAyBjdw1EBJCyZ5AQAkcjY3gmAtNeYDjJGY0lUAJHI+MLJtunQuoT9a33YdyR22OZG27e1/f/WcZfwDyDaNP/65M72To062OAoVh5AdILapkPbfJjhYIOjKAsAIhKylBLZOqKLuu/JOol9885060GlAeRBAW+nZ+oe24joIoLcAohAxNvU6uy5Dk0kvxdbtFsX4XhAAQB5QLxnp9oTgT3uWEWuFkAiat2xBRCBiLdHZgFEo2UqLwCiSQcdRKNjOi8AokkJgGh0TOcFQDQp8QKieOjJu4+LNYggtwAiEDGwBgEQjd7dvACIRmo6iEbHdF4ARJMSANHomM4LgGhSAiAaHdN5ARBNSgBEo2M6LwCiSQmAaHRM5wVANCkBEI2O6bwAiCYlAKLRMZ0XANGkBEA0OqbzAiCalACIRsd0XgBEkxIA0eiYzguAaFICIBod03kBEE1KAESjYzovAKJJCYBodEznBUA0KfECoonm88J2d59Oh1YAIhAxsN1dE83nBUB8OgGIQKczF3SQM4Uu+nc6iCZxAKLRMZ0XANGkBEA0OqbzAiCalACIRsd0XgBEkxIA0eiYzguAaFICIBod03kBEE1KAESjYzovAKJJCYBodEznBUA0KQEQjY7pvACIJiUAotExnRcA0aQEQDQ6pvMCIJqUAIhGx3ReAESTEgDR6JjOC4BoUgIgGh3TeQEQTUoARKNjOi8AokkJgGh0TOcFQDQpARCNjum8AIgmJQCi0TGdFwDRpARANDqm8wIgmpQAiEbHdF4ARJMSANHomM4LgGhSAiAaHdN5ARBNSgBEo2M6LyMAsd/5fldKed9Jjb+fYm3/Pt7+Wx0aQNSKJvHXG5DRhWSgfC6lGCjKY/S49sbCi+MEGe4JSJYiMkg+lFKsgFRHlrE9Hw+ACLLbCxCbVlkRZTkMkjfCi+kJiF37T45rBxCHSGcmvQD51HHNcTbm7e9vhV3EC4h1rl+dBb43jq37eT5sAMRbCQd2vQD58kBRCIa562IEIBbTitwK3NMFnl/41vW83RhABJXTC5B/BNeqdmGf5rZgVxzeDrJBaXBEIHk+JQQQRcacPnoB4i0g52VLzEYCYgPwQvL9eglAJOn3OekFiM27f/NdUjcrW6Rb8SkO7wfA99O6M0j2biYAiCJjTh+9AMm4SM8AyFEnuXenDUCcxa0wWxmQUYv0ve9frJPYh4gVvx1HC2wAUVS+00cvQDLexRq9BtlLkYFyNu0DEGdxK8x6ARK9i2WfoNFvuqNrHLNXbTmpXYPU5LAFIAam+f2x5oI6nPP19sERrYmHLy0rIDXFG4WwJsY9wa8KyPdTu4cLqrED667bd0mNQ/3nHkA0Ml8REG8n0iik82KQWOdXfYd1eGUAokncFQGJdlyNUhov3ToJgGgSdjVAMt52j2ZCOUW+GxtAomnZt78aIBnvKkYz0WWv2cqA2Bz29ztZ2Z5A9CbtaoBceXq15UT9yMJurlcG5Kz4I08fAsiZmm3+3rx+mwe46RL9xKqZX0ZjeFPmWRACiFdNrV3z+m0eYAJAbAhn7RxAtIXv9da8fpsHmAQQG8bR1hQA8Za01q55/TYPMBEgR3dNAERb+F5vzeu3eYCJADmaZgGIt6S1ds3rt3mAiQCxodzTKyMgylKsuWkSjV/zUF3z+m0eAEBe1IniGZQRe6gAJIp70D56C7YmIdEYwSF8M6eD1KjmO4cO4tPpmxWA3BeLDvK/Ns1nQM0DMMViiuX8YKSDOIWigxwLRQehgzDFOmAEQAAEQADENd9ovkRoHoA1CGsQV6n/91Lv6Is3mtdv8wAAAiAAcq5A9DsKbvNym/e8qjq8dIQO4knD+aKQrSYxHfesmWIFNKSDPN5Btici9zxF5/o1L/ILpPubqd2d21696j23+Qd88wATrUHY7u4t2352zeu3eYCJALGXPNhDU3tHxinWEdDRNWG/ko9Fal6/zQNMBMjRTlwAiRW2yrp5/TYPMAkgZ2siAFGVfMxP8/ptHmACQM7gsCECSKywVdbN67d5gMSAHL0cbnvNvr1Y7uz3OgBEVe5xP83rt3mAxIB4OoM3ZVfrIN7r9Y5/lF3z+m0eAEBe1E7PR24Vt6VHFb43bvP6bR4AQFIC8v72m4jeQsxq17x+mwcAkJSA2EXN8BMIzeu3eQAASQuI/fzau6eri247ydRNmtdv8wAAkhaQ7cJsuvXz00+abT/kmQmAs2tpXr/NAwBIekDOitD+3mOnbY8YnrG+sAGQsGS7J3hvm2a5ixUddY/i7REjOm5+5Tas2P4JAPJal+iHL4AEirHmS7zoDtWaGPeGACAAEijv16Y9irdHDADxlwEdxK9V6VG8PWIAiD/pAOLXCkBuWm2bIAPSvTK127H27+xQ/kxyj/VBjxhnmr36e5TycIDbCT0+3XvEeLSD1OpXcx6A1Kj23TkAIhAx8DyIJprPC4D4dDq0AhCBiACyK2K0tphiBWqx5hYsU6yXAtNBAgV3zzRKeW3IHsXbIwZrEH8FRGuLDuLXttS8qCy6K7Umxr0h2IY/z52lgAQPmx69OC7qvOalbtF81MSIQhgdd9qtJuGBcMKSCgDIkmln0F4FAMSrFHZLKgAgS6adQXsVABCvUtgtqQCALJl2Bu1VAEC8SmG3pAIAsmTaGbRXAQDxKoXdkgoAyJJpZ9BeBQDEqxR2SyoAIEumnUF7FVgWkJrt7l5RW9hlfBm04h1cLbS655PdvAG1rwaIDS0TJFeDw/QDkMkByQLJFeEAkAAcZnrFDrINcWQnuSocALIQIKM6yZXhAJDFAOkNydXhAJAFAbEhe1/yFpTnhfnRr/U+4rf3uSzSA4pfeQ0SGCamzxQAkEA5AEhArElMASSQSAAJiDWJKYAEEgkgAbEmMQWQQCIBJCDWJKYAEkik8qVugbCYDlRg6RfHfUn45sGBtUBokQLT7Ob1/oafSDfcLKCA8uXcd+VqTuAt8qfbbtcF8sYQOynwuZTyoXWsXoDY/NK6CAcKqBTosr2mFyC25cIAyfYGdFWy8NNfgS612yXITbuR28D7p4+ILRWwqZVNsZofPQGx7mFrEZtucaBArQJdFufbxfUExGIy1aotC84zBWznsq097H+7HL0BAZIuaZ0yiEFhUyvFb827BRoBCJC404PhTQGD480INUYBskFi6xHbg8PdrRHZzx9z+53Fj6MudSQg25i3p+7ePXsCD2BGVcTYuNvawu5Q/dV7OrU39AyAqFIS/Rnomriz6IVWzuzPknAbLkl3Jh2t/EIBiF8rs5xFLz5MnHmfJeF0EGfCb2YA4tQLQJxC3cxm0QtAnHmfJeF0EGfC6SAxoQBkTb3oIM68zwRI66cWuzyg48zbo2Zo5VRwJkBq3orhlOmb2UyAoJUz8zMB0nqnMFo5i2qi2+HT3NffUtfqoawuj3f6609iiVYOGWf6VNyGq+wkQ7ZYO/KmMkGrEyVnBOQ5KLZb+MfKakqxWa7y2qOnGShotaPazIBEiwR7FHilAIBQFChwoACAUB4oACDUAArUKUAHqdONsxZRAEAWSTTDrFMAQOp046xFFACQRRLNMOsUAJA63ThrEQUAZJFEM8w6BQCkTjfOWkQBAFkk0QyzToF/AU1mSvZuXZ8DAAAAAElFTkSuQmCC;fontFamily=Times New Roman;" vertex="1" parent="r26zlcC6nCp4phhId66P-1">
          <mxGeometry x="212.2033898305085" y="16.551724137931036" width="57.495462794918346" height="57.495462794918346" as="geometry" />
        </mxCell>
        <mxCell id="r26zlcC6nCp4phhId66P-7" value="" style="shape=image;verticalLabelPosition=bottom;labelBackgroundColor=default;verticalAlign=top;aspect=fixed;imageAspect=0;image=data:image/png,iVBORw0KGgoAAAANSUhEUgAAAMgAAADICAYAAACtWK6eAAAAAXNSR0IArs4c6QAADdBJREFUeF7tnetRHDsQRpuCPC43EuNIbCKxiQSIBBwJvnlAcacXLY9dvVo7mtFIZ6tc/oGkkT71kdR6ngk/FECBoAJnaIMCKBBWAECwDhSIKAAgmAcKAAg2gAJlCtCDlOlGrEEUAJBBKppilikAIGW6EWsQBQBkkIqmmGUKAEiZbsQaRAEAGaSiKWaZAgBSphuxBlEAQAapaIpZpgCAlOlGrEEUAJBBKppilikAIGW6EWsQBVYB5Fzkp+p7JvJPps5/nkX+urD7/zOjLhtMy2Yo19yZ2+vUtEYXIlevIpdGnVYp26KAXIj8mizid6lVvIr8fRH5Lh+wlCZVJd6FyIOIXFVJPDPRyfDuXkRuWtTIgXF7JnKZWRxfsN/PIvdLlW8xQGY2HhVJjaCZn+s5blvI0KvI9YvIXQt52edhZn0en0Wul4BkEUBO7Tl8FT21Iv8uIVCukdUoY+63PeFaa0AuL0SeTihPqCep3kguAUgNccQNtxSSJn4AEq6Gc5GnE4dV3sSXaCSrA1LTcJYQKJe+muXMzcOncC31IFUaSFfW6uVcApCQ46rO+p/Mylfn/sj5bWmsHQJEneazN6eyxu/blKhv0qO64eQWJuJ7PL6K3J9lTLi8ivyYwu1mPg9+6ovopE21X3VAQt3r5GRnfzsicjOGEAGkmsM8ki6Tvq+HFCwxzM420lJEAaTejBKA7Kb9q/qhAFJK/kE8ehC/kHPpQg8SMdSRWkoLryPpAiAAYmFjFxZAGGINZwgWSgAEQACEnnWnAEMsDMHSeQzXcABIGSBmo1o6Qs3FzJk3AC4qjVUXAAEQs4ECCD5IaihhNqqlI1hbSkv+AARAAISeFSc91WqO1FKmtPj895F0wQcpbCl1w5rFqGqG9Z15WGuI1ZsuAFIGCLt5RXzHfLvTBUAAxNy5sZKOk55y0rtrKS2UAAiAAAg9K7NYqVZzpJYypUXmLFZ3PSs+CC2lhY3helYAARAAiSgAIAACIADyocBMt5rsro4xW1adCN98V9OstFDYnS70IGU9SB1TnzHVlQCZsQR1krLqAiAAYrZE9mKxDpKarTEb1dIRrC2lJX8AAiAAQs/KQmGq1RyppUxpkblQaElmlbDWnhUfpKylfJwutdZ/Lfz0cu1FL9iOXQzdmy4AUgZId1sqLKSPtAUHQADEwkbKN+uu4QAQAAGQiAIAAiAAAiAfCsy01aS7oYSFEnwQ1kGGG2sDiF8BhlgMsSxsDNdwAAiAAAg+yHg+SM0Fu+kF3cvA++Pd+Wb0IJ32IOZuYZ4IADKPjvlPMZd+b/RXbkt1OzEegJwo4D46r9zOJGRjGyoBZKZ6BZCZhBSRy3ORh4BPMN9XMlJ6fns7vIk7i3kGOlFhowyxVIYLkatXkdu1INELq89Erp/b2eGsmvyatPl9aCZsd3eKjARIqnG/EHnwbYkPtPiXFyJPnjQfn0W+p77Vyt8BhB4k2xYB5EMqehB6kCNwAARAjoyCIdaHJAACIAASGXABCIAACIB8UQAnHSc920k/f5sC/nkYwTKLNe2/unsRuc7+6MoBAQRAsk0wBIiuE0wHyG4+JxQyLF/Y7AysEBBAACTb7GLbUbRnOBO5dzt0f/jWS/RD1unR7MxVCgggAGIyrdCsXk4iulL+8raNZDM/AAEQk7FGhk456TSzCTEnsxoGQAAk11bew5VAsjXnfF9YAAEQMyAaIeKw+9Lb1P6rnMkGqy/FicKImW3hepsSSjJ2/+q9wzct7c61lpMehB7EajNH4X2O+xYdcp8QAAIgABJRAEAABEAApNwG2M2b1o4hVlojnPQBnfR9kQEEQC4PJejt8up0FYdDAEhaPXoQepAvjQizWF8NAkAGBsR3kGqrK+eH1cgsFrNY6fFBOsSXO7Vc76E3lzRxt1U6++EQAAIgp9jPl7huZf3yReRutkRXTghAAGRlE2z78wACIG1b6Mq5AxAAWdkE2/48gABI2xa6cu4ABEBWNsG2Pw8gANK2ha6cOwABkJVNsO3PAwiAtG2hK+cOQABkZRNs+/MAAiBtW+jKuQMQAFnZBNv+PICE60c34P3yXdasUXRDnqVqQ+/+WdOxfJOw8yjgqztrvUXefdTL9O5rbeys8spt6B2MeeQmFRTwKlAFlNkBAQ7Md0UF9II9fRrCNDqJ5XdWQEqu1FxRTD7dpwKz3l88JyChZ4v7rAZK1awCgQeJivI7GyCxty9KnPKi0hBpKAUiEzfXcx06mw2QyHTepp4MG8rCNl7YJWxuTkAefK8izdndbbw+yf78CoSG9bPdhg8g81caKS6nAIAspzVf2qACALLBSiPLyykAIMtpzZc2qACAbLDSyPJyCgDIclrzpQ0qACAbrDSyvJwCALKc1nxpgwoAyAYrjSwvp8B2AAk9tabvYS+nF18aTYEzkVtPmWfb9n7qSroSrBm8Gq1iKO8mFDgZlGJA9Kp+EdH9V/xQoGkFdBRTuru3FBDOfjRtEmTuUIHSTbNFgHCsFgPcoAJFO3xLAKH32KB1kGWRkl7EDEjo5KC7xuWGikCBBhTQ66aOnh4v8UXMgMx1EVgDIpKFThWIHP82X+gwGyAi8v1Z5LFTzSnWhhSIzLACyIbqkaxWUgBAKglLsn0oACB91COlqKTAKIDodLLORHzTrSxuluzPdBn23xl8nfe0Xz9mO+ZKW6td0//h6v897y9vPtqp12JW1UXzvM+702Yrurzj1j0gqStMFZYXke8lxpbaIqNpT1OEd88iJVPW0b1pJ6athvtrsoLfoYZ3q7q48pgd6JAOPQOiTyY8RK66f9ekxNiMOwBMFZYy3s+VWWDIzegy9Sp6EaA2Hlk9YWVdvIx0C8gk5mvBsDRretkIxy4bzhiS2/VTvZKvTBZISnTJXRTbsi5D9SAlFeWMWIdb/8bAKjHgfXo5hlZiwLkAnqhLdBhaW5fQGaFUI5jbMA0DyCkVlWNopQacA+C5yG3oFa2UIbi/B3vAkXXJaZiGASRkZPv9XTr742a01Ek9OpzlhiveXiRx67w6vH+eRf66mZuQAxw04shJSnX2rzXt87c8e/cHqdMdmhAYXJei3bduFi50VsnkV2paTWw1iXTFh4YZdFZDOzUt+3IiDmVQWF/vFADWfH7aokvoZKdVF9/wZg1dYo1eqmfuzkk3GFlsqtPbyoda4YDhmIzYAp9r2Y5uwI8ZQmhoOPU4Rw1bxIib0SXkW/j8LAD5aAa8RhkSKDLs8B6rjDi5R4YTankiFWvqykM9gs/g3WLj02FrGdLFusvaokskL963X6wtuFGXVAeijaipXmIJNjHEslRWREz1QY7m5i2PrFjhsxhxpNKCY22LLqGwoSGWRRcrfLV1SRHSHSAxZ9Stat/HnHQVLNAKB1uT/UJjjpMeO4mW66QHrqeJrrVEDHO/2q/vg2sZgzfLWHVxxpc1eRGbaaqpy3CAVJ7OzF6FDgkfMjINv+Fp3s3qMhwgpxhajjOXemA0IXhqpf4UQ0tOZZ4CYAxsp/nPUM+WMsKMA3JVdSlcGN7mNK8rbKmgKQPeJV9iaLkruqUApgy4VV2mtagk2In1iCh/mboE0+jOB/lUUhMkxtXW/Rb04G7Yz4rnwrGPY92U5xYRc48om3SJLT56rMqkSy4cC+nihaRnQLTAORVWfKWktvaRVW11mvcr4LnG+7mScq5iNXfz+54ksdq/y3vpMYAN63IESe+A7AusrebVNEb+x20v2Rusbg0pMd5DQ750B4L0QJauvOkU8SxpuyGdzsV/c1v3Nb9zpL1rQDaqy3veK+nyXr+jAJLhJxIEBY4VABCsAgUiCgAI5oECAIINoECZAk32IMYp17KSEwsFMhRYFZDY5dW6b2oC5b+MMhAEBaopcPZ25ZLvYJ35IZ2S3by8LFWtakm4pgIlK/RmQNwc/1PO1Tw1C0vaKGBRIGfPni+9IkDcYlXW/VWWQhAWBWopUPJ4jualFJDd0deJSt0NevRQSa1Cki4KFCqQtaF1zh5kn1bO3qPCMhENBU5TwHoLZA1A3tPUqbVPF0EHn8DKLbLbg3W081YLrfuactMhXDsKhGaXphz+tsx++s6wfH4CcKZLwnfCFQ+xYrJHzkdnf2/Ouex2TGTsnETO5JiGQIHbXrLOqFhrINtgLQkDiEWtccICiKtrABnH6C0lBRAAsdjLcGEBBECGM3pLgQEEQCz2MlxYAAGQ4YzeUmAAARCLvQwXFkAAZDijtxQYQADEYi/DhQUQABnO6C0FBhAAsdjLcGEBBECGM3pLgQEEQCz2MlxYAAGQ4YzeUmAAARCLvQwXdlRAjo7cnot4z6u7c8FZhuEuaNanxQ5/ejv67ukxfttSIPJUnJ4HOXpfMlS66Zb7o8dN3bMM14E42Wkfxi86D+JOD95yHn1bBjpwbh9fRe5f3k6jmn4lgITeEjd9mMAosLQCJTebmAGxvKS0tAB8DwViCpRcj2sGpPQ9PqoOBRpQwPy6lxkQLWToDewGBCALKOBVYPGbFd17eUcXBFM/KNCaAg6OGzHMlO3LUNSDtCYA+UGBWgoASC1lSbcLBQCki2qkELUUAJBaypJuFwoASBfVSCFqKQAgtZQl3S4UAJAuqpFC1FIAQGopS7pdKAAgXVQjhailAIDUUpZ0u1AAQLqoRgpRSwEAqaUs6XahAIB0UY0UopYCAFJLWdLtQgEA6aIaKUQtBQCklrKk24UCANJFNVKIWgr8D9SU6lCFN3yzAAAAAElFTkSuQmCC;fontFamily=Times New Roman;" vertex="1" parent="r26zlcC6nCp4phhId66P-1">
          <mxGeometry x="212.2033898305085" y="148.96551724137927" width="57.495462794918346" height="57.495462794918346" as="geometry" />
        </mxCell>
        <mxCell id="r26zlcC6nCp4phhId66P-8" value="" style="shape=image;verticalLabelPosition=bottom;labelBackgroundColor=default;verticalAlign=top;aspect=fixed;imageAspect=0;image=data:image/png,iVBORw0KGgoAAAANSUhEUgAAAMgAAADICAYAAACtWK6eAAAAAXNSR0IArs4c6QAADaBJREFUeF7tnb/LLkcVx08ghUWKFCmuYKGgkDLpLISYTgXBxsLqJmAtSW1hki6k0H9AEqtYpEgjpEtSaWe6NIJXCCgoGPAWKYTkPW+evXeefWd3fp3dndnzWXi5F3Zmds73nM8zP3Z25gnhQgEUWFTgCbRBARRYVgBAiA4UWFEAQAgPFAAQYgAF6hSgBanTjVxOFAAQJ47GzDoFAKRON3I5UQBAnDgaM+sUAJA63cjlRAEAceJozKxTAEDqdCOXEwUAxImjMbNOAQCp041cThQAECeOxsw6BWKAfPtS1PRvXcn75/po/0fyxLMrEAKiQPxGRF4a2OgHIvKyiADLwE7sqeoTID8UkQ97qlhjXV4TkdcbyyA7CogCoi3H30+mBS3JyRx6lDkKyNuDd6uWtNNu1otHCctzz6GAAqKtx3xArr/AI12xCQW14TsjGUFd+1NAAfkyUi0NrJEgWeomagvCgL2/uBumRmcBRAWPtYQAMkwo9llRAOnTL9SqEwUApBNHUI0+FSgB5Cci8qsOzPjzwjsOulgdOOdsVSgF5E8dCLD0EhBAOnDO2aoAIGfzKPaYKgAgpnJS2NkUAJCzeRR7TBUAEFM5KexsCgDI2TyKPaYKAIipnMWF6fc3+qlBycdpugRIl8+wnL9Y7vIMAFKumVUO/f5G4ai9+OalVrmCfABSIJZhUv1qUz8zaLm0JdG1ZiMtKm2x95C8IwKi3ZI3ImqN9KLQ6hscFmNujA2AbCzwQvGt3aupWP3+/p1jTPDxVAA5xs8xQHRM8fFKdaYBfZgEQDb2H4BsLHBBC5IK9hhUb4rIB8eY0PVTdVxmMjYDkGP8HAv2GkCOqf0YT/1CRD4XkVdF5I+1VQaQWuXa8gFIm36luXWcpj9AxReAFEtmkqEGkE9vfgmfNXm6z0Kq9lkAkGOCpQaQf4rIvWOqe4qnprqwUSMB5Bjf1wDyXxF5elbd/4jIw2NM2O2p+qPwDYOnVa08ABAD5SuKsALk9yLyy4rnj5QlppWOKZamxJ8RkV9HfkwAJLLor9c3zQCSj2iNVkvvmYoXeJa2ID/Lt2uzlJ+dYKlJjdNjXSyvLUhqPHEIIJtFvFHBI63FApB8p9doBSARfQEkP+hGSgkgRt4CECMhOyumS0B6Hdwu+W5p8+qql0M7BEiN0xmDPHbMrmMQq6XXO8RV8SN6PaTUCpD3L2uNioUZKMO7Nwsyvz+r766A6DJqnSM+21W9/mYHIawA2aGqXT5iV0C0e6IOK9k4oEvVZpXquZsIIG0RtCsgWtWzQZISsM097blrAPmriDzX/uhTlJDyr+k076SYQnJ/4O7W9JGMimfyscyGoVQDiO5qP++Lb1jFros+BJBQkdLuljpOB1Pz63cFMmsZ8wD4i4j8IqOM3oGYm1ADyJknUzJcfJXkcEBKKxw7Z730EM3YVjhnPanWCpBUoJT6scf0VlpVL1a0EAVAylS0cjqAxHXfZAxS5uLr1ABSpp5VdwlAAOR298CzXQCS71Gr1pYuVr7mh6e0ejnb61IaS4EB5KKmp0H60tqxksA66wTGVjN+tCAl0dVBWoUkts4op2qfiMjzOQlPkIYWxGELMsVt2NXS9z363mfp+paIvHV5V1Q6hT4yJwDiGJBw9i9n7dj0zUvPCzGtYQQQx4CEY5FU0IdjtFRa6yA9sjwAcQyImj4FQKrbFJ4p4mH2aoISQJwDEnaz1l78fXnRyVPrEf6AhK1Y6gUpb9KPbPONnx1+arDUioTdq5yxinEVDy2OFsR5C6Lmh7NZMQDCDSl6/Yx4K4oABEBuP1hTCPSavwAMW49U12KrID2yXAABkFsFwsF6eHptGCCeBucM0mc/S56WmsR+kcPBergswuvgHEAA5A4nYSui3anw4E5vg3MAAZA7gMRa0di45Mgxwd7PZgzCGOQq5uZL4VMvEPcO2L2fByAAcifmdFZLxyT6UtDrNe2y80rkMJz/J0R5MnJff2hUz6IzQqzm1Pnk1msYb2N3LJ6snqSghLOEq+UCiJXslGOpQGynfsvys5frAIil7LZlTS8Pvb37WJqosFVXJCv2sxJl1IwuVoZIhUm8AhKuWi6UrCh51rQ5gBRpumtiAHkst3aJ/lCxN/G/RET/FLr5bqEAsms42z8MQB5rWrXhQuCS6tPHaEHsA3sqUd9nFE0pzqpiBYj26UeaLo51sQDkZkf2M63Fmr7x0JW5umSk5rIAZHrpaPVDWGNHaR4AWVDsTICoiWqPBmj2nPsGLYgudBxtiTyAOAFEzdRlEvpiqrYVKf31DdNroOnsok4Tj3QBiCNApunvrBkTwyg+6rkWJgCII0DU1CN+ybXl0mvEjb8BxBkg04C9dixS+qu89/NK65dKDyDOAEkFBPevFQAQAIGJFQUABEAABEC+nt4smWI823sQKKhTgBaEFqQucpzkAhAA6TrUdRbsyHPnAWRAQKZlI8XfNHeNwt3KTWu3WhcHtpgNIAMCMm0goIEzLR3RhYhnudS+6YXmkXCongAyICBTlUNQptaktTuiZc4/5skBzwLQ0J5p5XGrPTl1X0sDIAMDEoKijtSrZTlHy+4dGsj6vUnLtx66JEUh0cWUFsC1wkELsqLgiNO8rQPa2KZoJUFWOpU+L7u1/iV1zU1LC3KCFiTX2al04aeg08Zm/0hkun9Zxq7JWgFJ1e+I+wACII8UqDkYJzxLBEDyEOab9Dyduks1OW5+aE6qorkHf6bK6fE+LQgtyJ0WBEAeB8VwgEzTkC+sTEfeE5EfzQL/4WVPotxfqadERMsJL93T6IOMAj6+9Md7mYnJqPJtEm8tSE4s/UBEvhuJA42F2kvL0/gKL42rWJlXsZTa7aJlGrLWmJZ8o73E8wTIXluKtsRPmPd2k+s1QFqnIK0qWlpO1Tb3pQ8xSu8FkGFjaQmQ0VqOebwWbXFvFOw1xXgAZOhYWgJk6+3na4KpNE/pwLe0fIv0HgCZDiG10Gv3MpYAiRk1dV1SldSB2NORU4FS+cL7n4jI55kZptOY5uuZRnhHcHZAwnc28/59aomMxlDtOrVY6Gg8peLqTizFAFkaTKUG9JnxvEmyJUf0frbG2QGJxVLvP1xXsZQLyEjdlZDA2g3b1lbXWq527Q0Qa7vnB5Kqb7JPd9rkpzSv0Ec9KACJC7bWb7ZsSXsDxNpuAMkDcpdU1ettIrWz/iVdEqA3QKztBpBdQj/vIZaA5D2xPVVvgLRbdF0CgFgr2lAegDSIt1FWANlI2JpiAaRGtW3zAMi2+haVDiBFcu2SGEB2kTnvIQCSp9OeqQBkT7UTzwKQjpxxqQqAdOQTAOnIGQDSnzMApD+f0IJ05BMA6cgZtCD9OWNkQEoX8E22lubb22u0IHsrvvK8kQFRs6adEtcWQ05bhepHSFOekjNY9nYXgOyt+MkAaf0UtfdV1gACIE0KtG5kULucv6nSBZkBpECsrZOO2MVSTWq/mhthiyMA2TrqC8qPAaL7Hn1RUAZJbRWIfXrNB1O2GmeXdoaNJrKNHTghgBzkPAA5SPjCx74nIj8vzLN38lN+cvtvEXlmbyV5XrECurPI88W59s1wSkD+F9l/dV9ZeVqOAn8Tke/lJDwwjRtA9Nfq1QOF9v7o34rIczMRAOSgqIi1ILqD948Pqg+PFYm9CAWQgyIDQA4SfuWxANKRTwCkI2dcqgIgHfkEQDpyBoD05wwA6c8ntCAd+QRAOnIGLUh/zgCQ/nxCC9KRTwCkI2fQgvTnDADpzye0IB35BEA6cgYtSH/OAJD+fEIL0pFPYoCMsLS6IwnNqxIDRD9i+6b5k2wLXF2sGDu2V3faeFlEev3Mc+nb7hE+zrF1bV+lvX2zW4v6JrweishPR4ml2HFiSwdiqpGW5/NZuXLtVCQAsVK5rhxdzfvKQtYhYmnpvL3W7Wjq5LTPBSD2mpaUGNu0oST/4WmXAFlrRQ6vdEEFprOxC7KQ1FCB2h1bDKvQVtTaia06FnlXRO61PYLcKDCsAp+tAdK6qdmwqlBxFLgo8GAJkNhMFqqhgDsFlgBhCx13oYDBMQWWAHn0oiTIpNNyvb4HCW176jJu0n/1j+tYBfS9h/7pt+gjXFfvbWKALI091sYrIxhOHVEgR4GrGdxcQHrfZj/HcNKgQK4Cp9wXK9d40qFASgEASSnEfdcKAIhr92N8SgEASSnEfdcKAIhr92N8SgEASSnEfdcKAIhr92N8SgEASSnEfdcKAIhr92N8SgEASSnEfdcKAIhr92N8SgEASSnEfdcKAIhr92N8SgEASSnEfdcKAIhr92N8SgEASSnEfdcKAIhr92N8SgEASSnEfdcKAIhr92N8SgEASSnEfdcKAIhr92N8SgEASSnEfdcKAIhr92N8SgEASSnEfdcKAIhr92N8SgEASSnEfdcKAIhr92N8SgEASSnEfdcKAIhr92N8SgEASSnEfdcKAIhr92N8SgEASSnEfdcKAIhr92N8SgEASSnEfdcKrAISOwJaD/B8UUT0Xy4UOLMCV2d0xs4ovDrEMFACOM4cFtimCmjsX11LJ9d+eHPks7YkXCjgWoElQJZaEddiYbw/BdbOPl86L92fSljsVYEHa4BMfbL7N/95zatC2O1SAR1vvyMir6cACdXRbtedQYxL+TD6zAp8FBr3FfeheF7MY0iuAAAAAElFTkSuQmCC;fontFamily=Times New Roman;" vertex="1" parent="r26zlcC6nCp4phhId66P-1">
          <mxGeometry x="110.33898305084747" y="148.96551724137927" width="57.495462794918346" height="57.495462794918346" as="geometry" />
        </mxCell>
        <mxCell id="r26zlcC6nCp4phhId66P-9" value="" style="shape=image;verticalLabelPosition=bottom;labelBackgroundColor=default;verticalAlign=top;aspect=fixed;imageAspect=0;image=data:image/png,iVBORw0KGgoAAAANSUhEUgAAAMoAAADICAYAAACprX6jAAAAAXNSR0IArs4c6QAAGX9JREFUeF7tnX+MH8dVwN/u1XFjpXVEQnV3AsUWpRWqSlMaf5ukFNtUiEioLZGo+kO0toUQpRWFSoDu3NCzofjMH0ioQEEC4XOliCiNREL/aAj9cUZNE18EGEoRVQO5isbfL5GjOMQ0SpT7Lve+nj3vd787897Mzu7O7r6vFEXJzc7Mvvc++2bezLyJQH4igQolMD8/fyiKopUoijbH4/HJ0Wi0WWFzlVUdVVazVNxrCaSAAMChjCA2kyQ5NhqN1tsmHAGlbRoLvL/z8/P7oig6kwNkqtdRFK21zbsIKIEbXlu6h4DEcbySJMlRZp/Ru+BQbI1ZvtFiAkqj4u9G44uLi2csAMm/9LoajgU9dxFQumGrjbzF/Pw8TtJP+GhcwRKsdxFQfGi5Z3XMz88fxUgWAOzz/OrBehcBxbOmu1xdhYBMiQ29y3YwYD2kULKAEoBlowECwC1pV+I4nnypx+PxWQDYbNpgFCBHTJEsnRiTJDkxGo1OqnkMhoq5Xigo7yKgNAQKrjPEcXwkSRKO8aDRVLb2gIasE4PrRB1DwBcvXkTPsPNTaysYOubCAggaAJxt+mMhoNQMCmedoeYuwXA41NrBwsLCUzaGzVkjUUEA9KJcYBr3LgJKjVapvqhfq7FJVlM+QOEAUtK7bA6Hw/2sF6qgkIBSgVCLqvQZSvXd5ZKg4NceFw6dhoZc75IkyWHXNnzIS0DxIUWiDtdxfg1dmzThCoov42UMR9eHw+HhuuRR1I6AUrH0Q4ekDCgmwFzEqgk/NzrkSt9DQHHRKPMZG0jUGP8choNV9QejKMKIWHb3LbNlu2LYtu4J09YU36BgH/LeJQ0v272R/9ICin+ZTmrkQkJt3eCGVNUinXa/lNrRy40ysaRSBShpw+hd4jg+mA8xszpWQSEBpQKhMiGxOptBhWkp4KjnXcRQJSgu/anyGQHFs3SrgCTtImHsxgmvgFJO0QJKOflNPV0lJGr8btytmyTJft0KtoBSTtECSjn57TxdNSQcr9I1UHBi3/TWFYl6eQLEYuJuNSfRdY8Ach2TOBQ9W+JglVZSVc1RMpGvfWqtpvFDXeJRSgJTlydJu8lsz+qt0Bh1D5iiZVWAotZScOPk5CfhYStVhlmYabRePEkqgSq2wriuzPsExbQ6bxpS1mUZ4lEcJd0EJBbDPKu3cgXFdiOkrlMM+PFjg3u9GhuCCShWJnW1cFOQYNsLCwuJQ5eNj7iCsjPRdUw/pMn9VdjXpodgAoql1TUJSVXb9MuCkplPsI/wMrxIXjON7vkSUCxAaRIS5U2sDlFxX80XKKq9Sb4u3Zl3Gy8S0oReQGFaUwCQ4IEv7QbJ9Mgs83WmipnG/iUSSswAw5Rhtm+lzrq4yEL3jIDCkCZTwV6jW9luLSwsGCHBHcdVn/7jHrAqECca+1nb9EZNz0ny7yGgEKC0ABJca8DE17Ukj3PIpsL4FE0Vafx8fFGHBRSDGtsACc4F6j79l8kzzMkgwwalTuDZnVIFBRSNxFoCSeVDLpNBZVIucRNz66oL0otkOyugFKiuLZA0vQiXis4lkpWJaDWaNILrWQSUnKSYkICvVem8ohgTd3ykssAB13CKytkAU5Qgr0zbVT8roFw9p22TtTGvkzSLY+lshm2GJCsU4vhykJBToPUaFEaaHEp+U38v42W6AkkOmKms923zIjJH4e/XsgIlM+62ypfbRUjywKhk405J8pyU4Pmh3nkU317EoA9WJKfrkHi218aq6xUoVW0qNGjPuD1cIGnM7q0b7g0oHiDBsxBOebGKDh4JJNa22ugDvQDFFpJM1saZW59w6IbAZPYuseDJwiKQNGrzTo13HhQ1J8Ht6eTPZSOexd6nyTCMuoNddbKVIVRSwC0u0HlQmF/vUvulLO5Y5wzfBJIAgeo0KJxTdC5eRKdHTnuEDQgkAUKCXeo0KNT5cl/3e+TWDFzvXhdIAoWk06BQX3efniSvX6rtAnsQSAKGpNOgELl2ye3puf1fqRrRoHF1mdzXZZHrVyAJHJLOgkKFg6khF2cHMXWtM9UHiW61gI5MFzs5RyGGPtoIl8P2Fmrl3ZQ1RTxJi1jpJCimYY/JmzBDyVPqNe0YzufRzdtFlfOkFtlgK7raOVCIBUbt3MRhAr6jYNNZb2quIrC0gpPuhYdNoJjOQ1ChZEKd2uEcx0sJLOHD0kWPgoeFdq4NyKpAZ5A221x0KtVlXOcEBrBOgSVsWLoIinbBzwCK6yIhOfyyGdIJLOHC0kVQTB6lMFGcjTEbPIqXugWWMGERUK4ml9DCxVWbbkLvAqHAwpV6feV6BYpuMs9cHDRqpewcRULH9Rm9S0tdBOVQFEWY1HrmR0S9ylypoA07c6JehuHcidFohFcoyK9hCXQOFJSnKdSr+/K7DJFS3ZWIppHnU2QY1jAhqvmugqL1DsTKvItXMW2JMUXTcAvL2vZ115i313icWGBpHpZOgmJauzANv9R6Cg7bWOfgqUzypmFXavzce0cElmZh6SQo1OTcdB0z91gvZbiMPuwkpxZYmoWA03onQVHzFNMwijwjX3AeBTOvrI3HY5xXnBuNRsash7bnYQQWjrk2V6azoFCTc8ojlFEJtW2F2CEgc5Yywq/o2c6CwvAqleyvYixeGk9XimepyNJLVttpUCivgrLz6VmY7ZEX5wgsJa26gsc7DQrHq2CZMtc1pDphLiySc6O0PoGlAmsvUWXnQbEJ+eJ+LQz5mu5dz8ua40XUM2RCC03dMmcpYeC+Hu08KCgo7tc5I1S8sgG3jmCEC7LgqNzDeEPXwSRJ2Jd8UgktdArl9t3nENKXcXWpnl6A4ghLVs8TYCwWIqdsxBUSh2FYbffNdwkCzrv0BhQPsHDkOVOmLCQOsOy3GTo6vVQPH+oVKAoW3F2MR4W521RczcJ7OiLmMMyYQsn1Zfr+XO9ASRVOLQqWMYwqL/XkwCLzlTLaK362t6BkvMvKdqTrkA/R+ggzc/rBhEWGYBxhMsv0GpTM+L/UcKwuQLI6pcLSVXo1pm11qpiAotRps96Cay3bO5DP2q65+LYcChbTLmnffel6fQJKRsNcWKgE3XUaDZE+VsLFnpQhoOQE2TZYXBOSe7Kf3lQjoBSouk2wUFkuZfjlh2UBRSPHNsFCHDmW6JcHVgQUgxDbAotpTciUad+D/fSmCgGFUHUbYDEdFhNQ/LAsoDDkGDosBCiSRI+hY6qIgEJJyHKdpYnQsSnyJdtZmAomigkoFnIM1bMIKBZKdCwqoFgKLkRYOIn2LF9TiuckIKA4mERIsDDWUWSO4qDj/CMCiqMQQ4GFsd9LQHHUcfYxAaWEEEOARW4dLqFAi0cFFAthFRVtEhbKm2B/JepVUsHqcQHFgxybgIVKAp6+loDiQcGY+81PNVIL5+uOUvJxyIsLiXgUf3YpoHiSJRcU1Rwe/MKzImkaJHYvGLmNp+oSj8IWrbGggOJHjmmSvRM21dms4isvYn2+X0Cx0Yi+rIDiR45OoGSaTo8Wo4fZRE+Ty0iJyS+c0isJKH4ULKD4kWNZUDz1YrYaAcWPaAUUP3IUUDzJMdRqBBRPmiEm8+Q12WW6gZE0XcJw8ShlJHvtWQHFjxyNHkVdJ3EL56psy+6kWffxfklMEzvzE1AsJaopLqD4kSMJymg0WsvcOOw8OVfdxfzCJ7FO/G85uOVJiYZqBBRPMibOhEzl13IFRi1W4o3EE0DSn4DiSYkCSvWCtAElZ+Rp3uODcRzvS5JkEgbeHqZNFiPVdd3fzcMhoFSv02wL4lE8ydsVFB/Ni0fxIUVzHQKKJxkLKJ4EGWg1AoonxQgongQZaDUCiifFCCieBBloNQKKJ8UIKJ4EGWg1AoonxQgongQZaDUCiifFCCieBBloNQKKJ8UIKJ4EGWg1AoonxQgongQZaDUCSoFi8DRh5qDULbhiTulPrajrbhdeT1faqXpc/k60vRlF0TpVr9oBgMW+i4fH0gNk1HN9+buAojYVxnF8MEmSspsVu2Y3E8BwA2bfwektKOg14jg+ojvH0TWL9/Q+k239o9GI9FCe2gummt6BovZFHdm++lo3TApGOQF3JIjrw+uUT29AUUnq8HCTAOLPwpzTLvnrQj019QIU21xY9Yi+O63YpF1q61t3GhTxIrWaZae9S2dBKQOJOkmIIVIMleLPOqNjrSbqrzEMg+PZ/jT6R4bF80139V77ToLiAomPnMD+7DWMmtL1pCiKMEMlG5ouwlIKlNzCXBXaxayJVqFIS0gm0RvTMdsqXqqNddqmdHWBJUR7SnVVChTqEhsPBrE+HA4P29Rjus8wW4+k8bGR6rWyKjDC8jC2sHB159bzyVPW9tRJUJgZ5Xu7aFbCwGYeXVxcPMNYrMW0Soe5WfsFFHcNsb8AzDtD2PW5d7k/T3I+TDaeW0Bxtx2WYVM346rmWXW5d7WfTypYjpom+8qrkHNNAcXdhljGzRgGsOpx72a/n2R4FtYQTEBxtyPSwBneZHM4HO5374I8yZEAZeTqhrGpDJf5eqk6OP0gypD2pHu+sqiX2tZAvpvKjoiuu+hHvhj1NeO6fbKjUoCUABEFJb2KCRSuPWEnoyjS3XxG2lPtoAyHQxaEhEcwvhjlTWwmkqQVSAFSAtSeOsqrmEDh2hN2cmFhIXH98HYVlBXD10OGXKRp+y9AeBXjh09AMeijjEcxfDnwVN6J0WiEJ/PkV6MEqDC9aRFSQKkAFGrYZeOqa7SjXjRl8iqm4ZeAUg0o2mGXeJNmeTQFWHDz6cWLF48V9TBoUNRGNCfJRlH0Nd2DGG1iVqq9Vg335qjEBjNVqavYCne0qgjJOWb7UqwCCbjYBqFTrj1h1Etnl1p7Molga2vre5FpnF+B/KRKkUDrJBBF0YcElNapTTpctwQElLolLu21UgICSivVJp2uWwICSt0Sl/ZaKQEBpZVqk07XLQEKFFZy57o7Le2JBKqQgCnROQmKbE+vQiVSZ4gSMG29EVBC1Jj0qREJCCiNiF0abZsEBJS2aUz624gEBJRGxC6Ntk0CAkrbNCb9bUQCAkojYpdG2yYBAaVtGpP+NiKBzoOCJx1zydcmVzRw03g2opWON9pGnXQKFMzyYXl77+TaanU1NGat78s9J7WhmOoEG2TeqpzeNIz/Pmd7W0FVL9Z6UDxfToon3FBBAk0Ji8t8sHT52GxqD0InrQWFkSbVRhlFZTt9lVpZ4RQ9TyUb9NBmYzcNtA6UGgDJ61OAISy8BkCKdFLrffatAYXKB+Xha2Wsog8329rKUOkErxxnX0tn24apfJ06aQUoNSRn5upPvIuSVANeRKcjMmcxV7mmckGDYnnfYuE8A6Na2T+ocwX4v/JhY7Y8qRy57IpaWNCHTvC1s3rxpJNKM38GCwqV6VFjY5PLSTHfFyfUm+Ysy9xqyx5C9BEWR0hSnbAupk11EsfxEWY4eccUqkxsGCQotvMRX1dbc26HynmnSr9iITkcW0iUTjDMTt6kRQx5jtpcz10VLMGBYuNJbABRq8GsFXkbYKpSTICQPMXpk61OOJ4f27W8bdj7Byw4UJgTd5zAHSv6WmW2RxzcHgfr7g6czFu2x8Z4w1Ph6i/WE8fxCuNmW6xnP1fhHGMLrUwoOkG5cJcHfF8QFRQoTIUU3qFhY9gFhojgrRVdA8H0LrVEXpoAiBndClEnXj9gwYDCUUhRpnPlQY4YLgyysa9CYDjrBaYs7DYdCKksZ66o0wnXGzPe11knAODtAxYEKJx5iUYhONHDBS+vv2TPrkvPf3Tway/+1gP3pRVzPEvXImHE7VgomhlPwvnguShrfMPuy5d//c7jL93+hi/AbScuqXnLIVOGezW89jJfCQUU0xVyhQrhjlVdlILPbL3uBnjxnfsuv/CRtz0IEZyFA6fXGUbg7Qvm2m9fzzHedQYS5tDZuYuok+//9Ovhygff8iWIor+CA6sPcLy9jzlkGVBwDFh44YutJAivMHPXYtUKyfb/hQ/cClc+eCtO/ddgC07O371mHOapqE/r715ph07gUYjm7pl/919i4EZ30y8ubq6Nx+OyOrlF1waV18uWB6fy+eiFNSRz8ffGr9198ys/tPfV2IG5/7kCc89cserLNVhgE6JkbeE9Z3XRNKt621q4tE5eFT89fs3umzzpBMW4svDeNfxosxeMfcq+cVDyaxSM4UD6/pMJ4Eu3Lnz7ud+961e2x9KHsoJBUK775hB2f+sZuP4r3yFlhi7/8id+El5+8/yk7J5Hvr22908f83HWgmw7tAJ5nVgMgSc6+f7PvuHS/378HZ/CW6x96mTXU8/df/NvPDRoApamQZkacnEiMFOTt8eW9sFcRC6SITTXf+VJeM19F4w2ibA8+/t3TeYu+Ltp5ZEnr7tw8fWhGXLV/cleEsvUybWo1cbSAYjiRyBJbjT101Une//k0Qt7/v47OE6u9dcoKPkvFyMCM70IubGM9/RNeRKT9NCz3PjZR40CfvFdPwqXP/GOSZnrvjmCm+55uFaFNN1YgU4Sok/Xghv/sPyD8Gp4DAB+hPseN/z1BfIDltUJAnbzJ7/4fHzlpb3cNnyUaxKUvDehwsDTEZiNpTMAk1V5qx8K+nW//ID2mfwQDMHiDN2sOhFw4Zw3sYtUnl/+AkTwC7av1wadNAaKpTeZjoo9sXQIEv1txJSiKE+B85RnP3NXH73K1MeIuAR3Wifnj38IouReSva6v1PevmlPPwEFJ9CuL1jiuZ3kDmoznHZRcWZPj+WQq6iPlMtHUNKJPZbd9R/PPLj7n582T3JKCCOQR3f2xFnr5Inlf4EEfrzMe5h0kp8/TnTyn5ce3r3x34+XaZP77NbW1r0Rt3BV5UxRlcJtIxvL1LiZ7Cq6+5s+9bA2jJwJF6d1bcJgdT9ZcUcKmEL0Mzp5bPk9MAcPlX11agiW/Xiptv4dBqtvKtsu9/nGQTG5+JkV143jRwESL1taTO4+O/zaEWSUHMbVe65g21zOSifnlz8PEXzYx/ta6ySBO+HtqxhAqPzXKCgmF6/xJhgO9rLoZPqCoat/5i9y89IoOQEHTp+sXCMNN2Cvk6UhQHR1Aarkz1onAL8Dg9XPlGyW9XjbQCk97MpKBcO/OLkv+iEo6ZqK+vs6DFYPs6Ta4kKmRd+ZTaHMtSwbcVjpJIIH4cDq3Tb1u5ZtGhRtCLIOpZjCvwVj4l6AYpozzgZWjr8LIPmyq/EVPWepk3+Dweqbfbavq6tRUAilTJ8qLBkWLhKAKdJSAEovJvRWOtlYej9AtHNUwYfBWukkgufgwOoP+GiXqqNRUEzRlZmJfAWgmCaPuEKP8fup32C1UXlRyvTxdyudPL78YYjh8z7aTeswgTKjk76AYuXmKwDFSikAvfAoBCiHp/IYnF96H0TR/T5BMQ29Cj5eQxisLvpsP8ihFzFxnFZKBRNHy/FwL+YoVjrZWD6IpyB9GqpJJwUBlgswWH2rz/bbCMrsEU8Pi41ZQeC+L93ZlVmlJGswOO3lIFsdinVtgwBlWif/9NuL8Mrc065tFT1npxO4Hwar7/fZfqig4Jlo3AVc9Js5+Qgetq9kG1p4L2YzKv4NH8rvuYyOweCU/oE6tFVDG8TW+iKd/Nf2fTNedi1Qq/MzOomj34TbTv1hDWKBRienVNKJgnCkt5V50/wkuwlvRwlbyX6443Tnb+yy1sn5438GUfJRH8ZqGnYV6mQuegu87dS/+mibqqNRULBzxNHf6e31HucpJm8yO2nsx7ArNRYrnTxxzyFItnSjAsr+pv5up5PocRicusOqgRKFGweFOkU3s/DoeBYlKyPT6i+Wm5mf9GifF76/9e7hjePnAJKfKmGHk0Nyul0ShTpJ4Ci8fRUTttfyCwGUfSojiO604nSKoJJehTqPUuDiexHtylqbGn6hl9Dtq5vWycbSXQDRl1wtljr2MKuT6BswOHX1KGpNv8ZB4XzBZjICPrG0Aok+fY1OdhQk4k2uSY7yKjM62Vj+HAD8qq3dOulkPH4n3P4HX7dtq0z5UEChvAq+I37F8F6/NZh4FVixOQ5MfbWwgZkvV8+GXAVeBY80mPIS5D3LowDRnVyD5Ohk5mxQBJ+EA6t/xG3DV7kgQFFeBWGhsqpsRlG0Ph6PT47+5ijA3CTdqjHBBIYcb/zs143jX2x/Zmt9T7bVmwyJmj+qZydZWCZXkv/tL21BlPwdJMmPmep11gnAaRisLvsyfpt6ggGFOQRL320CzMs//NpvXfrjn39T3rOk6XD2fPVJdjK8qU2QAsmODdnkWrumk7txEfC2rCGW1glEvweDU5+2MW6fZYMCRcFCZf+YeX9M8Jzs2XWjbYbItKIMJJgp8lhfTjJyDckClp0qx3uvv5LsnrvBg05eBICPw2DVy8lW7jvny4UICkZafF3zQMplZ81EvIhWVp6v3uDrBOBeiJJPw4HTuPrf6C84UFJpuHzFbCSJc5LnP3bH6KWfWPxzeAXO9mHV3UY+RWXr0Mnlj9357MtvXbwPxskZuP30P5bts6/ngwVFDcNMe8GcZZBc96rR//3cG9/3wue+XGuI0bnDAT3ICBs79Ta5ftel0X2/+DMwOBVkWqigQVGw+ByKaa+oc9JuTx/yPBS7FvYPWJ7Bg5IZiqXAYDiYnXNYPS+AVGCEGWA6r5PWgJLVs1LQoTiOD27H8BGg9J90dy+CMTlQVHTBaQU20/sqU51sr4UdUcLolE7+H7a+9Ge51wQpAAAAAElFTkSuQmCC;fontFamily=Times New Roman;" vertex="1" parent="r26zlcC6nCp4phhId66P-1">
          <mxGeometry x="174.9950847457627" y="100.00448275862067" width="21.776406533575322" height="21.56079854809438" as="geometry" />
        </mxCell>
        <mxCell id="r26zlcC6nCp4phhId66P-10" value="" style="shape=image;verticalLabelPosition=bottom;labelBackgroundColor=default;verticalAlign=top;aspect=fixed;imageAspect=0;image=data:image/png,iVBORw0KGgoAAAANSUhEUgAAAMgAAADICAYAAACtWK6eAAAAAXNSR0IArs4c6QAAFMxJREFUeF7tnX+MZFWVx7/nVVU7hjisiUAMbpjBXRhlQROzCsiCiRCDEWEgQcFMSwvCYL/qrsYhCoIMgqBhpKu7qmVAsHEmApLIj8FIDGMiLM7gGhMdll3AhZnJSgxgMksb4tiv6p3Nq+5mhp7uevfe9+u+9877t86995zvOZ96P++9BDlEAVFgWQVItBEFRIHlFRBApDpEgT4KCCBSHqKAACI1IAqYKSBnEDPdpFVJFBBASpJoCdNMAQHETDdpVRIFBJCSJFrCNFNAADHTTVqVRAEBJMFEr2i1VnfIP5aYV7FD7yPm9zLhKGK8B8C7AZygOPxzAPYx4S/EeJWJ/kxM/8vgvVV2Xt5fr+9W7EfMNBUQQDQFW9L8jtuOrHSqHyHCh4npRBBOBrA6jq41+tgNxjNM/Cwzft+tdn6HK69+TaO9mC6hgABiUBbv+H7zeJ9xOnycBgeng7HKoJvkmxD2wMdTcPC0Q3jq719pvJD8oMUaQQBRyef09IqBN2fOZvCnAJwJ4P0qzSy0eRng7eTjF7Pv+oefY2hov4U+WuWSALJcOiYnV9bQPZ8rdC4xzrMqazE5w4RHCPyo1608hJGRmZi6LVQ3AsiidA60J9Yy8HmALyxUpkODoQcJeGDWHX041LREBgIIgOCegru4hAmXAjiiRPlfKtTXiXEPVXCv3LMApQak0ho/m4jWE/DZkkOxZPgMbGPmzd362ONl1aeUgNTa4+sA5zqAjytr4vXiphcB/2bPHduq1y7/1qUCpNZqXgrCmMYLuvxnON4IngNj3Ks37om3W3t7KwUgA62Ji5n4awBOsjcVOfKMsIt8+u5sffS+HHlt5GqhAalOjp9JFec6MJ9hpI406q8A0ZPc9W/ujIxtL6pUhQRkRXvTMV2ufguEwaImzqq4GFsq1PnmfnfDXqv8isGZwgFSnWp+lRibYtBGutBUgAkbOsON72k2s9q8MIDUJidPhuPfDuAUqxUvvnM74TtXeSMjzxQh1EIAUm2N30BEG4uQkKLEwMwbO/WxG/MeT64BGWjdfiI7lc1gPjXviSik/0Q7yO+un61f9Wxe48stILWp5pfBuCuvwpfKb8Ll3nDjB3mMOZeA1NrjdwJ0eR4FL7HPd3puY33e4s8VIAOtTWuYqj+UG/G8ldlb/u50HAzl6SPI3ABSaTc/4wBb5udy57ZCxHHs84HBrtv4WR60yAUgtcmmCwetPAgqPqoqQK7njk6pWmdlZz0gA+3mtxm4NiuBZNzkFCDgllm38Y3kRojes9WAyM149ATb3wPf5bljV9jqp7WA1NrN+9Gb+ipHCRR4wHMbF9kYp5WAVNsT2wh8jo2CiU/JKMCgxzruqHUzO60DROBIpgDz0KuNkFgFiMCRhzJO1kfbILEGELnnSLbwcta7NfckVgAiT6tyVr6puGvH063MAZH3HAeq7e5PnoW9MzO46be/SaUEbR/EhvckmQJSa08MA9y2PVFp+BfAMbjmg72hbvqPZwSSBdF91L2RRmY1khkg899WPZZG8dk+xsFwLPgqkBzImg+ck9W3W5kA0ts+wMdO+fAQWAoOgeSQv7R9xJ1TZ+sbnk/7zy4TQGrt5g75ZL0/HALJISjs9NxG6jNHUwek1m5uBmDttzdp/UP1O3Ms9kEutxYUSf/JVqqAyDTZuUTrwCFnkkV/FylP300NkN4CC+TsSusf2tZxTOAQSN6eTWL/pLQWgkgNkNrUxK/LvvpIFDgEkoMgIdrhDY9+PI0/wVQAkXWrzC6rlisAuScB0lp3K3FA5lc8DB7plvZQPXOc9chPsWdmBn8cHArVSiAB4DunJL2CY/KAlPyRrg4cT77ypx4Yx7xrpUAS+hfRM0j80W+igJR9IWkTOBbqQiBRIyTpBbMTA6S3BQGqe9TCLJ5VFDgEEr16qKCzKqmtFxIDpNZq/qis+3OowLH3rzO47JdPYOGyarmSCM4k29de0Lvs6neU+p6EscWrN76oh5WadSKA9HZ2cugJNReKZRUnHAefSQSS/nXCPp+VxE5XiQBSm5r4VRm3PUsCDoFE8Q+U6ElvePQTitbKZrEDMr9h5o+VPSiIYZJwCCRqRUJMX4h7Y9HYAalNNf8ALtdusmnAIZAoQbLLcxsfUrJUNIoVkPl9yO9WHLsQZmnCIZAolAzjsjj3cY8XkHbzPwGcoBBGIUyygEMgCS2d5zy38S+hVooGsQFSa4+vAyjYnqAUR5ZwCCRhJcaDnju2NcxK5fcYAZl4AeDjVAbNu80T512AM45+X98wVN9zRNVC9T3Jluf/q/fepRwHvei5o8fHEWssgFRa42c7RD+PwyHb+7AJDt0zSZkg8Zk/3a2PPR61nmIBpNpuPkqAdQsPRxVncXsb4RBIls4yA9s6buPcqDUQGZD5FUpSX20iauC67W2GQyBZOpuOgzVR90OMDMhAq3krE76uW3B5ss8DHALJoRVFjO/M1hvXRKm1yIDU2s3XABwRxQmb26rC8c9bpq0JQ27c30rF657bODJKYiIBMtCeWMvgh6I4YHPbPMIhZ5K3VxSBzp91Rx82rbNIgNTaEz8B+ELTwW1ul2c4BJKDK4se9NzRz5nWmjkgk5Mra47/hunANrcrAhwCyYEK83zncIyMzJjUnDEgtanxS8Bkz4W3SfRLtCkSHALJvAI+D3kjY/ealIgxINWp5sPEOM9kUFvbFBEOgQRgwiOd4cZak7ozA2R6ekXtzTf+ZjKgrW2KDIdAAniHHf5ODA3t160/I0AGJsfPZ4d+qjuYrfZlgKPskJg+zTICpEh7CpYJjpJDcqfnNtbr/kkbAtJ8CcCxuoPZZl9GOEoMyUue2/gn3RrUBqQo316VGY6yQmLybZY2IEXY40PgOPA/WqrPUgz2FtEHJOcLwgkch15kBJAEMyTDJoHlfj6JwQJz+oBMNXeDsUr3Ws4GexU4gpUOg1XWy3aUAhLCHm+4sVont3qA3HHbkbVu7VWdAWyxFTjCM1EGSLyKdxSuvDr4Al3p0AIkr1NrBQ6lWugZFR0S3am4WoBU2+PXEOgWdbmztxQ49HNQZEgYfG3HHbtVVRUtQGqt5n0gXKTaedZ2Aod5BlQhCVZvsWmyWGjEjPu9euPiULt5Az1A2s2XAWjd5Kg6EredwBFd0YJCsttzG8ovuXUB4eiyJ9+DwBGfxkWExHMbynWvbLii1VrdpW5wBrH6EDjiT0/RIKlw5dj99fpuFaWUAam2Jz5J4O0qnWZlExccQUGEvTTrF2PwLiW4Ni/SUSRIGHRmxx39pUp+lAGptSe/BPj3qHSahU1ccAS+X/+vH8P1Hz3ZOIxgic/grXPRjsJAorECvDIg1amJG4h5o41JjxMOAaR/hosACRNt7AyP3qhSy8qA1NrNzQCuUOk0TZu44RBAwrNXAEiU54YoA2LjHHQVOMLSvdRzfLnEOqBaVC1sfE+iM0ddGZBau/nvAE4LK7i0fo8DjsBXAaR/xqICspzGadXJMuM87bmNf1PxQQcQa3aPigsOASS8ROIAxEJIlHeh0gHEipeEccIhgKQHiG2QqL4szBUgccMhgKQLiE2QFA6QJOAQQNIHxBZICgXI4JoP4vSjjw7PZh+L4M148Hhy8SE36eY36VFehu6dmcFNv/1NpJxGaVwoQKIIsdB2uTOQAGIOSPCZe14/qRFAFuVdADH7m+n3FEsAOUjTWrtpxVMsszQDAoiZcgKIom4CiKJQQG8/8ijX5+ojJW8pgChqLIAoCiWAqAuVoaXcg0S4B4n61Gzr8/+NYE5IEQ45gyhmsdZuWvOpiaLLbzPTuQcx6b+obQoKSCKfmlj1saJuQQoguorN2RcUkPg/VrTxc3edlAsgOmodsC0iIEl97m7lhCnVtAsgqkq93a6IgABIYsKUvVNuVVIvgKiodKhNEQFJZsptq3kpCHebyZx9KwHELAdFBARwLvXckR+qKKL8uXselv3pF7AOIMGHjevWfEBFvyVt+j3mDT6YvP6jHzPu+6lXXkn1JWQRAUlk2Z+8LBy3XOXpABJ1Fl2/N+kBfIEvpkfam9gUEZBEFo4LEprnt+kCiBmSRQRE9S16oJjyJdY8ILlZvHpxOQggAsi8AgkuXp2z7Q8OLgkBRADpKZDk9gd53EBnoSwEEAFkjo8EN9DJ6xZsgTACiAASKJDoFmwo4CaeaU+5ladYZqDG1SrRTTx7N+o53QZaziBmJVaop1iJbwMdANJq/giEQTO5s2slgJhpXyhAGFu8euOLOkpoPeadP4N8GYy7dAaxwVYAMctCoQAhXO4NN36go4Q2IO/4fvN438fzOoPYYCuAmGWhSIA4Dtb8/SuNF3SU0AZk/oXh/wB4v85AWdsKIGYZKBAgL3tuQ7tmTQHJ3dwQAaTkgDDf5dXHtDeAMgJkoD2xlsEPmUmeTSsBxEz3opxByOcLZkfGtGvWCBBMT6+ovfnG38wkz6aVAGKme1EA8Q47/J0YGtqvq4IZIADyNkddB5DlFrpWFbffNtBRt5gOXmymuaRQEQDRmYO+OMfGgNQmxy+BQ9OqRZO1nQ4gWftq0/hFAATEQ97w2L0muhoDgsnJlTXHf8Nk0CzaCCBmqhcBEM93DsfIyIyJAuaA9CZQTfwE4AtNBk67jQBipnj+AaEHPXf0c2bRa06YWjxInp5mCSBmJZJ3QAh0/qw7+rBZ9BEBmX9p+BqAI0wdSKudAGKmdM4Bed1zG0eaRT7XKtIlVtDBQKt5KxO+HsWJNNoKIGYq5xkQYnxntt64xizymADJy7dZOoDkdVWT4BHyHweHjOtBd26M7TtMmXx7Fdtj3oM7qrabjxLwWePMpNBQAAkXuUiAMLCt4zbODY+6v0XkS6yg+zxMxRVAwkulSIDoTq1dTp1YAJm7WZ94AeDjwtOQjYUAEq57cQChFz139PjwiMMtYgRkfB1AW8KHzMZCAAnXvTiA8KDnjm0NjzjcIjZA5s4i9u5CJYCEF0NBAFHePSpckRge8x48SM3iFeAFkPByKAQgjMu8euOe8GjVLGI9g8yfRf4A4CS14dOzEkDCtc49IIRd3nDjQ+GRqlvEDshAa+JiJv6xugvpWAog4TrnHRBi+sJsffS+8EjVLWIHpHcWmZr4FZjPUHcjeUsBJFzjXANC9KQ3PPqJ8Cj1LBIBpDo5fiY59ISeK8laCyDh+uYZEPb5rM7I2PbwKPUsEgGkdxaxbIE5ASS8MHILiMGCcOFqzFkkBsiK9qZjuqjuUXUkaTsBJFzhvAJSQWfVfnfD3vAI9S0SAyRwpTrV/CoxNum7FX8LASRc0zwCwoQNneHG98KjM7NIFJDepVa7uQPAKWbuxddKAAnXMoeA7PTcxqnhkZlbJA/I5OTJcPyd5i7G01IACdcxd4D4zineyMgz4ZGZWyQOSO9SqzV+AxFtNHczeksdQKKPVpwebJ0wxcwbO/WxG5NWOhVAepdaUxO/BnOip8N+YgkgZqVkJSBEO7zh0Y+bRaTXKjVABlq3n8jk7NJzLz5rAcRMSxsBIfZPmq1f9axZRHqtUgNk7izSzGxvkX6ApLlSoV56srfut8pkJlNuDfb4iKJiqoDMPdUavxOgy6M4bdJ2OUBM+pI2cwpkAMidnttYn6b+qQMyB0n6j34FkPjLKmVAEn+ku5RCmQAy0Nq0hqkavB95d/xpW7pHASR+pVMEZJ/j4BTd3aHiiDgTQALHK+3mZxzgsTiCUOlDAFFRSc8mLUB84Jyu2/iZnnfxWGcGSO9Sa7LpwkErnlD69yKAxK9yOoCQ67mjU/F7r9ZjpoAELg60m99m4Fo1d82tBBBz7ZZrmTQgBNwy6za+Eb/n6j1mDsjcTXs2T7bUZRLL9BXguzxXf0/BuP20ApD5J1v3A/h83AFKf7lU4AHPbVxkg+fWABKIUW1PbCPwOTYIIz5kowCDHuu4o9YsY2sVIAJJNkVpy6i2wRHoYh0gAokt5ZquHzbCYS0gck+SbnFaMJo19xyLtbDyDLLgpDzdsqB0E3fBjqdVy4VpNSCB02m9J0m8DmSAQxSw4T1HWFqsB2TucmtiGOB2WDDye44U8FH3RhrW5zQXgARpn/92K9heIbUPHHNUbnlydZ8PDGb1bZWuULkBJAhsfj/EaRtWSdEVWux7Cuwk7nxptr7h+bzokStADty8NzcDuCIvIoufgQJ234zn9iZ9OceznL4rBa+pQMrTZDW962ueyzPIQkS9hSCcyuYsV0uJMxmF64toB/nd9WktsJCEfrkGZEEQG9bdSiI5ee4zrXWrktaoEID0HgXPreB4u9zAJ10yof3vhO9clfSKh6FexGRQGEDeOptYtGB2TDnKTTdJLySdhRCFAyQQsbf1Ale/BcJgFqKWbkzGlgp1vpnUFgRZ6llIQN46mwQ7XVWc62zbDi7LhMc6NtGT3PVvTmJnp1j9jNBZoQE58LRr4mJ2+Gtg+3bfjZC7LJvuIqbvxr1hZpYBLTd2KQBZCH5+H/cxACfYmIwc+PQcGONx7kNue8ylAuQtUNrj6wDnOoCPsz1BdvhHLwL+zZ47ttUOf9LzopSALMhbaY2fTUTrCbBmDnR6qQ8fiYFtzLy5Wx97PNy6mBalBmQhpcFHkNzFJUy4FMARxUy1clSvE+MequDeLJb6VPYyJUMBZJHQA+2JtdxbfogvTCkHlgxDDxLwwKw7+rAlDlnhhgCyXBomJ1fWKt3zGXQuMc6zIlsxO8GER6jLj3qoPISRkZmYuy9EdwKIShqnp1cM/PX/Ps2ET4HoTADHqjSz0OYlANsJ9IvZw1Y+jqGh/Rb6aJVLAohBOnoTtxinw8dpcHA6GKsMukm+CWEPfDwFB087hKfknkJfcgFEX7NDW9xx25GVTvUjRPgwMZ0IwskAVsfRtUYfu8F4homfZcbvu9XO73Dl1a9ptBfTJRQQQBIsixWt1uoO+ccS6Bgm/kdifi8TjiLGe+bn1qu+sHwOwD4m/IUYrzLRn8nnPzHRnio7L++v13cnGEapuxZASp1+CT5MAQEkTCH5vdQKCCClTr8EH6aAABKmkPxeagUEkFKnX4IPU0AACVNIfi+1AgJIqdMvwYcpIICEKSS/l1oBAaTU6ZfgwxQQQMIUkt9LrcD/A2HZzn0wxXlVAAAAAElFTkSuQmCC;fontFamily=Times New Roman;" vertex="1" parent="r26zlcC6nCp4phhId66P-1">
          <mxGeometry x="8.474576271186441" y="148.96551724137927" width="57.495462794918346" height="57.495462794918346" as="geometry" />
        </mxCell>
        <mxCell id="r26zlcC6nCp4phhId66P-11" value="L/U" style="text;html=1;align=center;verticalAlign=middle;resizable=0;points=[];autosize=1;strokeColor=none;fillColor=none;fontFamily=Times New Roman;" vertex="1" parent="r26zlcC6nCp4phhId66P-1">
          <mxGeometry x="17.22372881355933" y="206.46241379310345" width="40" height="30" as="geometry" />
        </mxCell>
        <mxCell id="r26zlcC6nCp4phhId66P-12" value="Charing Area" style="text;html=1;align=center;verticalAlign=middle;resizable=0;points=[];autosize=1;strokeColor=none;fillColor=none;fontFamily=Times New Roman;" vertex="1" parent="r26zlcC6nCp4phhId66P-1">
          <mxGeometry x="-7.78" y="-10" width="90" height="30" as="geometry" />
        </mxCell>
        <mxCell id="r26zlcC6nCp4phhId66P-13" value="Machine1" style="text;html=1;align=center;verticalAlign=middle;resizable=0;points=[];autosize=1;strokeColor=none;fillColor=none;fontFamily=Times New Roman;" vertex="1" parent="r26zlcC6nCp4phhId66P-1">
          <mxGeometry x="104.99898305084747" y="-10" width="70" height="30" as="geometry" />
        </mxCell>
        <mxCell id="r26zlcC6nCp4phhId66P-14" value="Machine2" style="text;html=1;align=center;verticalAlign=middle;resizable=0;points=[];autosize=1;strokeColor=none;fillColor=none;fontFamily=Times New Roman;" vertex="1" parent="r26zlcC6nCp4phhId66P-1">
          <mxGeometry x="205.95440677966104" y="-10" width="70" height="30" as="geometry" />
        </mxCell>
        <mxCell id="r26zlcC6nCp4phhId66P-15" value="Machine4" style="text;html=1;align=center;verticalAlign=middle;resizable=0;points=[];autosize=1;strokeColor=none;fillColor=none;fontFamily=Times New Roman;" vertex="1" parent="r26zlcC6nCp4phhId66P-1">
          <mxGeometry x="205.00338983050852" y="206.46241379310342" width="70" height="30" as="geometry" />
        </mxCell>
        <mxCell id="r26zlcC6nCp4phhId66P-16" value="Machine3" style="text;html=1;align=center;verticalAlign=middle;resizable=0;points=[];autosize=1;strokeColor=none;fillColor=none;fontFamily=Times New Roman;" vertex="1" parent="r26zlcC6nCp4phhId66P-1">
          <mxGeometry x="104.9984745762712" y="206.46241379310342" width="70" height="30" as="geometry" />
        </mxCell>
        <mxCell id="r26zlcC6nCp4phhId66P-18" style="edgeStyle=orthogonalEdgeStyle;rounded=0;orthogonalLoop=1;jettySize=auto;html=1;endArrow=none;startFill=0;fontFamily=Times New Roman;entryX=0.5;entryY=1;entryDx=0;entryDy=0;fillColor=#f8cecc;strokeColor=#FF6666;" edge="1" parent="r26zlcC6nCp4phhId66P-1" source="r26zlcC6nCp4phhId66P-6" target="r26zlcC6nCp4phhId66P-5">
          <mxGeometry relative="1" as="geometry">
            <mxPoint x="245.8983050847458" y="82.75862068965517" as="sourcePoint" />
            <mxPoint x="245.8983050847458" y="148.96551724137927" as="targetPoint" />
            <Array as="points">
              <mxPoint x="241" y="120" />
              <mxPoint x="139" y="120" />
            </Array>
          </mxGeometry>
        </mxCell>
        <mxCell id="r26zlcC6nCp4phhId66P-21" value="" style="group;fontFamily=Times New Roman;" vertex="1" connectable="0" parent="1">
          <mxGeometry x="480" y="280" width="280" height="240" as="geometry" />
        </mxCell>
        <mxCell id="r26zlcC6nCp4phhId66P-22" value="" style="shape=image;verticalLabelPosition=bottom;labelBackgroundColor=default;verticalAlign=top;aspect=fixed;imageAspect=0;image=data:image/png,iVBORw0KGgoAAAANSUhEUgAAAMoAAADICAYAAACprX6jAAAAAXNSR0IArs4c6QAAGX9JREFUeF7tnX+MH8dVwN/u1XFjpXVEQnV3AsUWpRWqSlMaf5ukFNtUiEioLZGo+kO0toUQpRWFSoDu3NCzofjMH0ioQEEC4XOliCiNREL/aAj9cUZNE18EGEoRVQO5isbfL5GjOMQ0SpT7Lve+nj3vd787897Mzu7O7r6vFEXJzc7Mvvc++2bezLyJQH4igQolMD8/fyiKopUoijbH4/HJ0Wi0WWFzlVUdVVazVNxrCaSAAMChjCA2kyQ5NhqN1tsmHAGlbRoLvL/z8/P7oig6kwNkqtdRFK21zbsIKIEbXlu6h4DEcbySJMlRZp/Ru+BQbI1ZvtFiAkqj4u9G44uLi2csAMm/9LoajgU9dxFQumGrjbzF/Pw8TtJP+GhcwRKsdxFQfGi5Z3XMz88fxUgWAOzz/OrBehcBxbOmu1xdhYBMiQ29y3YwYD2kULKAEoBlowECwC1pV+I4nnypx+PxWQDYbNpgFCBHTJEsnRiTJDkxGo1OqnkMhoq5Xigo7yKgNAQKrjPEcXwkSRKO8aDRVLb2gIasE4PrRB1DwBcvXkTPsPNTaysYOubCAggaAJxt+mMhoNQMCmedoeYuwXA41NrBwsLCUzaGzVkjUUEA9KJcYBr3LgJKjVapvqhfq7FJVlM+QOEAUtK7bA6Hw/2sF6qgkIBSgVCLqvQZSvXd5ZKg4NceFw6dhoZc75IkyWHXNnzIS0DxIUWiDtdxfg1dmzThCoov42UMR9eHw+HhuuRR1I6AUrH0Q4ekDCgmwFzEqgk/NzrkSt9DQHHRKPMZG0jUGP8choNV9QejKMKIWHb3LbNlu2LYtu4J09YU36BgH/LeJQ0v272R/9ICin+ZTmrkQkJt3eCGVNUinXa/lNrRy40ysaRSBShpw+hd4jg+mA8xszpWQSEBpQKhMiGxOptBhWkp4KjnXcRQJSgu/anyGQHFs3SrgCTtImHsxgmvgFJO0QJKOflNPV0lJGr8btytmyTJft0KtoBSTtECSjn57TxdNSQcr9I1UHBi3/TWFYl6eQLEYuJuNSfRdY8Ach2TOBQ9W+JglVZSVc1RMpGvfWqtpvFDXeJRSgJTlydJu8lsz+qt0Bh1D5iiZVWAotZScOPk5CfhYStVhlmYabRePEkqgSq2wriuzPsExbQ6bxpS1mUZ4lEcJd0EJBbDPKu3cgXFdiOkrlMM+PFjg3u9GhuCCShWJnW1cFOQYNsLCwuJQ5eNj7iCsjPRdUw/pMn9VdjXpodgAoql1TUJSVXb9MuCkplPsI/wMrxIXjON7vkSUCxAaRIS5U2sDlFxX80XKKq9Sb4u3Zl3Gy8S0oReQGFaUwCQ4IEv7QbJ9Mgs83WmipnG/iUSSswAw5Rhtm+lzrq4yEL3jIDCkCZTwV6jW9luLSwsGCHBHcdVn/7jHrAqECca+1nb9EZNz0ny7yGgEKC0ABJca8DE17Ukj3PIpsL4FE0Vafx8fFGHBRSDGtsACc4F6j79l8kzzMkgwwalTuDZnVIFBRSNxFoCSeVDLpNBZVIucRNz66oL0otkOyugFKiuLZA0vQiXis4lkpWJaDWaNILrWQSUnKSYkICvVem8ohgTd3ykssAB13CKytkAU5Qgr0zbVT8roFw9p22TtTGvkzSLY+lshm2GJCsU4vhykJBToPUaFEaaHEp+U38v42W6AkkOmKms923zIjJH4e/XsgIlM+62ypfbRUjywKhk405J8pyU4Pmh3nkU317EoA9WJKfrkHi218aq6xUoVW0qNGjPuD1cIGnM7q0b7g0oHiDBsxBOebGKDh4JJNa22ugDvQDFFpJM1saZW59w6IbAZPYuseDJwiKQNGrzTo13HhQ1J8Ht6eTPZSOexd6nyTCMuoNddbKVIVRSwC0u0HlQmF/vUvulLO5Y5wzfBJIAgeo0KJxTdC5eRKdHTnuEDQgkAUKCXeo0KNT5cl/3e+TWDFzvXhdIAoWk06BQX3efniSvX6rtAnsQSAKGpNOgELl2ye3puf1fqRrRoHF1mdzXZZHrVyAJHJLOgkKFg6khF2cHMXWtM9UHiW61gI5MFzs5RyGGPtoIl8P2Fmrl3ZQ1RTxJi1jpJCimYY/JmzBDyVPqNe0YzufRzdtFlfOkFtlgK7raOVCIBUbt3MRhAr6jYNNZb2quIrC0gpPuhYdNoJjOQ1ChZEKd2uEcx0sJLOHD0kWPgoeFdq4NyKpAZ5A221x0KtVlXOcEBrBOgSVsWLoIinbBzwCK6yIhOfyyGdIJLOHC0kVQTB6lMFGcjTEbPIqXugWWMGERUK4ml9DCxVWbbkLvAqHAwpV6feV6BYpuMs9cHDRqpewcRULH9Rm9S0tdBOVQFEWY1HrmR0S9ylypoA07c6JehuHcidFohFcoyK9hCXQOFJSnKdSr+/K7DJFS3ZWIppHnU2QY1jAhqvmugqL1DsTKvItXMW2JMUXTcAvL2vZ115i313icWGBpHpZOgmJauzANv9R6Cg7bWOfgqUzypmFXavzce0cElmZh6SQo1OTcdB0z91gvZbiMPuwkpxZYmoWA03onQVHzFNMwijwjX3AeBTOvrI3HY5xXnBuNRsash7bnYQQWjrk2V6azoFCTc8ojlFEJtW2F2CEgc5Yywq/o2c6CwvAqleyvYixeGk9XimepyNJLVttpUCivgrLz6VmY7ZEX5wgsJa26gsc7DQrHq2CZMtc1pDphLiySc6O0PoGlAmsvUWXnQbEJ+eJ+LQz5mu5dz8ua40XUM2RCC03dMmcpYeC+Hu08KCgo7tc5I1S8sgG3jmCEC7LgqNzDeEPXwSRJ2Jd8UgktdArl9t3nENKXcXWpnl6A4ghLVs8TYCwWIqdsxBUSh2FYbffNdwkCzrv0BhQPsHDkOVOmLCQOsOy3GTo6vVQPH+oVKAoW3F2MR4W521RczcJ7OiLmMMyYQsn1Zfr+XO9ASRVOLQqWMYwqL/XkwCLzlTLaK362t6BkvMvKdqTrkA/R+ggzc/rBhEWGYBxhMsv0GpTM+L/UcKwuQLI6pcLSVXo1pm11qpiAotRps96Cay3bO5DP2q65+LYcChbTLmnffel6fQJKRsNcWKgE3XUaDZE+VsLFnpQhoOQE2TZYXBOSe7Kf3lQjoBSouk2wUFkuZfjlh2UBRSPHNsFCHDmW6JcHVgQUgxDbAotpTciUad+D/fSmCgGFUHUbYDEdFhNQ/LAsoDDkGDosBCiSRI+hY6qIgEJJyHKdpYnQsSnyJdtZmAomigkoFnIM1bMIKBZKdCwqoFgKLkRYOIn2LF9TiuckIKA4mERIsDDWUWSO4qDj/CMCiqMQQ4GFsd9LQHHUcfYxAaWEEEOARW4dLqFAi0cFFAthFRVtEhbKm2B/JepVUsHqcQHFgxybgIVKAp6+loDiQcGY+81PNVIL5+uOUvJxyIsLiXgUf3YpoHiSJRcU1Rwe/MKzImkaJHYvGLmNp+oSj8IWrbGggOJHjmmSvRM21dms4isvYn2+X0Cx0Yi+rIDiR45OoGSaTo8Wo4fZRE+Ty0iJyS+c0isJKH4ULKD4kWNZUDz1YrYaAcWPaAUUP3IUUDzJMdRqBBRPmiEm8+Q12WW6gZE0XcJw8ShlJHvtWQHFjxyNHkVdJ3EL56psy+6kWffxfklMEzvzE1AsJaopLqD4kSMJymg0WsvcOOw8OVfdxfzCJ7FO/G85uOVJiYZqBBRPMibOhEzl13IFRi1W4o3EE0DSn4DiSYkCSvWCtAElZ+Rp3uODcRzvS5JkEgbeHqZNFiPVdd3fzcMhoFSv02wL4lE8ydsVFB/Ni0fxIUVzHQKKJxkLKJ4EGWg1AoonxQgongQZaDUCiifFCCieBBloNQKKJ8UIKJ4EGWg1AoonxQgongQZaDUCiifFCCieBBloNQKKJ8UIKJ4EGWg1AoonxQgongQZaDUCSoFi8DRh5qDULbhiTulPrajrbhdeT1faqXpc/k60vRlF0TpVr9oBgMW+i4fH0gNk1HN9+buAojYVxnF8MEmSspsVu2Y3E8BwA2bfwektKOg14jg+ojvH0TWL9/Q+k239o9GI9FCe2gummt6BovZFHdm++lo3TApGOQF3JIjrw+uUT29AUUnq8HCTAOLPwpzTLvnrQj019QIU21xY9Yi+O63YpF1q61t3GhTxIrWaZae9S2dBKQOJOkmIIVIMleLPOqNjrSbqrzEMg+PZ/jT6R4bF80139V77ToLiAomPnMD+7DWMmtL1pCiKMEMlG5ouwlIKlNzCXBXaxayJVqFIS0gm0RvTMdsqXqqNddqmdHWBJUR7SnVVChTqEhsPBrE+HA4P29Rjus8wW4+k8bGR6rWyKjDC8jC2sHB159bzyVPW9tRJUJgZ5Xu7aFbCwGYeXVxcPMNYrMW0Soe5WfsFFHcNsb8AzDtD2PW5d7k/T3I+TDaeW0Bxtx2WYVM346rmWXW5d7WfTypYjpom+8qrkHNNAcXdhljGzRgGsOpx72a/n2R4FtYQTEBxtyPSwBneZHM4HO5374I8yZEAZeTqhrGpDJf5eqk6OP0gypD2pHu+sqiX2tZAvpvKjoiuu+hHvhj1NeO6fbKjUoCUABEFJb2KCRSuPWEnoyjS3XxG2lPtoAyHQxaEhEcwvhjlTWwmkqQVSAFSAtSeOsqrmEDh2hN2cmFhIXH98HYVlBXD10OGXKRp+y9AeBXjh09AMeijjEcxfDnwVN6J0WiEJ/PkV6MEqDC9aRFSQKkAFGrYZeOqa7SjXjRl8iqm4ZeAUg0o2mGXeJNmeTQFWHDz6cWLF48V9TBoUNRGNCfJRlH0Nd2DGG1iVqq9Vg335qjEBjNVqavYCne0qgjJOWb7UqwCCbjYBqFTrj1h1Etnl1p7Molga2vre5FpnF+B/KRKkUDrJBBF0YcElNapTTpctwQElLolLu21UgICSivVJp2uWwICSt0Sl/ZaKQEBpZVqk07XLQEKFFZy57o7Le2JBKqQgCnROQmKbE+vQiVSZ4gSMG29EVBC1Jj0qREJCCiNiF0abZsEBJS2aUz624gEBJRGxC6Ntk0CAkrbNCb9bUQCAkojYpdG2yYBAaVtGpP+NiKBzoOCJx1zydcmVzRw03g2opWON9pGnXQKFMzyYXl77+TaanU1NGat78s9J7WhmOoEG2TeqpzeNIz/Pmd7W0FVL9Z6UDxfToon3FBBAk0Ji8t8sHT52GxqD0InrQWFkSbVRhlFZTt9lVpZ4RQ9TyUb9NBmYzcNtA6UGgDJ61OAISy8BkCKdFLrffatAYXKB+Xha2Wsog8329rKUOkErxxnX0tn24apfJ06aQUoNSRn5upPvIuSVANeRKcjMmcxV7mmckGDYnnfYuE8A6Na2T+ocwX4v/JhY7Y8qRy57IpaWNCHTvC1s3rxpJNKM38GCwqV6VFjY5PLSTHfFyfUm+Ysy9xqyx5C9BEWR0hSnbAupk11EsfxEWY4eccUqkxsGCQotvMRX1dbc26HynmnSr9iITkcW0iUTjDMTt6kRQx5jtpcz10VLMGBYuNJbABRq8GsFXkbYKpSTICQPMXpk61OOJ4f27W8bdj7Byw4UJgTd5zAHSv6WmW2RxzcHgfr7g6czFu2x8Z4w1Ph6i/WE8fxCuNmW6xnP1fhHGMLrUwoOkG5cJcHfF8QFRQoTIUU3qFhY9gFhojgrRVdA8H0LrVEXpoAiBndClEnXj9gwYDCUUhRpnPlQY4YLgyysa9CYDjrBaYs7DYdCKksZ66o0wnXGzPe11knAODtAxYEKJx5iUYhONHDBS+vv2TPrkvPf3Tway/+1gP3pRVzPEvXImHE7VgomhlPwvnguShrfMPuy5d//c7jL93+hi/AbScuqXnLIVOGezW89jJfCQUU0xVyhQrhjlVdlILPbL3uBnjxnfsuv/CRtz0IEZyFA6fXGUbg7Qvm2m9fzzHedQYS5tDZuYuok+//9Ovhygff8iWIor+CA6sPcLy9jzlkGVBwDFh44YutJAivMHPXYtUKyfb/hQ/cClc+eCtO/ddgC07O371mHOapqE/r715ph07gUYjm7pl/919i4EZ30y8ubq6Nx+OyOrlF1waV18uWB6fy+eiFNSRz8ffGr9198ys/tPfV2IG5/7kCc89cserLNVhgE6JkbeE9Z3XRNKt621q4tE5eFT89fs3umzzpBMW4svDeNfxosxeMfcq+cVDyaxSM4UD6/pMJ4Eu3Lnz7ud+961e2x9KHsoJBUK775hB2f+sZuP4r3yFlhi7/8id+El5+8/yk7J5Hvr22908f83HWgmw7tAJ5nVgMgSc6+f7PvuHS/378HZ/CW6x96mTXU8/df/NvPDRoApamQZkacnEiMFOTt8eW9sFcRC6SITTXf+VJeM19F4w2ibA8+/t3TeYu+Ltp5ZEnr7tw8fWhGXLV/cleEsvUybWo1cbSAYjiRyBJbjT101Une//k0Qt7/v47OE6u9dcoKPkvFyMCM70IubGM9/RNeRKT9NCz3PjZR40CfvFdPwqXP/GOSZnrvjmCm+55uFaFNN1YgU4Sok/Xghv/sPyD8Gp4DAB+hPseN/z1BfIDltUJAnbzJ7/4fHzlpb3cNnyUaxKUvDehwsDTEZiNpTMAk1V5qx8K+nW//ID2mfwQDMHiDN2sOhFw4Zw3sYtUnl/+AkTwC7av1wadNAaKpTeZjoo9sXQIEv1txJSiKE+B85RnP3NXH73K1MeIuAR3Wifnj38IouReSva6v1PevmlPPwEFJ9CuL1jiuZ3kDmoznHZRcWZPj+WQq6iPlMtHUNKJPZbd9R/PPLj7n582T3JKCCOQR3f2xFnr5Inlf4EEfrzMe5h0kp8/TnTyn5ce3r3x34+XaZP77NbW1r0Rt3BV5UxRlcJtIxvL1LiZ7Cq6+5s+9bA2jJwJF6d1bcJgdT9ZcUcKmEL0Mzp5bPk9MAcPlX11agiW/Xiptv4dBqtvKtsu9/nGQTG5+JkV143jRwESL1taTO4+O/zaEWSUHMbVe65g21zOSifnlz8PEXzYx/ta6ySBO+HtqxhAqPzXKCgmF6/xJhgO9rLoZPqCoat/5i9y89IoOQEHTp+sXCMNN2Cvk6UhQHR1Aarkz1onAL8Dg9XPlGyW9XjbQCk97MpKBcO/OLkv+iEo6ZqK+vs6DFYPs6Ta4kKmRd+ZTaHMtSwbcVjpJIIH4cDq3Tb1u5ZtGhRtCLIOpZjCvwVj4l6AYpozzgZWjr8LIPmyq/EVPWepk3+Dweqbfbavq6tRUAilTJ8qLBkWLhKAKdJSAEovJvRWOtlYej9AtHNUwYfBWukkgufgwOoP+GiXqqNRUEzRlZmJfAWgmCaPuEKP8fup32C1UXlRyvTxdyudPL78YYjh8z7aTeswgTKjk76AYuXmKwDFSikAvfAoBCiHp/IYnF96H0TR/T5BMQ29Cj5eQxisLvpsP8ihFzFxnFZKBRNHy/FwL+YoVjrZWD6IpyB9GqpJJwUBlgswWH2rz/bbCMrsEU8Pi41ZQeC+L93ZlVmlJGswOO3lIFsdinVtgwBlWif/9NuL8Mrc065tFT1npxO4Hwar7/fZfqig4Jlo3AVc9Js5+Qgetq9kG1p4L2YzKv4NH8rvuYyOweCU/oE6tFVDG8TW+iKd/Nf2fTNedi1Qq/MzOomj34TbTv1hDWKBRienVNKJgnCkt5V50/wkuwlvRwlbyX6443Tnb+yy1sn5438GUfJRH8ZqGnYV6mQuegu87dS/+mibqqNRULBzxNHf6e31HucpJm8yO2nsx7ArNRYrnTxxzyFItnSjAsr+pv5up5PocRicusOqgRKFGweFOkU3s/DoeBYlKyPT6i+Wm5mf9GifF76/9e7hjePnAJKfKmGHk0Nyul0ShTpJ4Ci8fRUTttfyCwGUfSojiO604nSKoJJehTqPUuDiexHtylqbGn6hl9Dtq5vWycbSXQDRl1wtljr2MKuT6BswOHX1KGpNv8ZB4XzBZjICPrG0Aok+fY1OdhQk4k2uSY7yKjM62Vj+HAD8qq3dOulkPH4n3P4HX7dtq0z5UEChvAq+I37F8F6/NZh4FVixOQ5MfbWwgZkvV8+GXAVeBY80mPIS5D3LowDRnVyD5Ohk5mxQBJ+EA6t/xG3DV7kgQFFeBWGhsqpsRlG0Ph6PT47+5ijA3CTdqjHBBIYcb/zs143jX2x/Zmt9T7bVmwyJmj+qZydZWCZXkv/tL21BlPwdJMmPmep11gnAaRisLvsyfpt6ggGFOQRL320CzMs//NpvXfrjn39T3rOk6XD2fPVJdjK8qU2QAsmODdnkWrumk7txEfC2rCGW1glEvweDU5+2MW6fZYMCRcFCZf+YeX9M8Jzs2XWjbYbItKIMJJgp8lhfTjJyDckClp0qx3uvv5LsnrvBg05eBICPw2DVy8lW7jvny4UICkZafF3zQMplZ81EvIhWVp6v3uDrBOBeiJJPw4HTuPrf6C84UFJpuHzFbCSJc5LnP3bH6KWfWPxzeAXO9mHV3UY+RWXr0Mnlj9357MtvXbwPxskZuP30P5bts6/ngwVFDcNMe8GcZZBc96rR//3cG9/3wue+XGuI0bnDAT3ICBs79Ta5ftel0X2/+DMwOBVkWqigQVGw+ByKaa+oc9JuTx/yPBS7FvYPWJ7Bg5IZiqXAYDiYnXNYPS+AVGCEGWA6r5PWgJLVs1LQoTiOD27H8BGg9J90dy+CMTlQVHTBaQU20/sqU51sr4UdUcLolE7+H7a+9Ge51wQpAAAAAElFTkSuQmCC;fontFamily=Times New Roman;" vertex="1" parent="r26zlcC6nCp4phhId66P-21">
          <mxGeometry x="119.99745762711866" y="100.00448275862067" width="21.776406533575322" height="21.56079854809438" as="geometry" />
        </mxCell>
        <mxCell id="r26zlcC6nCp4phhId66P-24" value="" style="shape=image;verticalLabelPosition=bottom;labelBackgroundColor=default;verticalAlign=top;aspect=fixed;imageAspect=0;image=data:image/png,iVBORw0KGgoAAAANSUhEUgAAAMgAAADICAYAAACtWK6eAAAAAXNSR0IArs4c6QAACyZJREFUeF7tnQuS3LYOReWVJF6JPStxvBLbK0m8EtsrcXaSDKpbZU27pwUQVxQ/R1XzkrwmKeICRwD1fbOwoQAKvKrAG7RBARR4XQEAITpQ4IECAEJ4oACAEAMoUKYAGaRMN3pNogCATOJozCxTAEDKdKPXJAoAyCSOxswyBQCkTDd6TaIAgEziaMwsUwBAynSj1yQKAMgkjsbMMgUApEw3ek2iAIBM4mjMLFMAQMp0o9ckCgDIJI7GzDIFAKRMN3pNogCATOJozCxTAEDKdKPXJAoAyCSOxswyBQCkTDd6TaIAgEziaMwsUwBAynSj1yQKAMgkjsbMMgXOBOSvZVk+LMvy5/WvzII5e/27LIv9fV2W5fv13+dU4mCrzwDk07NNnw+2a6bhDZCPQHKMy2sD8vezIy1zsOkVeLpmE/3IE49YExADwwBhO06Bt2QSrbi1ALF1xk/t1BntjgL/XMstxBEpUAsQ1h0ihzmGIYs4RPI2qQXIt+f6+L13UrRLKWALdsskbAIFagHyn2CuDOFTgDLLp5OrFYC4ZOqq0SiAWMVh18ky23qdqHgMACmWrtmOowCiOOuZLjcBpNk4L54YgPySDkCKw2jcjgACIONGt8AyAAEQQRiNOwSAAMi40S2wDEAARBBG4w4BIBMCYs8+2G3dM2zZu50BZEJARnG6B/DsXQejaMV1EE+0XNuM4nSPyQByUQlAPNECIAGVLk1HOZgASMD1ozjdYzIZhAziiZMXbQDEL9koWpFB/D4fpmzwmEwGIYN44oQMElaJNcitZNPcrDhK2eCJeTIIGcQTJ2SQsEpkEDJIYdD01I0MQgYJxyslll+yUbTiLJbf55zFmlArAJnQ6R6TKbEosTxxwiI9rBKLdBbphUHTUzcyCBkkHK+jLDw9hgMIgHjipLkSy17AbQ9uHb3NAogtwt89ENP0zr6udu/jQj/2XtPay3uxWsgg9n5h+wbH0dssgLTwrZjduAIQX7ivb6evoReA+HyiaAUgAhW33zYBEIGg1yHIIBstez4qbj/dACAAolNgAEBuP/wDILrwIIN0Dsi9z8YBCIDoFOgckHtfxQIQXXiQQToG5LVvKgIIgOgU6BSQR1/kBRBdeJBBOgXk0QdHAQRAdAp0CMje56oBRBceZJDOAHlUWq2mAAiA6BToDBDPt9wBRBceZJCOANkrrcggOjDWkQCkE0A8pRWAAIhegU4A8ZRWAKIPDzJIB4B4SysAARC9Ao0DEimtAEQfHmSQxgGJlFYAAiB6BRoGJFpaAYg+PMggjQJSUloBCIDoFWgUkJLSCkD04UEGaRCQ0tIKQABEr0BjgGRKKwDRhwcZpDFAMqUVgACIXoGGAMmWVgCiDw8ySCOAKEorAAEQvQKNAKIorQBEHx5kkAYAUZVWAAIgegVOBkRZWgGIPjzIICcDoiytAARA9AqcCIi6tAIQfXiQQU4C5IjSajXloz5OfhvRAiez7b7SPzO4sC8f0DkJkCNKK2FcPBzq8/Ov9pfZegFkz0Y+A72n0OZ3r9OPKq0CUy1uap93e7ssS8+fiig2/k5HAAmo6QHkyNIqMNXipgaHQQIgFwkBJBBKHkB6L62+XPUAEAAJoHFpugfICKXVKgqAAIgUkFFKKwB5GRaUWAFMHmWQUUorAAGQABIvm74GyEilFYAAiBSQ0UorFSDFIt90tDNq9mfb12VZvm/+W7WPR+NQYgVUvpdBRiutWgPknnsMEjvbZv88egOQgMK3gIxYWvUAyDrHGqAASCEgo5ZWPQGyztVui1mv3wTc6WoKIC6ZLo22GWTU0qpHQGzOBomtUdb1SsCtD5sCSEDJFZCRS6teAVkhUWcSAAkCYg74GejTWtP1Xqu9eWWvpO+Nf9Tv6nILQAKesgxia4/3gT4tNY0ET6+AmN7eg4DHNwDiUenaxs6aWJ175Pbuegepeh/rbezecXsGxPz05DV0px2ABITcu1kxMNSrTRUOuTd49KjaMyBmvz11af7Kbgp/pOdS47PGJlTW6b0CEimt1oDKapUNzGx/VRYBkIAnegQkWlqNAohqLQIggwMSLa1GAiRd2vBEYYAOxwNTsdHut1YcsdaRS0qrkQBRZHyFP9Kgsgb5BYvCITZaaWk1EiCKdYjCHwCiSB3XMRQOUdTfvS/SFQcJG0PhDwBpDJBMaaXKIJbBsrej2wVZuzCb2bLVCYAE1FfUtHu7yzokW1qpAFFopXgtKIDsRdzm92zZoHD63nSzgJSetbqdVwtaAcjVK1nK94KupaPi3lwzgChKq5a0AhAA+Y2XUkBUpRWAvHRJqT+2o7BI30sLgd9LHaIqrQAEQALh+rJpq2sQZWkFIAAyFCDq0gpAAGQoQNSlFYAAyDCAHFFaAQiADAHIUaUVgADIEIAcVVoBCIB0D8iRpRWAAEjXgBxdWgEIgHQNyNGlFYAASLeA1CitAARAugSkVmkFIADSJSC1SisAAZDuAKlZWgEIgHQFSO3SCkAApCtAapdWAAIg3QByRmkFIADSBSBnlVYAAiBdAHJWaQUgANI8IH8c+FFKr/G81eSiVOkj0FudeSbdG3WOdvaytOwL1xy72W0CIACyGyS3DWo8kx6e1EEdAARAwqEFIH7JFFrxXqyr3rw4zh94tVqSQcgg4VhTHBXDOz2pA4AASDj0AMQvmUIrSixKLH/EVW5JBiGDhENOcVQM7/SkDgACIOHQAxC/ZAqtKLEosfwRV7nlKBkke8uO4kr6U/biL6d5K0e/Y3cAchHp0/P/2F3VmQ1AMuo12rcFQBRH7+x9UN+ej/52+09mSyeA9ADO2bfgdOdUT2/WglYKQDKfgrYPiP4UeCId3+kBnEa04HTnVE9v1oJWduS2I3h2K33wTJE9JM/1AEg2BPT9WwDErLIjePZT0DZOdLGuWHvYfkvhfOFRANEHeHbEVgBRnOo1LexIbusRz6MEKjgAJBuFDfdvBRDFOmQrs12f+XIF5lZ+29cHwaJ8O67k4K8YxOpVM+7RZgJkNjsKeY5AmX200reGVnZE39tUC+Xb/ax+NJ/aPrJnqu7ZIVl/2MAKQNRHmj3H8XteAa/fVeuQ/IxjI0jWHwASE32k1l5AVGezamonyx4AUtNtbe3LC4jNWnHKtab1suwBIDXd1ta+IoD0lEWk2QNA2gramrOJAGLzUp3yPdrG7O0tv80vKtQ9A1mkH+12/fglfm99wa64zR9A9LHW5YglgNgpWVuPKK6uq0XL3Pf1cC4lQt0OSAZRu/v48Ur9rrzSrbJSvu7YTqxUqO0YAKJydb1xMn5vDZL0Mx+PZM8ItY4LIPUCW7WnrN8NEvP7meVW5B6vYt2yQtmOAaRY/tM6Kvxup3/t7NYZkBy25rj1iEIoADktzot3rPC77fyMhbv0QuCeggqhAGRP5fZ+V/j9dh1qZdeR2cRO436tfdOqQigAaQ+AvRkp/H5vHxYLalCsnLLb5E+5m1shFIDshWN7vyv8/sgqW5+soJRmlVMyBmuQ9oL1jBkdDcjWJoPl3ea5jxUY+6ediVr/rM+Pa6aw/6+JraZQTRjMJFAgogCARNSi7XQKAMh0LsfgiAIAElGLttMpACDTuRyDIwoASEQt2k6nAIBM53IMjigAIBG1aDudAgAyncsxOKIAgETUou10CgDIdC7H4IgCABJRi7bTKQAg07kcgyMKAEhELdpOpwCATOdyDI4oACARtWg7nQIAMp3LMTiiAIBE1KLtdAoAyHQux+CIAgASUYu20ykAINO5HIMjCgBIRC3aTqcAgEzncgyOKAAgEbVoO50CADKdyzE4osD/Jgbw9r1yfBYAAAAASUVORK5CYII=;fontFamily=Times New Roman;" vertex="1" parent="r26zlcC6nCp4phhId66P-21">
          <mxGeometry x="8.474576271186441" y="16.551724137931036" width="57.495462794918346" height="57.495462794918346" as="geometry" />
        </mxCell>
        <mxCell id="r26zlcC6nCp4phhId66P-25" value="" style="shape=image;verticalLabelPosition=bottom;labelBackgroundColor=default;verticalAlign=top;aspect=fixed;imageAspect=0;image=data:image/png,iVBORw0KGgoAAAANSUhEUgAAAMgAAADICAYAAACtWK6eAAAAAXNSR0IArs4c6QAACYBJREFUeF7tneuZHDUQReVMcCQ2kYAjMY4EOxJwJDgTmFp28bjZmatRqaRS6/S//UZqlW7V0e33vilsKIACNxV4gzYogAK3FQAQqgMF7igAIJQHCgAINYACbQrgIG260WsTBQBkk0QzzTYFAKRNN3ptogCAbJJoptmmAIC06UavTRQAkE0SzTTbFACQNt3otYkCALJJoplmmwIA0qYbvTZRAEA2STTTbFMAQNp0o9cmCkQA8lMp5f0m+jHN3Ar8WUr55gkxCpC/PEHRFwU6KfChlPLZsy8A8ahH3+wKAEj2DBHfVAUAZKr8DJ5dAQDJniHim6oAgEyVn8GzKwAg2TNEfFMVAJCp8jN4dgWWBeSt9wZO9swQ3xAF/hajAMiQNDBIVgUAJGtmiCuFAgCSIg0EkVUBAMmamRPE9Wsp5d3lWSV7uPRls4f7vix0fgggJyjEbFOwJ61/P4BxjPG3RUABkGzVtXg8BoY5R81mbmJXgVyPi9cM5GgDIA7x6PqjAh8vf5ozPLJlhwRAHsnmoa0VxPXxtWNXqbt+rXjnwXRofUfHoPqUVAEAcSTGCmIHQGoKuMU9XqS3Q6yfkx5qAQiASAVqAFGFpAbJ+uSDmhd30u9kFgf5VxzP4dWLvO5CUwQ2/g4gjcJZNwDpB0iNSzlS1dwVQJqlA5Br6VQhKZkBRCn0wO81lj7imBYH+Z40rxZ2km6XfLNtCnz3oeGsr5oASL9Sq1ndH7lBeIzMrmJZvjJuAOLIyi73QezZKbW6m6v/0XjZuwZAR5pcXQHEJR+drxVouRdi4NnhVdYNQLJmZtG4HoEkOxyWAgBZtBAzh20PK6rDT/tcp53gZt8AJHuGFo7PHns3UF42Oxm357rcH3weqAmADBSbodZTAEDWyxkRD1QAQAaKzVDrKQAg6+WMiAcqACAOsb2PVziGPn3XLFe5AMRRagDiEE90BRCHtjys6BBvka4A4kgUgDjEW6QrgDgSBSAO8RbpCiCORAGIQ7xFugKII1EA4hBvka4A4kgUgDjEW6QrgDgStQoglmR7OI/t/wr8cnlo0R5mvLUBiKNqVgEk85tyDvm7dFWv6AKIQ2YAcYiXpCuAPCdi54824CC3aQQQAHn60nnWjzLPNhIAARAAuUMhgAAIgACINmrOQbRGO7bAQXAQHGSwg6h//WYfjVAfwDuGzPsgjuVbvQ/CSfrYq1gR+QAQAHEo0N414hALQJ7zwY3C9sLM0hNAOAfhHGTwOQgOgoNkMQB3HDgIDoKD4CB6IeE+iNZoxxY4CA6Cg+Ageu3DQbRGO7bAQXAQHAQH0WsfDqI12rEFDoKD4CA4iF77cBCt0Y4tcBAcBAfBQfTah4NojXZsgYPgIDgIDqLXPhxEa7RjiwgHUS9Mtfx3Xd4HcVRnxNOjjnCW6hoBSIQAAOJQFUDaxQMQzkE4Bxl8DtKO6+2eOIhDVRykXTwcBAfBQXAQvYJwFUtrtGMLHAQHwUFwEL324SBaox1bRDiIug/Ch+OuKu1tKcUEidw4SW9XNwKQiHxwFas9xyUiIY5wluoKIJyDcA4y+BwkYsE6tYNEL6mWkHsb3+a9rQ4OMtlBouGo2T+AAIisk1lXsWRgAxoACIDIMgMQKdGWDTjE4hCLk3RO0vXih4NojXZsgYPgIDgIDqLXPhxEa7RjCxwEB8FBcBC99kU4iI1q/4btequ5afdFh3u3RcsY0c+DOac0rTsOEuggr2U1/JGAUsqIMaZV7OCBAQRABpfcWsMBCICsVbGDowWQZIC0fDTsWDPqhZwPl3Ojz4MLbdXhIgBR+WmpgfDD6qiT9GNhqImMKCQAqVc5ApD60etbqrpy5xxA6pOxU0sASXaINaL43KvJiCCTjAEgAJKkFHOGASAAkrMyk0QFIACSpBRzhgEgAJKzMpNEBSCDATHBH9nev/I813X/lo+M2bNedq2dTSsQAYi6D9KS09Nc5tUp+bHFx8uf9s74rc3EtI/PscUoEAEIn/3pmCsA6Shmw64AZPAh1qM5ApBHFevbHkAApG9FnWxvAAIgJyvpvtMBEADpW1En2xuAAMjJSrrvdAAEQPpW1Mn2BiAAcrKS7jsdAAGQvhV1sr0BCICcrKT7TgdAAKRvRZ1sbwACICcr6b7TARAA6VtRJ9sbgADIyUq673QABED6VtTJ9gYgyQGxj1/bS1P3Nj4CF0clgCQHJC717LlGAQABkJo62bYNgADItsVfM3EAAZCaOtm2DYAAyLbFXzNxAAGQmjrZtg2AAMi2xV8zcQAZDIj6aFhN0rxtWv5BixpTfeBO9e/xe8S8AGQwIOoLeD0KRe0j4t8fqI+hqZh6/G4f2PvUY0dX+wAQAOlSUgBSL6PSqgV0tfC6F0X+w1R9gl9rqZLu23td75bCUnvGQXAQVSNVvwNIlUxPjZRWLaDjIPX6y5Zuu31lBJV0GVSHBi2FpYbFQXAQVSNVvwNIlUw4iJJJWaHq3+N3HKReRRwEB6mvljstcZB6GZVWLYeKauF1L4pZrmK5J1JKCRer4RykJenHYSIKS5V1hIOoMVt+D885gLSk5XufEcU7YoyjCgCS7BALB7kNKoDc1gYHeWCBDxeLQ6z/FLDvAdiiNnsLzzmHWL4Uj1jdR4zBIdaNOgAQAHlNAc5BOAfxkfHce8TqPmIMHAQHeTpm7v0trRHFO2IMAHEAYi87vXOut+qFqR4v/YwY4yiDGvPb5QN4NjfPNmKMY3zqRbAe8/Jo8tJXaaPq6qtaNGvOQdTxaI+Jsg8UmKGAvBoHIDPSwphZFACQLJkgjpQKAEjKtBBUFgUAJEsmiCOlAgCSMi0ElUUBAMmSCeJIqcAQQLJcE0+ZAYKaqoC6nzMEEDnIVIkYfGcF1D08Wbs97oPIQXbOEHOfqgCATJWfwbMrACDZM0R8UxUAkKnyM3h2BQAke4aIb6oCADJVfgbPrgCAZM8Q8U1VIAUgUxVgcBRwKCBvUfS4D+KIj64oMFUBAJkqP4NnVwBAsmeI+KYqACBT5Wfw7AoASPYMEd9UBQBkqvwMnl0BAMmeIeKbqkAXQNRLJ1NnyOAo4FBAvuxXcx/EMT5dUWBtBQBk7fwRfbACABIsMLtfWwEAWTt/RB+sAIAEC8zu11YAQNbOH9EHKwAgwQKz+7UVAJC180f0wQoASLDA7H5tBQBk7fwRfbACABIsMLtfWwEAWTt/RB+sAIAEC8zu11YAQNbOH9EHKwAgwQKz+7UVAJC180f0wQr8Az1fowUIJ+BtAAAAAElFTkSuQmCC;fontFamily=Times New Roman;" vertex="1" parent="r26zlcC6nCp4phhId66P-21">
          <mxGeometry x="110.50847457627121" y="16.551724137931036" width="57.495462794918346" height="57.495462794918346" as="geometry" />
        </mxCell>
        <mxCell id="r26zlcC6nCp4phhId66P-26" value="" style="shape=image;verticalLabelPosition=bottom;labelBackgroundColor=default;verticalAlign=top;aspect=fixed;imageAspect=0;image=data:image/png,iVBORw0KGgoAAAANSUhEUgAAAMgAAADICAYAAACtWK6eAAAAAXNSR0IArs4c6QAAC9hJREFUeF7tnYGR3LYOhplKEleSuBLblSSuxE4lSSpxXElycFaTO59WArg/SYj8NON5eXMQIP7AtyC1lPaHwoECKHBXgR/QBgVQ4L4CAEJ1oMCBAgBCeaAAgFADKFCnAB2kTjfOWkQBAFkk0QyzTgEAqdONsxZRAEAWSTTDrFMAQOp046xFFACQRRLNMOsUAJA63ThrEQUAJE+ifyqlvCulfC2l/F1K+TPPpa17JQAyPve/lFL+2LkMg+RzKeXj+Etc9woAZGzuPz11i/cnl/AbkIxLEoCM0/5e59i7ordMucYkCkDG6G5RvzxNoWzd4TlsuvXGY4iNVgEA0eoZ8fZPwBhAAmIpTQFEqabfV2R6tXllmuXXV2YJIDIpQ44AJCTXOGMAGaM9gIzRPRwVQMKSSU4AEImM7Z0ASHuN9yIAyBjdw1EBJCyZ5AQAkcjY3gmAtNeYDjJGY0lUAJHI+MLJtunQuoT9a33YdyR22OZG27e1/f/WcZfwDyDaNP/65M72To062OAoVh5AdILapkPbfJjhYIOjKAsAIhKylBLZOqKLuu/JOol9885060GlAeRBAW+nZ+oe24joIoLcAohAxNvU6uy5Dk0kvxdbtFsX4XhAAQB5QLxnp9oTgT3uWEWuFkAiat2xBRCBiLdHZgFEo2UqLwCiSQcdRKNjOi8AokkJgGh0TOcFQDQp8QKieOjJu4+LNYggtwAiEDGwBgEQjd7dvACIRmo6iEbHdF4ARJMSANHomM4LgGhSAiAaHdN5ARBNSgBEo2M6LwCiSQmAaHRM5wVANCkBEI2O6bwAiCYlAKLRMZ0XANGkBEA0OqbzAiCalACIRsd0XgBEkxIA0eiYzguAaFICIBod03kBEE1KAESjYzovAKJJCYBodEznBUA0KfECoonm88J2d59Oh1YAIhAxsN1dE83nBUB8OgGIQKczF3SQM4Uu+nc6iCZxAKLRMZ0XANGkBEA0OqbzAiCalACIRsd0XgBEkxIA0eiYzguAaFICIBod03kBEE1KAESjYzovAKJJCYBodEznBUA0KQEQjY7pvACIJiUAotExnRcA0aQEQDQ6pvMCIJqUAIhGx3ReAESTEgDR6JjOC4BoUgIgGh3TeQEQTUoARKNjOi8AokkJgGh0TOcFQDQpARCNjum8AIgmJQCi0TGdFwDRpARANDqm8wIgmpQAiEbHdF4ARJMSANHomM4LgGhSAiAaHdN5ARBNSgBEo2M6LyMAsd/5fldKed9Jjb+fYm3/Pt7+Wx0aQNSKJvHXG5DRhWSgfC6lGCjKY/S49sbCi+MEGe4JSJYiMkg+lFKsgFRHlrE9Hw+ACLLbCxCbVlkRZTkMkjfCi+kJiF37T45rBxCHSGcmvQD51HHNcTbm7e9vhV3EC4h1rl+dBb43jq37eT5sAMRbCQd2vQD58kBRCIa562IEIBbTitwK3NMFnl/41vW83RhABJXTC5B/BNeqdmGf5rZgVxzeDrJBaXBEIHk+JQQQRcacPnoB4i0g52VLzEYCYgPwQvL9eglAJOn3OekFiM27f/NdUjcrW6Rb8SkO7wfA99O6M0j2biYAiCJjTh+9AMm4SM8AyFEnuXenDUCcxa0wWxmQUYv0ve9frJPYh4gVvx1HC2wAUVS+00cvQDLexRq9BtlLkYFyNu0DEGdxK8x6ARK9i2WfoNFvuqNrHLNXbTmpXYPU5LAFIAam+f2x5oI6nPP19sERrYmHLy0rIDXFG4WwJsY9wa8KyPdTu4cLqrED667bd0mNQ/3nHkA0Ml8REG8n0iik82KQWOdXfYd1eGUAokncFQGJdlyNUhov3ToJgGgSdjVAMt52j2ZCOUW+GxtAomnZt78aIBnvKkYz0WWv2cqA2Bz29ztZ2Z5A9CbtaoBceXq15UT9yMJurlcG5Kz4I08fAsiZmm3+3rx+mwe46RL9xKqZX0ZjeFPmWRACiFdNrV3z+m0eYAJAbAhn7RxAtIXv9da8fpsHmAQQG8bR1hQA8Za01q55/TYPMBEgR3dNAERb+F5vzeu3eYCJADmaZgGIt6S1ds3rt3mAiQCxodzTKyMgylKsuWkSjV/zUF3z+m0eAEBe1IniGZQRe6gAJIp70D56C7YmIdEYwSF8M6eD1KjmO4cO4tPpmxWA3BeLDvK/Ns1nQM0DMMViiuX8YKSDOIWigxwLRQehgzDFOmAEQAAEQADENd9ovkRoHoA1CGsQV6n/91Lv6Is3mtdv8wAAAiAAcq5A9DsKbvNym/e8qjq8dIQO4knD+aKQrSYxHfesmWIFNKSDPN5Btici9zxF5/o1L/ILpPubqd2d21696j23+Qd88wATrUHY7u4t2352zeu3eYCJALGXPNhDU3tHxinWEdDRNWG/ko9Fal6/zQNMBMjRTlwAiRW2yrp5/TYPMAkgZ2siAFGVfMxP8/ptHmACQM7gsCECSKywVdbN67d5gMSAHL0cbnvNvr1Y7uz3OgBEVe5xP83rt3mAxIB4OoM3ZVfrIN7r9Y5/lF3z+m0eAEBe1E7PR24Vt6VHFb43bvP6bR4AQFIC8v72m4jeQsxq17x+mwcAkJSA2EXN8BMIzeu3eQAASQuI/fzau6eri247ydRNmtdv8wAAkhaQ7cJsuvXz00+abT/kmQmAs2tpXr/NAwBIekDOitD+3mOnbY8YnrG+sAGQsGS7J3hvm2a5ixUddY/i7REjOm5+5Tas2P4JAPJal+iHL4AEirHmS7zoDtWaGPeGACAAEijv16Y9irdHDADxlwEdxK9V6VG8PWIAiD/pAOLXCkBuWm2bIAPSvTK127H27+xQ/kxyj/VBjxhnmr36e5TycIDbCT0+3XvEeLSD1OpXcx6A1Kj23TkAIhAx8DyIJprPC4D4dDq0AhCBiACyK2K0tphiBWqx5hYsU6yXAtNBAgV3zzRKeW3IHsXbIwZrEH8FRGuLDuLXttS8qCy6K7Umxr0h2IY/z52lgAQPmx69OC7qvOalbtF81MSIQhgdd9qtJuGBcMKSCgDIkmln0F4FAMSrFHZLKgAgS6adQXsVABCvUtgtqQCALJl2Bu1VAEC8SmG3pAIAsmTaGbRXAQDxKoXdkgoAyJJpZ9BeBQDEqxR2SyoAIEumnUF7FVgWkJrt7l5RW9hlfBm04h1cLbS655PdvAG1rwaIDS0TJFeDw/QDkMkByQLJFeEAkAAcZnrFDrINcWQnuSocALIQIKM6yZXhAJDFAOkNydXhAJAFAbEhe1/yFpTnhfnRr/U+4rf3uSzSA4pfeQ0SGCamzxQAkEA5AEhArElMASSQSAAJiDWJKYAEEgkgAbEmMQWQQCIBJCDWJKYAEkik8qVugbCYDlRg6RfHfUn45sGBtUBokQLT7Ob1/oafSDfcLKCA8uXcd+VqTuAt8qfbbtcF8sYQOynwuZTyoXWsXoDY/NK6CAcKqBTosr2mFyC25cIAyfYGdFWy8NNfgS612yXITbuR28D7p4+ILRWwqZVNsZofPQGx7mFrEZtucaBArQJdFufbxfUExGIy1aotC84zBWznsq097H+7HL0BAZIuaZ0yiEFhUyvFb827BRoBCJC404PhTQGD480INUYBskFi6xHbg8PdrRHZzx9z+53Fj6MudSQg25i3p+7ePXsCD2BGVcTYuNvawu5Q/dV7OrU39AyAqFIS/Rnomriz6IVWzuzPknAbLkl3Jh2t/EIBiF8rs5xFLz5MnHmfJeF0EGfCb2YA4tQLQJxC3cxm0QtAnHmfJeF0EGfC6SAxoQBkTb3oIM68zwRI66cWuzyg48zbo2Zo5VRwJkBq3orhlOmb2UyAoJUz8zMB0nqnMFo5i2qi2+HT3NffUtfqoawuj3f6609iiVYOGWf6VNyGq+wkQ7ZYO/KmMkGrEyVnBOQ5KLZb+MfKakqxWa7y2qOnGShotaPazIBEiwR7FHilAIBQFChwoACAUB4oACDUAArUKUAHqdONsxZRAEAWSTTDrFMAQOp046xFFACQRRLNMOsUAJA63ThrEQUAZJFEM8w6BQCkTjfOWkQBAFkk0QyzToF/AU1mSvZuXZ8DAAAAAElFTkSuQmCC;fontFamily=Times New Roman;" vertex="1" parent="r26zlcC6nCp4phhId66P-21">
          <mxGeometry x="212.2033898305085" y="16.551724137931036" width="57.495462794918346" height="57.495462794918346" as="geometry" />
        </mxCell>
        <mxCell id="r26zlcC6nCp4phhId66P-27" value="" style="shape=image;verticalLabelPosition=bottom;labelBackgroundColor=default;verticalAlign=top;aspect=fixed;imageAspect=0;image=data:image/png,iVBORw0KGgoAAAANSUhEUgAAAMgAAADICAYAAACtWK6eAAAAAXNSR0IArs4c6QAADdBJREFUeF7tnetRHDsQRpuCPC43EuNIbCKxiQSIBBwJvnlAcacXLY9dvVo7mtFIZ6tc/oGkkT71kdR6ngk/FECBoAJnaIMCKBBWAECwDhSIKAAgmAcKAAg2gAJlCtCDlOlGrEEUAJBBKppilikAIGW6EWsQBQBkkIqmmGUKAEiZbsQaRAEAGaSiKWaZAgBSphuxBlEAQAapaIpZpgCAlOlGrEEUAJBBKppilikAIGW6EWsQBVYB5Fzkp+p7JvJPps5/nkX+urD7/zOjLhtMy2Yo19yZ2+vUtEYXIlevIpdGnVYp26KAXIj8mizid6lVvIr8fRH5Lh+wlCZVJd6FyIOIXFVJPDPRyfDuXkRuWtTIgXF7JnKZWRxfsN/PIvdLlW8xQGY2HhVJjaCZn+s5blvI0KvI9YvIXQt52edhZn0en0Wul4BkEUBO7Tl8FT21Iv8uIVCukdUoY+63PeFaa0AuL0SeTihPqCep3kguAUgNccQNtxSSJn4AEq6Gc5GnE4dV3sSXaCSrA1LTcJYQKJe+muXMzcOncC31IFUaSFfW6uVcApCQ46rO+p/Mylfn/sj5bWmsHQJEneazN6eyxu/blKhv0qO64eQWJuJ7PL6K3J9lTLi8ivyYwu1mPg9+6ovopE21X3VAQt3r5GRnfzsicjOGEAGkmsM8ki6Tvq+HFCwxzM420lJEAaTejBKA7Kb9q/qhAFJK/kE8ehC/kHPpQg8SMdSRWkoLryPpAiAAYmFjFxZAGGINZwgWSgAEQACEnnWnAEMsDMHSeQzXcABIGSBmo1o6Qs3FzJk3AC4qjVUXAAEQs4ECCD5IaihhNqqlI1hbSkv+AARAAISeFSc91WqO1FKmtPj895F0wQcpbCl1w5rFqGqG9Z15WGuI1ZsuAFIGCLt5RXzHfLvTBUAAxNy5sZKOk55y0rtrKS2UAAiAAAg9K7NYqVZzpJYypUXmLFZ3PSs+CC2lhY3helYAARAAiSgAIAACIADyocBMt5rsro4xW1adCN98V9OstFDYnS70IGU9SB1TnzHVlQCZsQR1krLqAiAAYrZE9mKxDpKarTEb1dIRrC2lJX8AAiAAQs/KQmGq1RyppUxpkblQaElmlbDWnhUfpKylfJwutdZ/Lfz0cu1FL9iOXQzdmy4AUgZId1sqLKSPtAUHQADEwkbKN+uu4QAQAAGQiAIAAiAAAiAfCsy01aS7oYSFEnwQ1kGGG2sDiF8BhlgMsSxsDNdwAAiAAAg+yHg+SM0Fu+kF3cvA++Pd+Wb0IJ32IOZuYZ4IADKPjvlPMZd+b/RXbkt1OzEegJwo4D46r9zOJGRjGyoBZKZ6BZCZhBSRy3ORh4BPMN9XMlJ6fns7vIk7i3kGOlFhowyxVIYLkatXkdu1INELq89Erp/b2eGsmvyatPl9aCZsd3eKjARIqnG/EHnwbYkPtPiXFyJPnjQfn0W+p77Vyt8BhB4k2xYB5EMqehB6kCNwAARAjoyCIdaHJAACIAASGXABCIAACIB8UQAnHSc920k/f5sC/nkYwTKLNe2/unsRuc7+6MoBAQRAsk0wBIiuE0wHyG4+JxQyLF/Y7AysEBBAACTb7GLbUbRnOBO5dzt0f/jWS/RD1unR7MxVCgggAGIyrdCsXk4iulL+8raNZDM/AAEQk7FGhk456TSzCTEnsxoGQAAk11bew5VAsjXnfF9YAAEQMyAaIeKw+9Lb1P6rnMkGqy/FicKImW3hepsSSjJ2/+q9wzct7c61lpMehB7EajNH4X2O+xYdcp8QAAIgABJRAEAABEAApNwG2M2b1o4hVlojnPQBnfR9kQEEQC4PJejt8up0FYdDAEhaPXoQepAvjQizWF8NAkAGBsR3kGqrK+eH1cgsFrNY6fFBOsSXO7Vc76E3lzRxt1U6++EQAAIgp9jPl7huZf3yReRutkRXTghAAGRlE2z78wACIG1b6Mq5AxAAWdkE2/48gABI2xa6cu4ABEBWNsG2Pw8gANK2ha6cOwABkJVNsO3PAwiAtG2hK+cOQABkZRNs+/MAAiBtW+jKuQMQAFnZBNv+PICE60c34P3yXdasUXRDnqVqQ+/+WdOxfJOw8yjgqztrvUXefdTL9O5rbeys8spt6B2MeeQmFRTwKlAFlNkBAQ7Md0UF9II9fRrCNDqJ5XdWQEqu1FxRTD7dpwKz3l88JyChZ4v7rAZK1awCgQeJivI7GyCxty9KnPKi0hBpKAUiEzfXcx06mw2QyHTepp4MG8rCNl7YJWxuTkAefK8izdndbbw+yf78CoSG9bPdhg8g81caKS6nAIAspzVf2qACALLBSiPLyykAIMtpzZc2qACAbLDSyPJyCgDIclrzpQ0qACAbrDSyvJwCALKc1nxpgwoAyAYrjSwvp8B2AAk9tabvYS+nF18aTYEzkVtPmWfb9n7qSroSrBm8Gq1iKO8mFDgZlGJA9Kp+EdH9V/xQoGkFdBRTuru3FBDOfjRtEmTuUIHSTbNFgHCsFgPcoAJFO3xLAKH32KB1kGWRkl7EDEjo5KC7xuWGikCBBhTQ66aOnh4v8UXMgMx1EVgDIpKFThWIHP82X+gwGyAi8v1Z5LFTzSnWhhSIzLACyIbqkaxWUgBAKglLsn0oACB91COlqKTAKIDodLLORHzTrSxuluzPdBn23xl8nfe0Xz9mO+ZKW6td0//h6v897y9vPtqp12JW1UXzvM+702Yrurzj1j0gqStMFZYXke8lxpbaIqNpT1OEd88iJVPW0b1pJ6athvtrsoLfoYZ3q7q48pgd6JAOPQOiTyY8RK66f9ekxNiMOwBMFZYy3s+VWWDIzegy9Sp6EaA2Hlk9YWVdvIx0C8gk5mvBsDRretkIxy4bzhiS2/VTvZKvTBZISnTJXRTbsi5D9SAlFeWMWIdb/8bAKjHgfXo5hlZiwLkAnqhLdBhaW5fQGaFUI5jbMA0DyCkVlWNopQacA+C5yG3oFa2UIbi/B3vAkXXJaZiGASRkZPv9XTr742a01Ek9OpzlhiveXiRx67w6vH+eRf66mZuQAxw04shJSnX2rzXt87c8e/cHqdMdmhAYXJei3bduFi50VsnkV2paTWw1iXTFh4YZdFZDOzUt+3IiDmVQWF/vFADWfH7aokvoZKdVF9/wZg1dYo1eqmfuzkk3GFlsqtPbyoda4YDhmIzYAp9r2Y5uwI8ZQmhoOPU4Rw1bxIib0SXkW/j8LAD5aAa8RhkSKDLs8B6rjDi5R4YTankiFWvqykM9gs/g3WLj02FrGdLFusvaokskL963X6wtuFGXVAeijaipXmIJNjHEslRWREz1QY7m5i2PrFjhsxhxpNKCY22LLqGwoSGWRRcrfLV1SRHSHSAxZ9Stat/HnHQVLNAKB1uT/UJjjpMeO4mW66QHrqeJrrVEDHO/2q/vg2sZgzfLWHVxxpc1eRGbaaqpy3CAVJ7OzF6FDgkfMjINv+Fp3s3qMhwgpxhajjOXemA0IXhqpf4UQ0tOZZ4CYAxsp/nPUM+WMsKMA3JVdSlcGN7mNK8rbKmgKQPeJV9iaLkruqUApgy4VV2mtagk2In1iCh/mboE0+jOB/lUUhMkxtXW/Rb04G7Yz4rnwrGPY92U5xYRc48om3SJLT56rMqkSy4cC+nihaRnQLTAORVWfKWktvaRVW11mvcr4LnG+7mScq5iNXfz+54ksdq/y3vpMYAN63IESe+A7AusrebVNEb+x20v2Rusbg0pMd5DQ750B4L0QJauvOkU8SxpuyGdzsV/c1v3Nb9zpL1rQDaqy3veK+nyXr+jAJLhJxIEBY4VABCsAgUiCgAI5oECAIINoECZAk32IMYp17KSEwsFMhRYFZDY5dW6b2oC5b+MMhAEBaopcPZ25ZLvYJ35IZ2S3by8LFWtakm4pgIlK/RmQNwc/1PO1Tw1C0vaKGBRIGfPni+9IkDcYlXW/VWWQhAWBWopUPJ4jualFJDd0deJSt0NevRQSa1Cki4KFCqQtaF1zh5kn1bO3qPCMhENBU5TwHoLZA1A3tPUqbVPF0EHn8DKLbLbg3W081YLrfuactMhXDsKhGaXphz+tsx++s6wfH4CcKZLwnfCFQ+xYrJHzkdnf2/Ouex2TGTsnETO5JiGQIHbXrLOqFhrINtgLQkDiEWtccICiKtrABnH6C0lBRAAsdjLcGEBBECGM3pLgQEEQCz2MlxYAAGQ4YzeUmAAARCLvQwXFkAAZDijtxQYQADEYi/DhQUQABnO6C0FBhAAsdjLcGEBBECGM3pLgQEEQCz2MlxYAAGQ4YzeUmAAARCLvQwXdlRAjo7cnot4z6u7c8FZhuEuaNanxQ5/ejv67ukxfttSIPJUnJ4HOXpfMlS66Zb7o8dN3bMM14E42Wkfxi86D+JOD95yHn1bBjpwbh9fRe5f3k6jmn4lgITeEjd9mMAosLQCJTebmAGxvKS0tAB8DwViCpRcj2sGpPQ9PqoOBRpQwPy6lxkQLWToDewGBCALKOBVYPGbFd17eUcXBFM/KNCaAg6OGzHMlO3LUNSDtCYA+UGBWgoASC1lSbcLBQCki2qkELUUAJBaypJuFwoASBfVSCFqKQAgtZQl3S4UAJAuqpFC1FIAQGopS7pdKAAgXVQjhailAIDUUpZ0u1AAQLqoRgpRSwEAqaUs6XahAIB0UY0UopYCAFJLWdLtQgEA6aIaKUQtBQCklrKk24UCANJFNVKIWgr8D9SU6lCFN3yzAAAAAElFTkSuQmCC;fontFamily=Times New Roman;" vertex="1" parent="r26zlcC6nCp4phhId66P-21">
          <mxGeometry x="212.2033898305085" y="148.96551724137927" width="57.495462794918346" height="57.495462794918346" as="geometry" />
        </mxCell>
        <mxCell id="r26zlcC6nCp4phhId66P-28" value="" style="shape=image;verticalLabelPosition=bottom;labelBackgroundColor=default;verticalAlign=top;aspect=fixed;imageAspect=0;image=data:image/png,iVBORw0KGgoAAAANSUhEUgAAAMgAAADICAYAAACtWK6eAAAAAXNSR0IArs4c6QAADaBJREFUeF7tnb/LLkcVx08ghUWKFCmuYKGgkDLpLISYTgXBxsLqJmAtSW1hki6k0H9AEqtYpEgjpEtSaWe6NIJXCCgoGPAWKYTkPW+evXeefWd3fp3dndnzWXi5F3Zmds73nM8zP3Z25gnhQgEUWFTgCbRBARRYVgBAiA4UWFEAQAgPFAAQYgAF6hSgBanTjVxOFAAQJ47GzDoFAKRON3I5UQBAnDgaM+sUAJA63cjlRAEAceJozKxTAEDqdCOXEwUAxImjMbNOAQCp041cThQAECeOxsw6BWKAfPtS1PRvXcn75/po/0fyxLMrEAKiQPxGRF4a2OgHIvKyiADLwE7sqeoTID8UkQ97qlhjXV4TkdcbyyA7CogCoi3H30+mBS3JyRx6lDkKyNuDd6uWtNNu1otHCctzz6GAAqKtx3xArr/AI12xCQW14TsjGUFd+1NAAfkyUi0NrJEgWeomagvCgL2/uBumRmcBRAWPtYQAMkwo9llRAOnTL9SqEwUApBNHUI0+FSgB5Cci8qsOzPjzwjsOulgdOOdsVSgF5E8dCLD0EhBAOnDO2aoAIGfzKPaYKgAgpnJS2NkUAJCzeRR7TBUAEFM5KexsCgDI2TyKPaYKAIipnMWF6fc3+qlBycdpugRIl8+wnL9Y7vIMAFKumVUO/f5G4ai9+OalVrmCfABSIJZhUv1qUz8zaLm0JdG1ZiMtKm2x95C8IwKi3ZI3ImqN9KLQ6hscFmNujA2AbCzwQvGt3aupWP3+/p1jTPDxVAA5xs8xQHRM8fFKdaYBfZgEQDb2H4BsLHBBC5IK9hhUb4rIB8eY0PVTdVxmMjYDkGP8HAv2GkCOqf0YT/1CRD4XkVdF5I+1VQaQWuXa8gFIm36luXWcpj9AxReAFEtmkqEGkE9vfgmfNXm6z0Kq9lkAkGOCpQaQf4rIvWOqe4qnprqwUSMB5Bjf1wDyXxF5elbd/4jIw2NM2O2p+qPwDYOnVa08ABAD5SuKsALk9yLyy4rnj5QlppWOKZamxJ8RkV9HfkwAJLLor9c3zQCSj2iNVkvvmYoXeJa2ID/Lt2uzlJ+dYKlJjdNjXSyvLUhqPHEIIJtFvFHBI63FApB8p9doBSARfQEkP+hGSgkgRt4CECMhOyumS0B6Hdwu+W5p8+qql0M7BEiN0xmDPHbMrmMQq6XXO8RV8SN6PaTUCpD3L2uNioUZKMO7Nwsyvz+r766A6DJqnSM+21W9/mYHIawA2aGqXT5iV0C0e6IOK9k4oEvVZpXquZsIIG0RtCsgWtWzQZISsM097blrAPmriDzX/uhTlJDyr+k076SYQnJ/4O7W9JGMimfyscyGoVQDiO5qP++Lb1jFros+BJBQkdLuljpOB1Pz63cFMmsZ8wD4i4j8IqOM3oGYm1ADyJknUzJcfJXkcEBKKxw7Z730EM3YVjhnPanWCpBUoJT6scf0VlpVL1a0EAVAylS0cjqAxHXfZAxS5uLr1ABSpp5VdwlAAOR298CzXQCS71Gr1pYuVr7mh6e0ejnb61IaS4EB5KKmp0H60tqxksA66wTGVjN+tCAl0dVBWoUkts4op2qfiMjzOQlPkIYWxGELMsVt2NXS9z363mfp+paIvHV5V1Q6hT4yJwDiGJBw9i9n7dj0zUvPCzGtYQQQx4CEY5FU0IdjtFRa6yA9sjwAcQyImj4FQKrbFJ4p4mH2aoISQJwDEnaz1l78fXnRyVPrEf6AhK1Y6gUpb9KPbPONnx1+arDUioTdq5yxinEVDy2OFsR5C6Lmh7NZMQDCDSl6/Yx4K4oABEBuP1hTCPSavwAMW49U12KrID2yXAABkFsFwsF6eHptGCCeBucM0mc/S56WmsR+kcPBergswuvgHEAA5A4nYSui3anw4E5vg3MAAZA7gMRa0di45Mgxwd7PZgzCGOQq5uZL4VMvEPcO2L2fByAAcifmdFZLxyT6UtDrNe2y80rkMJz/J0R5MnJff2hUz6IzQqzm1Pnk1msYb2N3LJ6snqSghLOEq+UCiJXslGOpQGynfsvys5frAIil7LZlTS8Pvb37WJqosFVXJCv2sxJl1IwuVoZIhUm8AhKuWi6UrCh51rQ5gBRpumtiAHkst3aJ/lCxN/G/RET/FLr5bqEAsms42z8MQB5rWrXhQuCS6tPHaEHsA3sqUd9nFE0pzqpiBYj26UeaLo51sQDkZkf2M63Fmr7x0JW5umSk5rIAZHrpaPVDWGNHaR4AWVDsTICoiWqPBmj2nPsGLYgudBxtiTyAOAFEzdRlEvpiqrYVKf31DdNroOnsok4Tj3QBiCNApunvrBkTwyg+6rkWJgCII0DU1CN+ybXl0mvEjb8BxBkg04C9dixS+qu89/NK65dKDyDOAEkFBPevFQAQAIGJFQUABEAABEC+nt4smWI823sQKKhTgBaEFqQucpzkAhAA6TrUdRbsyHPnAWRAQKZlI8XfNHeNwt3KTWu3WhcHtpgNIAMCMm0goIEzLR3RhYhnudS+6YXmkXCongAyICBTlUNQptaktTuiZc4/5skBzwLQ0J5p5XGrPTl1X0sDIAMDEoKijtSrZTlHy+4dGsj6vUnLtx66JEUh0cWUFsC1wkELsqLgiNO8rQPa2KZoJUFWOpU+L7u1/iV1zU1LC3KCFiTX2al04aeg08Zm/0hkun9Zxq7JWgFJ1e+I+wACII8UqDkYJzxLBEDyEOab9Dyduks1OW5+aE6qorkHf6bK6fE+LQgtyJ0WBEAeB8VwgEzTkC+sTEfeE5EfzQL/4WVPotxfqadERMsJL93T6IOMAj6+9Md7mYnJqPJtEm8tSE4s/UBEvhuJA42F2kvL0/gKL42rWJlXsZTa7aJlGrLWmJZ8o73E8wTIXluKtsRPmPd2k+s1QFqnIK0qWlpO1Tb3pQ8xSu8FkGFjaQmQ0VqOebwWbXFvFOw1xXgAZOhYWgJk6+3na4KpNE/pwLe0fIv0HgCZDiG10Gv3MpYAiRk1dV1SldSB2NORU4FS+cL7n4jI55kZptOY5uuZRnhHcHZAwnc28/59aomMxlDtOrVY6Gg8peLqTizFAFkaTKUG9JnxvEmyJUf0frbG2QGJxVLvP1xXsZQLyEjdlZDA2g3b1lbXWq527Q0Qa7vnB5Kqb7JPd9rkpzSv0Ec9KACJC7bWb7ZsSXsDxNpuAMkDcpdU1ettIrWz/iVdEqA3QKztBpBdQj/vIZaA5D2xPVVvgLRbdF0CgFgr2lAegDSIt1FWANlI2JpiAaRGtW3zAMi2+haVDiBFcu2SGEB2kTnvIQCSp9OeqQBkT7UTzwKQjpxxqQqAdOQTAOnIGQDSnzMApD+f0IJ05BMA6cgZtCD9OWNkQEoX8E22lubb22u0IHsrvvK8kQFRs6adEtcWQ05bhepHSFOekjNY9nYXgOyt+MkAaf0UtfdV1gACIE0KtG5kULucv6nSBZkBpECsrZOO2MVSTWq/mhthiyMA2TrqC8qPAaL7Hn1RUAZJbRWIfXrNB1O2GmeXdoaNJrKNHTghgBzkPAA5SPjCx74nIj8vzLN38lN+cvtvEXlmbyV5XrECurPI88W59s1wSkD+F9l/dV9ZeVqOAn8Tke/lJDwwjRtA9Nfq1QOF9v7o34rIczMRAOSgqIi1ILqD948Pqg+PFYm9CAWQgyIDQA4SfuWxANKRTwCkI2dcqgIgHfkEQDpyBoD05wwA6c8ntCAd+QRAOnIGLUh/zgCQ/nxCC9KRTwCkI2fQgvTnDADpzye0IB35BEA6cgYtSH/OAJD+fEIL0pFPYoCMsLS6IwnNqxIDRD9i+6b5k2wLXF2sGDu2V3faeFlEev3Mc+nb7hE+zrF1bV+lvX2zW4v6JrweishPR4ml2HFiSwdiqpGW5/NZuXLtVCQAsVK5rhxdzfvKQtYhYmnpvL3W7Wjq5LTPBSD2mpaUGNu0oST/4WmXAFlrRQ6vdEEFprOxC7KQ1FCB2h1bDKvQVtTaia06FnlXRO61PYLcKDCsAp+tAdK6qdmwqlBxFLgo8GAJkNhMFqqhgDsFlgBhCx13oYDBMQWWAHn0oiTIpNNyvb4HCW176jJu0n/1j+tYBfS9h/7pt+gjXFfvbWKALI091sYrIxhOHVEgR4GrGdxcQHrfZj/HcNKgQK4Cp9wXK9d40qFASgEASSnEfdcKAIhr92N8SgEASSnEfdcKAIhr92N8SgEASSnEfdcKAIhr92N8SgEASSnEfdcKAIhr92N8SgEASSnEfdcKAIhr92N8SgEASSnEfdcKAIhr92N8SgEASSnEfdcKAIhr92N8SgEASSnEfdcKAIhr92N8SgEASSnEfdcKAIhr92N8SgEASSnEfdcKAIhr92N8SgEASSnEfdcKAIhr92N8SgEASSnEfdcKAIhr92N8SgEASSnEfdcKAIhr92N8SgEASSnEfdcKAIhr92N8SgEASSnEfdcKAIhr92N8SgEASSnEfdcKAIhr92N8SgEASSnEfdcKrAISOwJaD/B8UUT0Xy4UOLMCV2d0xs4ovDrEMFACOM4cFtimCmjsX11LJ9d+eHPks7YkXCjgWoElQJZaEddiYbw/BdbOPl86L92fSljsVYEHa4BMfbL7N/95zatC2O1SAR1vvyMir6cACdXRbtedQYxL+TD6zAp8FBr3FfeheF7MY0iuAAAAAElFTkSuQmCC;fontFamily=Times New Roman;" vertex="1" parent="r26zlcC6nCp4phhId66P-21">
          <mxGeometry x="110.33898305084747" y="148.96551724137927" width="57.495462794918346" height="57.495462794918346" as="geometry" />
        </mxCell>
        <mxCell id="r26zlcC6nCp4phhId66P-29" value="" style="shape=image;verticalLabelPosition=bottom;labelBackgroundColor=default;verticalAlign=top;aspect=fixed;imageAspect=0;image=data:image/png,iVBORw0KGgoAAAANSUhEUgAAAMoAAADICAYAAACprX6jAAAAAXNSR0IArs4c6QAAGX9JREFUeF7tnX+MH8dVwN/u1XFjpXVEQnV3AsUWpRWqSlMaf5ukFNtUiEioLZGo+kO0toUQpRWFSoDu3NCzofjMH0ioQEEC4XOliCiNREL/aAj9cUZNE18EGEoRVQO5isbfL5GjOMQ0SpT7Lve+nj3vd787897Mzu7O7r6vFEXJzc7Mvvc++2bezLyJQH4igQolMD8/fyiKopUoijbH4/HJ0Wi0WWFzlVUdVVazVNxrCaSAAMChjCA2kyQ5NhqN1tsmHAGlbRoLvL/z8/P7oig6kwNkqtdRFK21zbsIKIEbXlu6h4DEcbySJMlRZp/Ru+BQbI1ZvtFiAkqj4u9G44uLi2csAMm/9LoajgU9dxFQumGrjbzF/Pw8TtJP+GhcwRKsdxFQfGi5Z3XMz88fxUgWAOzz/OrBehcBxbOmu1xdhYBMiQ29y3YwYD2kULKAEoBlowECwC1pV+I4nnypx+PxWQDYbNpgFCBHTJEsnRiTJDkxGo1OqnkMhoq5Xigo7yKgNAQKrjPEcXwkSRKO8aDRVLb2gIasE4PrRB1DwBcvXkTPsPNTaysYOubCAggaAJxt+mMhoNQMCmedoeYuwXA41NrBwsLCUzaGzVkjUUEA9KJcYBr3LgJKjVapvqhfq7FJVlM+QOEAUtK7bA6Hw/2sF6qgkIBSgVCLqvQZSvXd5ZKg4NceFw6dhoZc75IkyWHXNnzIS0DxIUWiDtdxfg1dmzThCoov42UMR9eHw+HhuuRR1I6AUrH0Q4ekDCgmwFzEqgk/NzrkSt9DQHHRKPMZG0jUGP8choNV9QejKMKIWHb3LbNlu2LYtu4J09YU36BgH/LeJQ0v272R/9ICin+ZTmrkQkJt3eCGVNUinXa/lNrRy40ysaRSBShpw+hd4jg+mA8xszpWQSEBpQKhMiGxOptBhWkp4KjnXcRQJSgu/anyGQHFs3SrgCTtImHsxgmvgFJO0QJKOflNPV0lJGr8btytmyTJft0KtoBSTtECSjn57TxdNSQcr9I1UHBi3/TWFYl6eQLEYuJuNSfRdY8Ach2TOBQ9W+JglVZSVc1RMpGvfWqtpvFDXeJRSgJTlydJu8lsz+qt0Bh1D5iiZVWAotZScOPk5CfhYStVhlmYabRePEkqgSq2wriuzPsExbQ6bxpS1mUZ4lEcJd0EJBbDPKu3cgXFdiOkrlMM+PFjg3u9GhuCCShWJnW1cFOQYNsLCwuJQ5eNj7iCsjPRdUw/pMn9VdjXpodgAoql1TUJSVXb9MuCkplPsI/wMrxIXjON7vkSUCxAaRIS5U2sDlFxX80XKKq9Sb4u3Zl3Gy8S0oReQGFaUwCQ4IEv7QbJ9Mgs83WmipnG/iUSSswAw5Rhtm+lzrq4yEL3jIDCkCZTwV6jW9luLSwsGCHBHcdVn/7jHrAqECca+1nb9EZNz0ny7yGgEKC0ABJca8DE17Ukj3PIpsL4FE0Vafx8fFGHBRSDGtsACc4F6j79l8kzzMkgwwalTuDZnVIFBRSNxFoCSeVDLpNBZVIucRNz66oL0otkOyugFKiuLZA0vQiXis4lkpWJaDWaNILrWQSUnKSYkICvVem8ohgTd3ykssAB13CKytkAU5Qgr0zbVT8roFw9p22TtTGvkzSLY+lshm2GJCsU4vhykJBToPUaFEaaHEp+U38v42W6AkkOmKms923zIjJH4e/XsgIlM+62ypfbRUjywKhk405J8pyU4Pmh3nkU317EoA9WJKfrkHi218aq6xUoVW0qNGjPuD1cIGnM7q0b7g0oHiDBsxBOebGKDh4JJNa22ugDvQDFFpJM1saZW59w6IbAZPYuseDJwiKQNGrzTo13HhQ1J8Ht6eTPZSOexd6nyTCMuoNddbKVIVRSwC0u0HlQmF/vUvulLO5Y5wzfBJIAgeo0KJxTdC5eRKdHTnuEDQgkAUKCXeo0KNT5cl/3e+TWDFzvXhdIAoWk06BQX3efniSvX6rtAnsQSAKGpNOgELl2ye3puf1fqRrRoHF1mdzXZZHrVyAJHJLOgkKFg6khF2cHMXWtM9UHiW61gI5MFzs5RyGGPtoIl8P2Fmrl3ZQ1RTxJi1jpJCimYY/JmzBDyVPqNe0YzufRzdtFlfOkFtlgK7raOVCIBUbt3MRhAr6jYNNZb2quIrC0gpPuhYdNoJjOQ1ChZEKd2uEcx0sJLOHD0kWPgoeFdq4NyKpAZ5A221x0KtVlXOcEBrBOgSVsWLoIinbBzwCK6yIhOfyyGdIJLOHC0kVQTB6lMFGcjTEbPIqXugWWMGERUK4ml9DCxVWbbkLvAqHAwpV6feV6BYpuMs9cHDRqpewcRULH9Rm9S0tdBOVQFEWY1HrmR0S9ylypoA07c6JehuHcidFohFcoyK9hCXQOFJSnKdSr+/K7DJFS3ZWIppHnU2QY1jAhqvmugqL1DsTKvItXMW2JMUXTcAvL2vZ115i313icWGBpHpZOgmJauzANv9R6Cg7bWOfgqUzypmFXavzce0cElmZh6SQo1OTcdB0z91gvZbiMPuwkpxZYmoWA03onQVHzFNMwijwjX3AeBTOvrI3HY5xXnBuNRsash7bnYQQWjrk2V6azoFCTc8ojlFEJtW2F2CEgc5Yywq/o2c6CwvAqleyvYixeGk9XimepyNJLVttpUCivgrLz6VmY7ZEX5wgsJa26gsc7DQrHq2CZMtc1pDphLiySc6O0PoGlAmsvUWXnQbEJ+eJ+LQz5mu5dz8ua40XUM2RCC03dMmcpYeC+Hu08KCgo7tc5I1S8sgG3jmCEC7LgqNzDeEPXwSRJ2Jd8UgktdArl9t3nENKXcXWpnl6A4ghLVs8TYCwWIqdsxBUSh2FYbffNdwkCzrv0BhQPsHDkOVOmLCQOsOy3GTo6vVQPH+oVKAoW3F2MR4W521RczcJ7OiLmMMyYQsn1Zfr+XO9ASRVOLQqWMYwqL/XkwCLzlTLaK362t6BkvMvKdqTrkA/R+ggzc/rBhEWGYBxhMsv0GpTM+L/UcKwuQLI6pcLSVXo1pm11qpiAotRps96Cay3bO5DP2q65+LYcChbTLmnffel6fQJKRsNcWKgE3XUaDZE+VsLFnpQhoOQE2TZYXBOSe7Kf3lQjoBSouk2wUFkuZfjlh2UBRSPHNsFCHDmW6JcHVgQUgxDbAotpTciUad+D/fSmCgGFUHUbYDEdFhNQ/LAsoDDkGDosBCiSRI+hY6qIgEJJyHKdpYnQsSnyJdtZmAomigkoFnIM1bMIKBZKdCwqoFgKLkRYOIn2LF9TiuckIKA4mERIsDDWUWSO4qDj/CMCiqMQQ4GFsd9LQHHUcfYxAaWEEEOARW4dLqFAi0cFFAthFRVtEhbKm2B/JepVUsHqcQHFgxybgIVKAp6+loDiQcGY+81PNVIL5+uOUvJxyIsLiXgUf3YpoHiSJRcU1Rwe/MKzImkaJHYvGLmNp+oSj8IWrbGggOJHjmmSvRM21dms4isvYn2+X0Cx0Yi+rIDiR45OoGSaTo8Wo4fZRE+Ty0iJyS+c0isJKH4ULKD4kWNZUDz1YrYaAcWPaAUUP3IUUDzJMdRqBBRPmiEm8+Q12WW6gZE0XcJw8ShlJHvtWQHFjxyNHkVdJ3EL56psy+6kWffxfklMEzvzE1AsJaopLqD4kSMJymg0WsvcOOw8OVfdxfzCJ7FO/G85uOVJiYZqBBRPMibOhEzl13IFRi1W4o3EE0DSn4DiSYkCSvWCtAElZ+Rp3uODcRzvS5JkEgbeHqZNFiPVdd3fzcMhoFSv02wL4lE8ydsVFB/Ni0fxIUVzHQKKJxkLKJ4EGWg1AoonxQgongQZaDUCiifFCCieBBloNQKKJ8UIKJ4EGWg1AoonxQgongQZaDUCiifFCCieBBloNQKKJ8UIKJ4EGWg1AoonxQgongQZaDUCSoFi8DRh5qDULbhiTulPrajrbhdeT1faqXpc/k60vRlF0TpVr9oBgMW+i4fH0gNk1HN9+buAojYVxnF8MEmSspsVu2Y3E8BwA2bfwektKOg14jg+ojvH0TWL9/Q+k239o9GI9FCe2gummt6BovZFHdm++lo3TApGOQF3JIjrw+uUT29AUUnq8HCTAOLPwpzTLvnrQj019QIU21xY9Yi+O63YpF1q61t3GhTxIrWaZae9S2dBKQOJOkmIIVIMleLPOqNjrSbqrzEMg+PZ/jT6R4bF80139V77ToLiAomPnMD+7DWMmtL1pCiKMEMlG5ouwlIKlNzCXBXaxayJVqFIS0gm0RvTMdsqXqqNddqmdHWBJUR7SnVVChTqEhsPBrE+HA4P29Rjus8wW4+k8bGR6rWyKjDC8jC2sHB159bzyVPW9tRJUJgZ5Xu7aFbCwGYeXVxcPMNYrMW0Soe5WfsFFHcNsb8AzDtD2PW5d7k/T3I+TDaeW0Bxtx2WYVM346rmWXW5d7WfTypYjpom+8qrkHNNAcXdhljGzRgGsOpx72a/n2R4FtYQTEBxtyPSwBneZHM4HO5374I8yZEAZeTqhrGpDJf5eqk6OP0gypD2pHu+sqiX2tZAvpvKjoiuu+hHvhj1NeO6fbKjUoCUABEFJb2KCRSuPWEnoyjS3XxG2lPtoAyHQxaEhEcwvhjlTWwmkqQVSAFSAtSeOsqrmEDh2hN2cmFhIXH98HYVlBXD10OGXKRp+y9AeBXjh09AMeijjEcxfDnwVN6J0WiEJ/PkV6MEqDC9aRFSQKkAFGrYZeOqa7SjXjRl8iqm4ZeAUg0o2mGXeJNmeTQFWHDz6cWLF48V9TBoUNRGNCfJRlH0Nd2DGG1iVqq9Vg335qjEBjNVqavYCne0qgjJOWb7UqwCCbjYBqFTrj1h1Etnl1p7Molga2vre5FpnF+B/KRKkUDrJBBF0YcElNapTTpctwQElLolLu21UgICSivVJp2uWwICSt0Sl/ZaKQEBpZVqk07XLQEKFFZy57o7Le2JBKqQgCnROQmKbE+vQiVSZ4gSMG29EVBC1Jj0qREJCCiNiF0abZsEBJS2aUz624gEBJRGxC6Ntk0CAkrbNCb9bUQCAkojYpdG2yYBAaVtGpP+NiKBzoOCJx1zydcmVzRw03g2opWON9pGnXQKFMzyYXl77+TaanU1NGat78s9J7WhmOoEG2TeqpzeNIz/Pmd7W0FVL9Z6UDxfToon3FBBAk0Ji8t8sHT52GxqD0InrQWFkSbVRhlFZTt9lVpZ4RQ9TyUb9NBmYzcNtA6UGgDJ61OAISy8BkCKdFLrffatAYXKB+Xha2Wsog8329rKUOkErxxnX0tn24apfJ06aQUoNSRn5upPvIuSVANeRKcjMmcxV7mmckGDYnnfYuE8A6Na2T+ocwX4v/JhY7Y8qRy57IpaWNCHTvC1s3rxpJNKM38GCwqV6VFjY5PLSTHfFyfUm+Ysy9xqyx5C9BEWR0hSnbAupk11EsfxEWY4eccUqkxsGCQotvMRX1dbc26HynmnSr9iITkcW0iUTjDMTt6kRQx5jtpcz10VLMGBYuNJbABRq8GsFXkbYKpSTICQPMXpk61OOJ4f27W8bdj7Byw4UJgTd5zAHSv6WmW2RxzcHgfr7g6czFu2x8Z4w1Ph6i/WE8fxCuNmW6xnP1fhHGMLrUwoOkG5cJcHfF8QFRQoTIUU3qFhY9gFhojgrRVdA8H0LrVEXpoAiBndClEnXj9gwYDCUUhRpnPlQY4YLgyysa9CYDjrBaYs7DYdCKksZ66o0wnXGzPe11knAODtAxYEKJx5iUYhONHDBS+vv2TPrkvPf3Tway/+1gP3pRVzPEvXImHE7VgomhlPwvnguShrfMPuy5d//c7jL93+hi/AbScuqXnLIVOGezW89jJfCQUU0xVyhQrhjlVdlILPbL3uBnjxnfsuv/CRtz0IEZyFA6fXGUbg7Qvm2m9fzzHedQYS5tDZuYuok+//9Ovhygff8iWIor+CA6sPcLy9jzlkGVBwDFh44YutJAivMHPXYtUKyfb/hQ/cClc+eCtO/ddgC07O371mHOapqE/r715ph07gUYjm7pl/919i4EZ30y8ubq6Nx+OyOrlF1waV18uWB6fy+eiFNSRz8ffGr9198ys/tPfV2IG5/7kCc89cserLNVhgE6JkbeE9Z3XRNKt621q4tE5eFT89fs3umzzpBMW4svDeNfxosxeMfcq+cVDyaxSM4UD6/pMJ4Eu3Lnz7ud+961e2x9KHsoJBUK775hB2f+sZuP4r3yFlhi7/8id+El5+8/yk7J5Hvr22908f83HWgmw7tAJ5nVgMgSc6+f7PvuHS/378HZ/CW6x96mTXU8/df/NvPDRoApamQZkacnEiMFOTt8eW9sFcRC6SITTXf+VJeM19F4w2ibA8+/t3TeYu+Ltp5ZEnr7tw8fWhGXLV/cleEsvUybWo1cbSAYjiRyBJbjT101Une//k0Qt7/v47OE6u9dcoKPkvFyMCM70IubGM9/RNeRKT9NCz3PjZR40CfvFdPwqXP/GOSZnrvjmCm+55uFaFNN1YgU4Sok/Xghv/sPyD8Gp4DAB+hPseN/z1BfIDltUJAnbzJ7/4fHzlpb3cNnyUaxKUvDehwsDTEZiNpTMAk1V5qx8K+nW//ID2mfwQDMHiDN2sOhFw4Zw3sYtUnl/+AkTwC7av1wadNAaKpTeZjoo9sXQIEv1txJSiKE+B85RnP3NXH73K1MeIuAR3Wifnj38IouReSva6v1PevmlPPwEFJ9CuL1jiuZ3kDmoznHZRcWZPj+WQq6iPlMtHUNKJPZbd9R/PPLj7n582T3JKCCOQR3f2xFnr5Inlf4EEfrzMe5h0kp8/TnTyn5ce3r3x34+XaZP77NbW1r0Rt3BV5UxRlcJtIxvL1LiZ7Cq6+5s+9bA2jJwJF6d1bcJgdT9ZcUcKmEL0Mzp5bPk9MAcPlX11agiW/Xiptv4dBqtvKtsu9/nGQTG5+JkV143jRwESL1taTO4+O/zaEWSUHMbVe65g21zOSifnlz8PEXzYx/ta6ySBO+HtqxhAqPzXKCgmF6/xJhgO9rLoZPqCoat/5i9y89IoOQEHTp+sXCMNN2Cvk6UhQHR1Aarkz1onAL8Dg9XPlGyW9XjbQCk97MpKBcO/OLkv+iEo6ZqK+vs6DFYPs6Ta4kKmRd+ZTaHMtSwbcVjpJIIH4cDq3Tb1u5ZtGhRtCLIOpZjCvwVj4l6AYpozzgZWjr8LIPmyq/EVPWepk3+Dweqbfbavq6tRUAilTJ8qLBkWLhKAKdJSAEovJvRWOtlYej9AtHNUwYfBWukkgufgwOoP+GiXqqNRUEzRlZmJfAWgmCaPuEKP8fup32C1UXlRyvTxdyudPL78YYjh8z7aTeswgTKjk76AYuXmKwDFSikAvfAoBCiHp/IYnF96H0TR/T5BMQ29Cj5eQxisLvpsP8ihFzFxnFZKBRNHy/FwL+YoVjrZWD6IpyB9GqpJJwUBlgswWH2rz/bbCMrsEU8Pi41ZQeC+L93ZlVmlJGswOO3lIFsdinVtgwBlWif/9NuL8Mrc065tFT1npxO4Hwar7/fZfqig4Jlo3AVc9Js5+Qgetq9kG1p4L2YzKv4NH8rvuYyOweCU/oE6tFVDG8TW+iKd/Nf2fTNedi1Qq/MzOomj34TbTv1hDWKBRienVNKJgnCkt5V50/wkuwlvRwlbyX6443Tnb+yy1sn5438GUfJRH8ZqGnYV6mQuegu87dS/+mibqqNRULBzxNHf6e31HucpJm8yO2nsx7ArNRYrnTxxzyFItnSjAsr+pv5up5PocRicusOqgRKFGweFOkU3s/DoeBYlKyPT6i+Wm5mf9GifF76/9e7hjePnAJKfKmGHk0Nyul0ShTpJ4Ci8fRUTttfyCwGUfSojiO604nSKoJJehTqPUuDiexHtylqbGn6hl9Dtq5vWycbSXQDRl1wtljr2MKuT6BswOHX1KGpNv8ZB4XzBZjICPrG0Aok+fY1OdhQk4k2uSY7yKjM62Vj+HAD8qq3dOulkPH4n3P4HX7dtq0z5UEChvAq+I37F8F6/NZh4FVixOQ5MfbWwgZkvV8+GXAVeBY80mPIS5D3LowDRnVyD5Ohk5mxQBJ+EA6t/xG3DV7kgQFFeBWGhsqpsRlG0Ph6PT47+5ijA3CTdqjHBBIYcb/zs143jX2x/Zmt9T7bVmwyJmj+qZydZWCZXkv/tL21BlPwdJMmPmep11gnAaRisLvsyfpt6ggGFOQRL320CzMs//NpvXfrjn39T3rOk6XD2fPVJdjK8qU2QAsmODdnkWrumk7txEfC2rCGW1glEvweDU5+2MW6fZYMCRcFCZf+YeX9M8Jzs2XWjbYbItKIMJJgp8lhfTjJyDckClp0qx3uvv5LsnrvBg05eBICPw2DVy8lW7jvny4UICkZafF3zQMplZ81EvIhWVp6v3uDrBOBeiJJPw4HTuPrf6C84UFJpuHzFbCSJc5LnP3bH6KWfWPxzeAXO9mHV3UY+RWXr0Mnlj9357MtvXbwPxskZuP30P5bts6/ngwVFDcNMe8GcZZBc96rR//3cG9/3wue+XGuI0bnDAT3ICBs79Ta5ftel0X2/+DMwOBVkWqigQVGw+ByKaa+oc9JuTx/yPBS7FvYPWJ7Bg5IZiqXAYDiYnXNYPS+AVGCEGWA6r5PWgJLVs1LQoTiOD27H8BGg9J90dy+CMTlQVHTBaQU20/sqU51sr4UdUcLolE7+H7a+9Ge51wQpAAAAAElFTkSuQmCC;fontFamily=Times New Roman;" vertex="1" parent="r26zlcC6nCp4phhId66P-21">
          <mxGeometry x="183.2250847457627" y="100.00448275862067" width="21.776406533575322" height="21.56079854809438" as="geometry" />
        </mxCell>
        <mxCell id="r26zlcC6nCp4phhId66P-30" value="" style="shape=image;verticalLabelPosition=bottom;labelBackgroundColor=default;verticalAlign=top;aspect=fixed;imageAspect=0;image=data:image/png,iVBORw0KGgoAAAANSUhEUgAAAMgAAADICAYAAACtWK6eAAAAAXNSR0IArs4c6QAAFMxJREFUeF7tnX+MZFWVx7/nVVU7hjisiUAMbpjBXRhlQROzCsiCiRCDEWEgQcFMSwvCYL/qrsYhCoIMgqBhpKu7qmVAsHEmApLIj8FIDGMiLM7gGhMdll3AhZnJSgxgMksb4tiv6p3Nq+5mhp7uevfe9+u+9877t86995zvOZ96P++9BDlEAVFgWQVItBEFRIHlFRBApDpEgT4KCCBSHqKAACI1IAqYKSBnEDPdpFVJFBBASpJoCdNMAQHETDdpVRIFBJCSJFrCNFNAADHTTVqVRAEBJMFEr2i1VnfIP5aYV7FD7yPm9zLhKGK8B8C7AZygOPxzAPYx4S/EeJWJ/kxM/8vgvVV2Xt5fr+9W7EfMNBUQQDQFW9L8jtuOrHSqHyHCh4npRBBOBrA6jq41+tgNxjNM/Cwzft+tdn6HK69+TaO9mC6hgABiUBbv+H7zeJ9xOnycBgeng7HKoJvkmxD2wMdTcPC0Q3jq719pvJD8oMUaQQBRyef09IqBN2fOZvCnAJwJ4P0qzSy0eRng7eTjF7Pv+oefY2hov4U+WuWSALJcOiYnV9bQPZ8rdC4xzrMqazE5w4RHCPyo1608hJGRmZi6LVQ3AsiidA60J9Yy8HmALyxUpkODoQcJeGDWHX041LREBgIIgOCegru4hAmXAjiiRPlfKtTXiXEPVXCv3LMApQak0ho/m4jWE/DZkkOxZPgMbGPmzd362ONl1aeUgNTa4+sA5zqAjytr4vXiphcB/2bPHduq1y7/1qUCpNZqXgrCmMYLuvxnON4IngNj3Ks37om3W3t7KwUgA62Ji5n4awBOsjcVOfKMsIt8+u5sffS+HHlt5GqhAalOjp9JFec6MJ9hpI406q8A0ZPc9W/ujIxtL6pUhQRkRXvTMV2ufguEwaImzqq4GFsq1PnmfnfDXqv8isGZwgFSnWp+lRibYtBGutBUgAkbOsON72k2s9q8MIDUJidPhuPfDuAUqxUvvnM74TtXeSMjzxQh1EIAUm2N30BEG4uQkKLEwMwbO/WxG/MeT64BGWjdfiI7lc1gPjXviSik/0Q7yO+un61f9Wxe48stILWp5pfBuCuvwpfKb8Ll3nDjB3mMOZeA1NrjdwJ0eR4FL7HPd3puY33e4s8VIAOtTWuYqj+UG/G8ldlb/u50HAzl6SPI3ABSaTc/4wBb5udy57ZCxHHs84HBrtv4WR60yAUgtcmmCwetPAgqPqoqQK7njk6pWmdlZz0gA+3mtxm4NiuBZNzkFCDgllm38Y3kRojes9WAyM149ATb3wPf5bljV9jqp7WA1NrN+9Gb+ipHCRR4wHMbF9kYp5WAVNsT2wh8jo2CiU/JKMCgxzruqHUzO60DROBIpgDz0KuNkFgFiMCRhzJO1kfbILEGELnnSLbwcta7NfckVgAiT6tyVr6puGvH063MAZH3HAeq7e5PnoW9MzO46be/SaUEbR/EhvckmQJSa08MA9y2PVFp+BfAMbjmg72hbvqPZwSSBdF91L2RRmY1khkg899WPZZG8dk+xsFwLPgqkBzImg+ck9W3W5kA0ts+wMdO+fAQWAoOgeSQv7R9xJ1TZ+sbnk/7zy4TQGrt5g75ZL0/HALJISjs9NxG6jNHUwek1m5uBmDttzdp/UP1O3Ms9kEutxYUSf/JVqqAyDTZuUTrwCFnkkV/FylP300NkN4CC+TsSusf2tZxTOAQSN6eTWL/pLQWgkgNkNrUxK/LvvpIFDgEkoMgIdrhDY9+PI0/wVQAkXWrzC6rlisAuScB0lp3K3FA5lc8DB7plvZQPXOc9chPsWdmBn8cHArVSiAB4DunJL2CY/KAlPyRrg4cT77ypx4Yx7xrpUAS+hfRM0j80W+igJR9IWkTOBbqQiBRIyTpBbMTA6S3BQGqe9TCLJ5VFDgEEr16qKCzKqmtFxIDpNZq/qis+3OowLH3rzO47JdPYOGyarmSCM4k29de0Lvs6neU+p6EscWrN76oh5WadSKA9HZ2cugJNReKZRUnHAefSQSS/nXCPp+VxE5XiQBSm5r4VRm3PUsCDoFE8Q+U6ElvePQTitbKZrEDMr9h5o+VPSiIYZJwCCRqRUJMX4h7Y9HYAalNNf8ALtdusmnAIZAoQbLLcxsfUrJUNIoVkPl9yO9WHLsQZmnCIZAolAzjsjj3cY8XkHbzPwGcoBBGIUyygEMgCS2d5zy38S+hVooGsQFSa4+vAyjYnqAUR5ZwCCRhJcaDnju2NcxK5fcYAZl4AeDjVAbNu80T512AM45+X98wVN9zRNVC9T3Jluf/q/fepRwHvei5o8fHEWssgFRa42c7RD+PwyHb+7AJDt0zSZkg8Zk/3a2PPR61nmIBpNpuPkqAdQsPRxVncXsb4RBIls4yA9s6buPcqDUQGZD5FUpSX20iauC67W2GQyBZOpuOgzVR90OMDMhAq3krE76uW3B5ss8DHALJoRVFjO/M1hvXRKm1yIDU2s3XABwRxQmb26rC8c9bpq0JQ27c30rF657bODJKYiIBMtCeWMvgh6I4YHPbPMIhZ5K3VxSBzp91Rx82rbNIgNTaEz8B+ELTwW1ul2c4BJKDK4se9NzRz5nWmjkgk5Mra47/hunANrcrAhwCyYEK83zncIyMzJjUnDEgtanxS8Bkz4W3SfRLtCkSHALJvAI+D3kjY/ealIgxINWp5sPEOM9kUFvbFBEOgQRgwiOd4cZak7ozA2R6ekXtzTf+ZjKgrW2KDIdAAniHHf5ODA3t160/I0AGJsfPZ4d+qjuYrfZlgKPskJg+zTICpEh7CpYJjpJDcqfnNtbr/kkbAtJ8CcCxuoPZZl9GOEoMyUue2/gn3RrUBqQo316VGY6yQmLybZY2IEXY40PgOPA/WqrPUgz2FtEHJOcLwgkch15kBJAEMyTDJoHlfj6JwQJz+oBMNXeDsUr3Ws4GexU4gpUOg1XWy3aUAhLCHm+4sVont3qA3HHbkbVu7VWdAWyxFTjCM1EGSLyKdxSuvDr4Al3p0AIkr1NrBQ6lWugZFR0S3am4WoBU2+PXEOgWdbmztxQ49HNQZEgYfG3HHbtVVRUtQGqt5n0gXKTaedZ2Aod5BlQhCVZvsWmyWGjEjPu9euPiULt5Az1A2s2XAWjd5Kg6EredwBFd0YJCsttzG8ovuXUB4eiyJ9+DwBGfxkWExHMbynWvbLii1VrdpW5wBrH6EDjiT0/RIKlw5dj99fpuFaWUAam2Jz5J4O0qnWZlExccQUGEvTTrF2PwLiW4Ni/SUSRIGHRmxx39pUp+lAGptSe/BPj3qHSahU1ccAS+X/+vH8P1Hz3ZOIxgic/grXPRjsJAorECvDIg1amJG4h5o41JjxMOAaR/hosACRNt7AyP3qhSy8qA1NrNzQCuUOk0TZu44RBAwrNXAEiU54YoA2LjHHQVOMLSvdRzfLnEOqBaVC1sfE+iM0ddGZBau/nvAE4LK7i0fo8DjsBXAaR/xqICspzGadXJMuM87bmNf1PxQQcQa3aPigsOASS8ROIAxEJIlHeh0gHEipeEccIhgKQHiG2QqL4szBUgccMhgKQLiE2QFA6QJOAQQNIHxBZICgXI4JoP4vSjjw7PZh+L4M148Hhy8SE36eY36VFehu6dmcFNv/1NpJxGaVwoQKIIsdB2uTOQAGIOSPCZe14/qRFAFuVdADH7m+n3FEsAOUjTWrtpxVMsszQDAoiZcgKIom4CiKJQQG8/8ijX5+ojJW8pgChqLIAoCiWAqAuVoaXcg0S4B4n61Gzr8/+NYE5IEQ45gyhmsdZuWvOpiaLLbzPTuQcx6b+obQoKSCKfmlj1saJuQQoguorN2RcUkPg/VrTxc3edlAsgOmodsC0iIEl97m7lhCnVtAsgqkq93a6IgABIYsKUvVNuVVIvgKiodKhNEQFJZsptq3kpCHebyZx9KwHELAdFBARwLvXckR+qKKL8uXselv3pF7AOIMGHjevWfEBFvyVt+j3mDT6YvP6jHzPu+6lXXkn1JWQRAUlk2Z+8LBy3XOXpABJ1Fl2/N+kBfIEvpkfam9gUEZBEFo4LEprnt+kCiBmSRQRE9S16oJjyJdY8ILlZvHpxOQggAsi8AgkuXp2z7Q8OLgkBRADpKZDk9gd53EBnoSwEEAFkjo8EN9DJ6xZsgTACiAASKJDoFmwo4CaeaU+5ladYZqDG1SrRTTx7N+o53QZaziBmJVaop1iJbwMdANJq/giEQTO5s2slgJhpXyhAGFu8euOLOkpoPeadP4N8GYy7dAaxwVYAMctCoQAhXO4NN36go4Q2IO/4fvN438fzOoPYYCuAmGWhSIA4Dtb8/SuNF3SU0AZk/oXh/wB4v85AWdsKIGYZKBAgL3tuQ7tmTQHJ3dwQAaTkgDDf5dXHtDeAMgJkoD2xlsEPmUmeTSsBxEz3opxByOcLZkfGtGvWCBBMT6+ovfnG38wkz6aVAGKme1EA8Q47/J0YGtqvq4IZIADyNkddB5DlFrpWFbffNtBRt5gOXmymuaRQEQDRmYO+OMfGgNQmxy+BQ9OqRZO1nQ4gWftq0/hFAATEQ97w2L0muhoDgsnJlTXHf8Nk0CzaCCBmqhcBEM93DsfIyIyJAuaA9CZQTfwE4AtNBk67jQBipnj+AaEHPXf0c2bRa06YWjxInp5mCSBmJZJ3QAh0/qw7+rBZ9BEBmX9p+BqAI0wdSKudAGKmdM4Bed1zG0eaRT7XKtIlVtDBQKt5KxO+HsWJNNoKIGYq5xkQYnxntt64xizymADJy7dZOoDkdVWT4BHyHweHjOtBd26M7TtMmXx7Fdtj3oM7qrabjxLwWePMpNBQAAkXuUiAMLCt4zbODY+6v0XkS6yg+zxMxRVAwkulSIDoTq1dTp1YAJm7WZ94AeDjwtOQjYUAEq57cQChFz139PjwiMMtYgRkfB1AW8KHzMZCAAnXvTiA8KDnjm0NjzjcIjZA5s4i9u5CJYCEF0NBAFHePSpckRge8x48SM3iFeAFkPByKAQgjMu8euOe8GjVLGI9g8yfRf4A4CS14dOzEkDCtc49IIRd3nDjQ+GRqlvEDshAa+JiJv6xugvpWAog4TrnHRBi+sJsffS+8EjVLWIHpHcWmZr4FZjPUHcjeUsBJFzjXANC9KQ3PPqJ8Cj1LBIBpDo5fiY59ISeK8laCyDh+uYZEPb5rM7I2PbwKPUsEgGkdxaxbIE5ASS8MHILiMGCcOFqzFkkBsiK9qZjuqjuUXUkaTsBJFzhvAJSQWfVfnfD3vAI9S0SAyRwpTrV/CoxNum7FX8LASRc0zwCwoQNneHG98KjM7NIFJDepVa7uQPAKWbuxddKAAnXMoeA7PTcxqnhkZlbJA/I5OTJcPyd5i7G01IACdcxd4D4zineyMgz4ZGZWyQOSO9SqzV+AxFtNHczeksdQKKPVpwebJ0wxcwbO/WxG5NWOhVAepdaUxO/BnOip8N+YgkgZqVkJSBEO7zh0Y+bRaTXKjVABlq3n8jk7NJzLz5rAcRMSxsBIfZPmq1f9axZRHqtUgNk7izSzGxvkX6ApLlSoV56srfut8pkJlNuDfb4iKJiqoDMPdUavxOgy6M4bdJ2OUBM+pI2cwpkAMidnttYn6b+qQMyB0n6j34FkPjLKmVAEn+ku5RCmQAy0Nq0hqkavB95d/xpW7pHASR+pVMEZJ/j4BTd3aHiiDgTQALHK+3mZxzgsTiCUOlDAFFRSc8mLUB84Jyu2/iZnnfxWGcGSO9Sa7LpwkErnlD69yKAxK9yOoCQ67mjU/F7r9ZjpoAELg60m99m4Fo1d82tBBBz7ZZrmTQgBNwy6za+Eb/n6j1mDsjcTXs2T7bUZRLL9BXguzxXf0/BuP20ApD5J1v3A/h83AFKf7lU4AHPbVxkg+fWABKIUW1PbCPwOTYIIz5kowCDHuu4o9YsY2sVIAJJNkVpy6i2wRHoYh0gAokt5ZquHzbCYS0gck+SbnFaMJo19xyLtbDyDLLgpDzdsqB0E3fBjqdVy4VpNSCB02m9J0m8DmSAQxSw4T1HWFqsB2TucmtiGOB2WDDye44U8FH3RhrW5zQXgARpn/92K9heIbUPHHNUbnlydZ8PDGb1bZWuULkBJAhsfj/EaRtWSdEVWux7Cuwk7nxptr7h+bzokStADty8NzcDuCIvIoufgQJ234zn9iZ9OceznL4rBa+pQMrTZDW962ueyzPIQkS9hSCcyuYsV0uJMxmF64toB/nd9WktsJCEfrkGZEEQG9bdSiI5ee4zrXWrktaoEID0HgXPreB4u9zAJ10yof3vhO9clfSKh6FexGRQGEDeOptYtGB2TDnKTTdJLySdhRCFAyQQsbf1Ale/BcJgFqKWbkzGlgp1vpnUFgRZ6llIQN46mwQ7XVWc62zbDi7LhMc6NtGT3PVvTmJnp1j9jNBZoQE58LRr4mJ2+Gtg+3bfjZC7LJvuIqbvxr1hZpYBLTd2KQBZCH5+H/cxACfYmIwc+PQcGONx7kNue8ylAuQtUNrj6wDnOoCPsz1BdvhHLwL+zZ47ttUOf9LzopSALMhbaY2fTUTrCbBmDnR6qQ8fiYFtzLy5Wx97PNy6mBalBmQhpcFHkNzFJUy4FMARxUy1clSvE+MequDeLJb6VPYyJUMBZJHQA+2JtdxbfogvTCkHlgxDDxLwwKw7+rAlDlnhhgCyXBomJ1fWKt3zGXQuMc6zIlsxO8GER6jLj3qoPISRkZmYuy9EdwKIShqnp1cM/PX/Ps2ET4HoTADHqjSz0OYlANsJ9IvZw1Y+jqGh/Rb6aJVLAohBOnoTtxinw8dpcHA6GKsMukm+CWEPfDwFB087hKfknkJfcgFEX7NDW9xx25GVTvUjRPgwMZ0IwskAVsfRtUYfu8F4homfZcbvu9XO73Dl1a9ptBfTJRQQQBIsixWt1uoO+ccS6Bgm/kdifi8TjiLGe+bn1qu+sHwOwD4m/IUYrzLRn8nnPzHRnio7L++v13cnGEapuxZASp1+CT5MAQEkTCH5vdQKCCClTr8EH6aAABKmkPxeagUEkFKnX4IPU0AACVNIfi+1AgJIqdMvwYcpIICEKSS/l1oBAaTU6ZfgwxQQQMIUkt9LrcD/A2HZzn0wxXlVAAAAAElFTkSuQmCC;fontFamily=Times New Roman;" vertex="1" parent="r26zlcC6nCp4phhId66P-21">
          <mxGeometry x="8.474576271186441" y="148.96551724137927" width="57.495462794918346" height="57.495462794918346" as="geometry" />
        </mxCell>
        <mxCell id="r26zlcC6nCp4phhId66P-31" value="L/U" style="text;html=1;align=center;verticalAlign=middle;resizable=0;points=[];autosize=1;strokeColor=none;fillColor=none;fontFamily=Times New Roman;" vertex="1" parent="r26zlcC6nCp4phhId66P-21">
          <mxGeometry x="17.22372881355933" y="206.46241379310345" width="40" height="30" as="geometry" />
        </mxCell>
        <mxCell id="r26zlcC6nCp4phhId66P-32" value="Charing Area" style="text;html=1;align=center;verticalAlign=middle;resizable=0;points=[];autosize=1;strokeColor=none;fillColor=none;fontFamily=Times New Roman;" vertex="1" parent="r26zlcC6nCp4phhId66P-21">
          <mxGeometry x="-7.78" y="-10" width="90" height="30" as="geometry" />
        </mxCell>
        <mxCell id="r26zlcC6nCp4phhId66P-33" value="Machine1" style="text;html=1;align=center;verticalAlign=middle;resizable=0;points=[];autosize=1;strokeColor=none;fillColor=none;fontFamily=Times New Roman;" vertex="1" parent="r26zlcC6nCp4phhId66P-21">
          <mxGeometry x="104.99898305084747" y="-10" width="70" height="30" as="geometry" />
        </mxCell>
        <mxCell id="r26zlcC6nCp4phhId66P-34" value="Machine2" style="text;html=1;align=center;verticalAlign=middle;resizable=0;points=[];autosize=1;strokeColor=none;fillColor=none;fontFamily=Times New Roman;" vertex="1" parent="r26zlcC6nCp4phhId66P-21">
          <mxGeometry x="205.95440677966104" y="-10" width="70" height="30" as="geometry" />
        </mxCell>
        <mxCell id="r26zlcC6nCp4phhId66P-35" value="Machine4" style="text;html=1;align=center;verticalAlign=middle;resizable=0;points=[];autosize=1;strokeColor=none;fillColor=none;fontFamily=Times New Roman;" vertex="1" parent="r26zlcC6nCp4phhId66P-21">
          <mxGeometry x="205.00338983050852" y="206.46241379310342" width="70" height="30" as="geometry" />
        </mxCell>
        <mxCell id="r26zlcC6nCp4phhId66P-36" value="Machine3" style="text;html=1;align=center;verticalAlign=middle;resizable=0;points=[];autosize=1;strokeColor=none;fillColor=none;fontFamily=Times New Roman;" vertex="1" parent="r26zlcC6nCp4phhId66P-21">
          <mxGeometry x="104.9984745762712" y="206.46241379310342" width="70" height="30" as="geometry" />
        </mxCell>
        <mxCell id="r26zlcC6nCp4phhId66P-37" style="edgeStyle=orthogonalEdgeStyle;rounded=0;orthogonalLoop=1;jettySize=auto;html=1;endArrow=none;startFill=0;fontFamily=Times New Roman;fillColor=#b1ddf0;strokeColor=#007FFF;" edge="1" parent="r26zlcC6nCp4phhId66P-21" source="r26zlcC6nCp4phhId66P-25" target="r26zlcC6nCp4phhId66P-28">
          <mxGeometry relative="1" as="geometry">
            <mxPoint x="143.86440677966104" y="82.75862068965517" as="sourcePoint" />
            <mxPoint x="143.86440677966104" y="148.96551724137927" as="targetPoint" />
          </mxGeometry>
        </mxCell>
        <mxCell id="r26zlcC6nCp4phhId66P-38" style="edgeStyle=orthogonalEdgeStyle;rounded=0;orthogonalLoop=1;jettySize=auto;html=1;endArrow=none;startFill=0;fontFamily=Times New Roman;entryX=0.75;entryY=1;entryDx=0;entryDy=0;strokeColor=#FF6666;" edge="1" parent="r26zlcC6nCp4phhId66P-21" source="r26zlcC6nCp4phhId66P-26" target="r26zlcC6nCp4phhId66P-25">
          <mxGeometry relative="1" as="geometry">
            <mxPoint x="245.8983050847458" y="82.75862068965517" as="sourcePoint" />
            <mxPoint x="245.8983050847458" y="148.96551724137927" as="targetPoint" />
            <Array as="points">
              <mxPoint x="241" y="120" />
              <mxPoint x="154" y="120" />
            </Array>
          </mxGeometry>
        </mxCell>
        <mxCell id="r26zlcC6nCp4phhId66P-40" value="" style="group;fontFamily=Times New Roman;" vertex="1" connectable="0" parent="1">
          <mxGeometry x="800" y="280" width="280" height="240" as="geometry" />
        </mxCell>
        <mxCell id="r26zlcC6nCp4phhId66P-41" value="" style="shape=image;verticalLabelPosition=bottom;labelBackgroundColor=default;verticalAlign=top;aspect=fixed;imageAspect=0;image=data:image/png,iVBORw0KGgoAAAANSUhEUgAAAMoAAADICAYAAACprX6jAAAAAXNSR0IArs4c6QAAGX9JREFUeF7tnX+MH8dVwN/u1XFjpXVEQnV3AsUWpRWqSlMaf5ukFNtUiEioLZGo+kO0toUQpRWFSoDu3NCzofjMH0ioQEEC4XOliCiNREL/aAj9cUZNE18EGEoRVQO5isbfL5GjOMQ0SpT7Lve+nj3vd787897Mzu7O7r6vFEXJzc7Mvvc++2bezLyJQH4igQolMD8/fyiKopUoijbH4/HJ0Wi0WWFzlVUdVVazVNxrCaSAAMChjCA2kyQ5NhqN1tsmHAGlbRoLvL/z8/P7oig6kwNkqtdRFK21zbsIKIEbXlu6h4DEcbySJMlRZp/Ru+BQbI1ZvtFiAkqj4u9G44uLi2csAMm/9LoajgU9dxFQumGrjbzF/Pw8TtJP+GhcwRKsdxFQfGi5Z3XMz88fxUgWAOzz/OrBehcBxbOmu1xdhYBMiQ29y3YwYD2kULKAEoBlowECwC1pV+I4nnypx+PxWQDYbNpgFCBHTJEsnRiTJDkxGo1OqnkMhoq5Xigo7yKgNAQKrjPEcXwkSRKO8aDRVLb2gIasE4PrRB1DwBcvXkTPsPNTaysYOubCAggaAJxt+mMhoNQMCmedoeYuwXA41NrBwsLCUzaGzVkjUUEA9KJcYBr3LgJKjVapvqhfq7FJVlM+QOEAUtK7bA6Hw/2sF6qgkIBSgVCLqvQZSvXd5ZKg4NceFw6dhoZc75IkyWHXNnzIS0DxIUWiDtdxfg1dmzThCoov42UMR9eHw+HhuuRR1I6AUrH0Q4ekDCgmwFzEqgk/NzrkSt9DQHHRKPMZG0jUGP8choNV9QejKMKIWHb3LbNlu2LYtu4J09YU36BgH/LeJQ0v272R/9ICin+ZTmrkQkJt3eCGVNUinXa/lNrRy40ysaRSBShpw+hd4jg+mA8xszpWQSEBpQKhMiGxOptBhWkp4KjnXcRQJSgu/anyGQHFs3SrgCTtImHsxgmvgFJO0QJKOflNPV0lJGr8btytmyTJft0KtoBSTtECSjn57TxdNSQcr9I1UHBi3/TWFYl6eQLEYuJuNSfRdY8Ach2TOBQ9W+JglVZSVc1RMpGvfWqtpvFDXeJRSgJTlydJu8lsz+qt0Bh1D5iiZVWAotZScOPk5CfhYStVhlmYabRePEkqgSq2wriuzPsExbQ6bxpS1mUZ4lEcJd0EJBbDPKu3cgXFdiOkrlMM+PFjg3u9GhuCCShWJnW1cFOQYNsLCwuJQ5eNj7iCsjPRdUw/pMn9VdjXpodgAoql1TUJSVXb9MuCkplPsI/wMrxIXjON7vkSUCxAaRIS5U2sDlFxX80XKKq9Sb4u3Zl3Gy8S0oReQGFaUwCQ4IEv7QbJ9Mgs83WmipnG/iUSSswAw5Rhtm+lzrq4yEL3jIDCkCZTwV6jW9luLSwsGCHBHcdVn/7jHrAqECca+1nb9EZNz0ny7yGgEKC0ABJca8DE17Ukj3PIpsL4FE0Vafx8fFGHBRSDGtsACc4F6j79l8kzzMkgwwalTuDZnVIFBRSNxFoCSeVDLpNBZVIucRNz66oL0otkOyugFKiuLZA0vQiXis4lkpWJaDWaNILrWQSUnKSYkICvVem8ohgTd3ykssAB13CKytkAU5Qgr0zbVT8roFw9p22TtTGvkzSLY+lshm2GJCsU4vhykJBToPUaFEaaHEp+U38v42W6AkkOmKms923zIjJH4e/XsgIlM+62ypfbRUjywKhk405J8pyU4Pmh3nkU317EoA9WJKfrkHi218aq6xUoVW0qNGjPuD1cIGnM7q0b7g0oHiDBsxBOebGKDh4JJNa22ugDvQDFFpJM1saZW59w6IbAZPYuseDJwiKQNGrzTo13HhQ1J8Ht6eTPZSOexd6nyTCMuoNddbKVIVRSwC0u0HlQmF/vUvulLO5Y5wzfBJIAgeo0KJxTdC5eRKdHTnuEDQgkAUKCXeo0KNT5cl/3e+TWDFzvXhdIAoWk06BQX3efniSvX6rtAnsQSAKGpNOgELl2ye3puf1fqRrRoHF1mdzXZZHrVyAJHJLOgkKFg6khF2cHMXWtM9UHiW61gI5MFzs5RyGGPtoIl8P2Fmrl3ZQ1RTxJi1jpJCimYY/JmzBDyVPqNe0YzufRzdtFlfOkFtlgK7raOVCIBUbt3MRhAr6jYNNZb2quIrC0gpPuhYdNoJjOQ1ChZEKd2uEcx0sJLOHD0kWPgoeFdq4NyKpAZ5A221x0KtVlXOcEBrBOgSVsWLoIinbBzwCK6yIhOfyyGdIJLOHC0kVQTB6lMFGcjTEbPIqXugWWMGERUK4ml9DCxVWbbkLvAqHAwpV6feV6BYpuMs9cHDRqpewcRULH9Rm9S0tdBOVQFEWY1HrmR0S9ylypoA07c6JehuHcidFohFcoyK9hCXQOFJSnKdSr+/K7DJFS3ZWIppHnU2QY1jAhqvmugqL1DsTKvItXMW2JMUXTcAvL2vZ115i313icWGBpHpZOgmJauzANv9R6Cg7bWOfgqUzypmFXavzce0cElmZh6SQo1OTcdB0z91gvZbiMPuwkpxZYmoWA03onQVHzFNMwijwjX3AeBTOvrI3HY5xXnBuNRsash7bnYQQWjrk2V6azoFCTc8ojlFEJtW2F2CEgc5Yywq/o2c6CwvAqleyvYixeGk9XimepyNJLVttpUCivgrLz6VmY7ZEX5wgsJa26gsc7DQrHq2CZMtc1pDphLiySc6O0PoGlAmsvUWXnQbEJ+eJ+LQz5mu5dz8ua40XUM2RCC03dMmcpYeC+Hu08KCgo7tc5I1S8sgG3jmCEC7LgqNzDeEPXwSRJ2Jd8UgktdArl9t3nENKXcXWpnl6A4ghLVs8TYCwWIqdsxBUSh2FYbffNdwkCzrv0BhQPsHDkOVOmLCQOsOy3GTo6vVQPH+oVKAoW3F2MR4W521RczcJ7OiLmMMyYQsn1Zfr+XO9ASRVOLQqWMYwqL/XkwCLzlTLaK362t6BkvMvKdqTrkA/R+ggzc/rBhEWGYBxhMsv0GpTM+L/UcKwuQLI6pcLSVXo1pm11qpiAotRps96Cay3bO5DP2q65+LYcChbTLmnffel6fQJKRsNcWKgE3XUaDZE+VsLFnpQhoOQE2TZYXBOSe7Kf3lQjoBSouk2wUFkuZfjlh2UBRSPHNsFCHDmW6JcHVgQUgxDbAotpTciUad+D/fSmCgGFUHUbYDEdFhNQ/LAsoDDkGDosBCiSRI+hY6qIgEJJyHKdpYnQsSnyJdtZmAomigkoFnIM1bMIKBZKdCwqoFgKLkRYOIn2LF9TiuckIKA4mERIsDDWUWSO4qDj/CMCiqMQQ4GFsd9LQHHUcfYxAaWEEEOARW4dLqFAi0cFFAthFRVtEhbKm2B/JepVUsHqcQHFgxybgIVKAp6+loDiQcGY+81PNVIL5+uOUvJxyIsLiXgUf3YpoHiSJRcU1Rwe/MKzImkaJHYvGLmNp+oSj8IWrbGggOJHjmmSvRM21dms4isvYn2+X0Cx0Yi+rIDiR45OoGSaTo8Wo4fZRE+Ty0iJyS+c0isJKH4ULKD4kWNZUDz1YrYaAcWPaAUUP3IUUDzJMdRqBBRPmiEm8+Q12WW6gZE0XcJw8ShlJHvtWQHFjxyNHkVdJ3EL56psy+6kWffxfklMEzvzE1AsJaopLqD4kSMJymg0WsvcOOw8OVfdxfzCJ7FO/G85uOVJiYZqBBRPMibOhEzl13IFRi1W4o3EE0DSn4DiSYkCSvWCtAElZ+Rp3uODcRzvS5JkEgbeHqZNFiPVdd3fzcMhoFSv02wL4lE8ydsVFB/Ni0fxIUVzHQKKJxkLKJ4EGWg1AoonxQgongQZaDUCiifFCCieBBloNQKKJ8UIKJ4EGWg1AoonxQgongQZaDUCiifFCCieBBloNQKKJ8UIKJ4EGWg1AoonxQgongQZaDUCSoFi8DRh5qDULbhiTulPrajrbhdeT1faqXpc/k60vRlF0TpVr9oBgMW+i4fH0gNk1HN9+buAojYVxnF8MEmSspsVu2Y3E8BwA2bfwektKOg14jg+ojvH0TWL9/Q+k239o9GI9FCe2gummt6BovZFHdm++lo3TApGOQF3JIjrw+uUT29AUUnq8HCTAOLPwpzTLvnrQj019QIU21xY9Yi+O63YpF1q61t3GhTxIrWaZae9S2dBKQOJOkmIIVIMleLPOqNjrSbqrzEMg+PZ/jT6R4bF80139V77ToLiAomPnMD+7DWMmtL1pCiKMEMlG5ouwlIKlNzCXBXaxayJVqFIS0gm0RvTMdsqXqqNddqmdHWBJUR7SnVVChTqEhsPBrE+HA4P29Rjus8wW4+k8bGR6rWyKjDC8jC2sHB159bzyVPW9tRJUJgZ5Xu7aFbCwGYeXVxcPMNYrMW0Soe5WfsFFHcNsb8AzDtD2PW5d7k/T3I+TDaeW0Bxtx2WYVM346rmWXW5d7WfTypYjpom+8qrkHNNAcXdhljGzRgGsOpx72a/n2R4FtYQTEBxtyPSwBneZHM4HO5374I8yZEAZeTqhrGpDJf5eqk6OP0gypD2pHu+sqiX2tZAvpvKjoiuu+hHvhj1NeO6fbKjUoCUABEFJb2KCRSuPWEnoyjS3XxG2lPtoAyHQxaEhEcwvhjlTWwmkqQVSAFSAtSeOsqrmEDh2hN2cmFhIXH98HYVlBXD10OGXKRp+y9AeBXjh09AMeijjEcxfDnwVN6J0WiEJ/PkV6MEqDC9aRFSQKkAFGrYZeOqa7SjXjRl8iqm4ZeAUg0o2mGXeJNmeTQFWHDz6cWLF48V9TBoUNRGNCfJRlH0Nd2DGG1iVqq9Vg335qjEBjNVqavYCne0qgjJOWb7UqwCCbjYBqFTrj1h1Etnl1p7Molga2vre5FpnF+B/KRKkUDrJBBF0YcElNapTTpctwQElLolLu21UgICSivVJp2uWwICSt0Sl/ZaKQEBpZVqk07XLQEKFFZy57o7Le2JBKqQgCnROQmKbE+vQiVSZ4gSMG29EVBC1Jj0qREJCCiNiF0abZsEBJS2aUz624gEBJRGxC6Ntk0CAkrbNCb9bUQCAkojYpdG2yYBAaVtGpP+NiKBzoOCJx1zydcmVzRw03g2opWON9pGnXQKFMzyYXl77+TaanU1NGat78s9J7WhmOoEG2TeqpzeNIz/Pmd7W0FVL9Z6UDxfToon3FBBAk0Ji8t8sHT52GxqD0InrQWFkSbVRhlFZTt9lVpZ4RQ9TyUb9NBmYzcNtA6UGgDJ61OAISy8BkCKdFLrffatAYXKB+Xha2Wsog8329rKUOkErxxnX0tn24apfJ06aQUoNSRn5upPvIuSVANeRKcjMmcxV7mmckGDYnnfYuE8A6Na2T+ocwX4v/JhY7Y8qRy57IpaWNCHTvC1s3rxpJNKM38GCwqV6VFjY5PLSTHfFyfUm+Ysy9xqyx5C9BEWR0hSnbAupk11EsfxEWY4eccUqkxsGCQotvMRX1dbc26HynmnSr9iITkcW0iUTjDMTt6kRQx5jtpcz10VLMGBYuNJbABRq8GsFXkbYKpSTICQPMXpk61OOJ4f27W8bdj7Byw4UJgTd5zAHSv6WmW2RxzcHgfr7g6czFu2x8Z4w1Ph6i/WE8fxCuNmW6xnP1fhHGMLrUwoOkG5cJcHfF8QFRQoTIUU3qFhY9gFhojgrRVdA8H0LrVEXpoAiBndClEnXj9gwYDCUUhRpnPlQY4YLgyysa9CYDjrBaYs7DYdCKksZ66o0wnXGzPe11knAODtAxYEKJx5iUYhONHDBS+vv2TPrkvPf3Tway/+1gP3pRVzPEvXImHE7VgomhlPwvnguShrfMPuy5d//c7jL93+hi/AbScuqXnLIVOGezW89jJfCQUU0xVyhQrhjlVdlILPbL3uBnjxnfsuv/CRtz0IEZyFA6fXGUbg7Qvm2m9fzzHedQYS5tDZuYuok+//9Ovhygff8iWIor+CA6sPcLy9jzlkGVBwDFh44YutJAivMHPXYtUKyfb/hQ/cClc+eCtO/ddgC07O371mHOapqE/r715ph07gUYjm7pl/919i4EZ30y8ubq6Nx+OyOrlF1waV18uWB6fy+eiFNSRz8ffGr9198ys/tPfV2IG5/7kCc89cserLNVhgE6JkbeE9Z3XRNKt621q4tE5eFT89fs3umzzpBMW4svDeNfxosxeMfcq+cVDyaxSM4UD6/pMJ4Eu3Lnz7ud+961e2x9KHsoJBUK775hB2f+sZuP4r3yFlhi7/8id+El5+8/yk7J5Hvr22908f83HWgmw7tAJ5nVgMgSc6+f7PvuHS/378HZ/CW6x96mTXU8/df/NvPDRoApamQZkacnEiMFOTt8eW9sFcRC6SITTXf+VJeM19F4w2ibA8+/t3TeYu+Ltp5ZEnr7tw8fWhGXLV/cleEsvUybWo1cbSAYjiRyBJbjT101Une//k0Qt7/v47OE6u9dcoKPkvFyMCM70IubGM9/RNeRKT9NCz3PjZR40CfvFdPwqXP/GOSZnrvjmCm+55uFaFNN1YgU4Sok/Xghv/sPyD8Gp4DAB+hPseN/z1BfIDltUJAnbzJ7/4fHzlpb3cNnyUaxKUvDehwsDTEZiNpTMAk1V5qx8K+nW//ID2mfwQDMHiDN2sOhFw4Zw3sYtUnl/+AkTwC7av1wadNAaKpTeZjoo9sXQIEv1txJSiKE+B85RnP3NXH73K1MeIuAR3Wifnj38IouReSva6v1PevmlPPwEFJ9CuL1jiuZ3kDmoznHZRcWZPj+WQq6iPlMtHUNKJPZbd9R/PPLj7n582T3JKCCOQR3f2xFnr5Inlf4EEfrzMe5h0kp8/TnTyn5ce3r3x34+XaZP77NbW1r0Rt3BV5UxRlcJtIxvL1LiZ7Cq6+5s+9bA2jJwJF6d1bcJgdT9ZcUcKmEL0Mzp5bPk9MAcPlX11agiW/Xiptv4dBqtvKtsu9/nGQTG5+JkV143jRwESL1taTO4+O/zaEWSUHMbVe65g21zOSifnlz8PEXzYx/ta6ySBO+HtqxhAqPzXKCgmF6/xJhgO9rLoZPqCoat/5i9y89IoOQEHTp+sXCMNN2Cvk6UhQHR1Aarkz1onAL8Dg9XPlGyW9XjbQCk97MpKBcO/OLkv+iEo6ZqK+vs6DFYPs6Ta4kKmRd+ZTaHMtSwbcVjpJIIH4cDq3Tb1u5ZtGhRtCLIOpZjCvwVj4l6AYpozzgZWjr8LIPmyq/EVPWepk3+Dweqbfbavq6tRUAilTJ8qLBkWLhKAKdJSAEovJvRWOtlYej9AtHNUwYfBWukkgufgwOoP+GiXqqNRUEzRlZmJfAWgmCaPuEKP8fup32C1UXlRyvTxdyudPL78YYjh8z7aTeswgTKjk76AYuXmKwDFSikAvfAoBCiHp/IYnF96H0TR/T5BMQ29Cj5eQxisLvpsP8ihFzFxnFZKBRNHy/FwL+YoVjrZWD6IpyB9GqpJJwUBlgswWH2rz/bbCMrsEU8Pi41ZQeC+L93ZlVmlJGswOO3lIFsdinVtgwBlWif/9NuL8Mrc065tFT1npxO4Hwar7/fZfqig4Jlo3AVc9Js5+Qgetq9kG1p4L2YzKv4NH8rvuYyOweCU/oE6tFVDG8TW+iKd/Nf2fTNedi1Qq/MzOomj34TbTv1hDWKBRienVNKJgnCkt5V50/wkuwlvRwlbyX6443Tnb+yy1sn5438GUfJRH8ZqGnYV6mQuegu87dS/+mibqqNRULBzxNHf6e31HucpJm8yO2nsx7ArNRYrnTxxzyFItnSjAsr+pv5up5PocRicusOqgRKFGweFOkU3s/DoeBYlKyPT6i+Wm5mf9GifF76/9e7hjePnAJKfKmGHk0Nyul0ShTpJ4Ci8fRUTttfyCwGUfSojiO604nSKoJJehTqPUuDiexHtylqbGn6hl9Dtq5vWycbSXQDRl1wtljr2MKuT6BswOHX1KGpNv8ZB4XzBZjICPrG0Aok+fY1OdhQk4k2uSY7yKjM62Vj+HAD8qq3dOulkPH4n3P4HX7dtq0z5UEChvAq+I37F8F6/NZh4FVixOQ5MfbWwgZkvV8+GXAVeBY80mPIS5D3LowDRnVyD5Ohk5mxQBJ+EA6t/xG3DV7kgQFFeBWGhsqpsRlG0Ph6PT47+5ijA3CTdqjHBBIYcb/zs143jX2x/Zmt9T7bVmwyJmj+qZydZWCZXkv/tL21BlPwdJMmPmep11gnAaRisLvsyfpt6ggGFOQRL320CzMs//NpvXfrjn39T3rOk6XD2fPVJdjK8qU2QAsmODdnkWrumk7txEfC2rCGW1glEvweDU5+2MW6fZYMCRcFCZf+YeX9M8Jzs2XWjbYbItKIMJJgp8lhfTjJyDckClp0qx3uvv5LsnrvBg05eBICPw2DVy8lW7jvny4UICkZafF3zQMplZ81EvIhWVp6v3uDrBOBeiJJPw4HTuPrf6C84UFJpuHzFbCSJc5LnP3bH6KWfWPxzeAXO9mHV3UY+RWXr0Mnlj9357MtvXbwPxskZuP30P5bts6/ngwVFDcNMe8GcZZBc96rR//3cG9/3wue+XGuI0bnDAT3ICBs79Ta5ftel0X2/+DMwOBVkWqigQVGw+ByKaa+oc9JuTx/yPBS7FvYPWJ7Bg5IZiqXAYDiYnXNYPS+AVGCEGWA6r5PWgJLVs1LQoTiOD27H8BGg9J90dy+CMTlQVHTBaQU20/sqU51sr4UdUcLolE7+H7a+9Ge51wQpAAAAAElFTkSuQmCC;fontFamily=Times New Roman;" vertex="1" parent="r26zlcC6nCp4phhId66P-40">
          <mxGeometry x="57.22745762711866" y="112.59448275862067" width="21.776406533575322" height="21.56079854809438" as="geometry" />
        </mxCell>
        <mxCell id="r26zlcC6nCp4phhId66P-42" style="edgeStyle=orthogonalEdgeStyle;rounded=0;orthogonalLoop=1;jettySize=auto;html=1;exitX=0.313;exitY=0.978;exitDx=0;exitDy=0;entryX=0.25;entryY=0;entryDx=0;entryDy=0;endArrow=none;startFill=0;fontFamily=Times New Roman;exitPerimeter=0;strokeColor=#007FFF;" edge="1" parent="r26zlcC6nCp4phhId66P-40" source="r26zlcC6nCp4phhId66P-43" target="r26zlcC6nCp4phhId66P-47">
          <mxGeometry relative="1" as="geometry">
            <Array as="points">
              <mxPoint x="27" y="130" />
              <mxPoint x="125" y="130" />
            </Array>
          </mxGeometry>
        </mxCell>
        <mxCell id="r26zlcC6nCp4phhId66P-43" value="" style="shape=image;verticalLabelPosition=bottom;labelBackgroundColor=default;verticalAlign=top;aspect=fixed;imageAspect=0;image=data:image/png,iVBORw0KGgoAAAANSUhEUgAAAMgAAADICAYAAACtWK6eAAAAAXNSR0IArs4c6QAACyZJREFUeF7tnQuS3LYOReWVJF6JPStxvBLbK0m8EtsrcXaSDKpbZU27pwUQVxQ/R1XzkrwmKeICRwD1fbOwoQAKvKrAG7RBARR4XQEAITpQ4IECAEJ4oACAEAMoUKYAGaRMN3pNogCATOJozCxTAEDKdKPXJAoAyCSOxswyBQCkTDd6TaIAgEziaMwsUwBAynSj1yQKAMgkjsbMMgUApEw3ek2iAIBM4mjMLFMAQMp0o9ckCgDIJI7GzDIFAKRMN3pNogCATOJozCxTAEDKdKPXJAoAyCSOxswyBQCkTDd6TaIAgEziaMwsUwBAynSj1yQKAMgkjsbMMgXOBOSvZVk+LMvy5/WvzII5e/27LIv9fV2W5fv13+dU4mCrzwDk07NNnw+2a6bhDZCPQHKMy2sD8vezIy1zsOkVeLpmE/3IE49YExADwwBhO06Bt2QSrbi1ALF1xk/t1BntjgL/XMstxBEpUAsQ1h0ihzmGIYs4RPI2qQXIt+f6+L13UrRLKWALdsskbAIFagHyn2CuDOFTgDLLp5OrFYC4ZOqq0SiAWMVh18ky23qdqHgMACmWrtmOowCiOOuZLjcBpNk4L54YgPySDkCKw2jcjgACIONGt8AyAAEQQRiNOwSAAMi40S2wDEAARBBG4w4BIBMCYs8+2G3dM2zZu50BZEJARnG6B/DsXQejaMV1EE+0XNuM4nSPyQByUQlAPNECIAGVLk1HOZgASMD1ozjdYzIZhAziiZMXbQDEL9koWpFB/D4fpmzwmEwGIYN44oQMElaJNcitZNPcrDhK2eCJeTIIGcQTJ2SQsEpkEDJIYdD01I0MQgYJxyslll+yUbTiLJbf55zFmlArAJnQ6R6TKbEosTxxwiI9rBKLdBbphUHTUzcyCBkkHK+jLDw9hgMIgHjipLkSy17AbQ9uHb3NAogtwt89ENP0zr6udu/jQj/2XtPay3uxWsgg9n5h+wbH0dssgLTwrZjduAIQX7ivb6evoReA+HyiaAUgAhW33zYBEIGg1yHIIBstez4qbj/dACAAolNgAEBuP/wDILrwIIN0Dsi9z8YBCIDoFOgckHtfxQIQXXiQQToG5LVvKgIIgOgU6BSQR1/kBRBdeJBBOgXk0QdHAQRAdAp0CMje56oBRBceZJDOAHlUWq2mAAiA6BToDBDPt9wBRBceZJCOANkrrcggOjDWkQCkE0A8pRWAAIhegU4A8ZRWAKIPDzJIB4B4SysAARC9Ao0DEimtAEQfHmSQxgGJlFYAAiB6BRoGJFpaAYg+PMggjQJSUloBCIDoFWgUkJLSCkD04UEGaRCQ0tIKQABEr0BjgGRKKwDRhwcZpDFAMqUVgACIXoGGAMmWVgCiDw8ySCOAKEorAAEQvQKNAKIorQBEHx5kkAYAUZVWAAIgegVOBkRZWgGIPjzIICcDoiytAARA9AqcCIi6tAIQfXiQQU4C5IjSajXloz5OfhvRAiez7b7SPzO4sC8f0DkJkCNKK2FcPBzq8/Ov9pfZegFkz0Y+A72n0OZ3r9OPKq0CUy1uap93e7ssS8+fiig2/k5HAAmo6QHkyNIqMNXipgaHQQIgFwkBJBBKHkB6L62+XPUAEAAJoHFpugfICKXVKgqAAIgUkFFKKwB5GRaUWAFMHmWQUUorAAGQABIvm74GyEilFYAAiBSQ0UorFSDFIt90tDNq9mfb12VZvm/+W7WPR+NQYgVUvpdBRiutWgPknnsMEjvbZv88egOQgMK3gIxYWvUAyDrHGqAASCEgo5ZWPQGyztVui1mv3wTc6WoKIC6ZLo22GWTU0qpHQGzOBomtUdb1SsCtD5sCSEDJFZCRS6teAVkhUWcSAAkCYg74GejTWtP1Xqu9eWWvpO+Nf9Tv6nILQAKesgxia4/3gT4tNY0ET6+AmN7eg4DHNwDiUenaxs6aWJ175Pbuegepeh/rbezecXsGxPz05DV0px2ABITcu1kxMNSrTRUOuTd49KjaMyBmvz11af7Kbgp/pOdS47PGJlTW6b0CEimt1oDKapUNzGx/VRYBkIAnegQkWlqNAohqLQIggwMSLa1GAiRd2vBEYYAOxwNTsdHut1YcsdaRS0qrkQBRZHyFP9Kgsgb5BYvCITZaaWk1EiCKdYjCHwCiSB3XMRQOUdTfvS/SFQcJG0PhDwBpDJBMaaXKIJbBsrej2wVZuzCb2bLVCYAE1FfUtHu7yzokW1qpAFFopXgtKIDsRdzm92zZoHD63nSzgJSetbqdVwtaAcjVK1nK94KupaPi3lwzgChKq5a0AhAA+Y2XUkBUpRWAvHRJqT+2o7BI30sLgd9LHaIqrQAEQALh+rJpq2sQZWkFIAAyFCDq0gpAAGQoQNSlFYAAyDCAHFFaAQiADAHIUaUVgADIEIAcVVoBCIB0D8iRpRWAAEjXgBxdWgEIgHQNyNGlFYAASLeA1CitAARAugSkVmkFIADSJSC1SisAAZDuAKlZWgEIgHQFSO3SCkAApCtAapdWAAIg3QByRmkFIADSBSBnlVYAAiBdAHJWaQUgANI8IH8c+FFKr/G81eSiVOkj0FudeSbdG3WOdvaytOwL1xy72W0CIACyGyS3DWo8kx6e1EEdAARAwqEFIH7JFFrxXqyr3rw4zh94tVqSQcgg4VhTHBXDOz2pA4AASDj0AMQvmUIrSixKLH/EVW5JBiGDhENOcVQM7/SkDgACIOHQAxC/ZAqtKLEosfwRV7nlKBkke8uO4kr6U/biL6d5K0e/Y3cAchHp0/P/2F3VmQ1AMuo12rcFQBRH7+x9UN+ej/52+09mSyeA9ADO2bfgdOdUT2/WglYKQDKfgrYPiP4UeCId3+kBnEa04HTnVE9v1oJWduS2I3h2K33wTJE9JM/1AEg2BPT9WwDErLIjePZT0DZOdLGuWHvYfkvhfOFRANEHeHbEVgBRnOo1LexIbusRz6MEKjgAJBuFDfdvBRDFOmQrs12f+XIF5lZ+29cHwaJ8O67k4K8YxOpVM+7RZgJkNjsKeY5AmX200reGVnZE39tUC+Xb/ax+NJ/aPrJnqu7ZIVl/2MAKQNRHmj3H8XteAa/fVeuQ/IxjI0jWHwASE32k1l5AVGezamonyx4AUtNtbe3LC4jNWnHKtab1suwBIDXd1ta+IoD0lEWk2QNA2gramrOJAGLzUp3yPdrG7O0tv80vKtQ9A1mkH+12/fglfm99wa64zR9A9LHW5YglgNgpWVuPKK6uq0XL3Pf1cC4lQt0OSAZRu/v48Ur9rrzSrbJSvu7YTqxUqO0YAKJydb1xMn5vDZL0Mx+PZM8ItY4LIPUCW7WnrN8NEvP7meVW5B6vYt2yQtmOAaRY/tM6Kvxup3/t7NYZkBy25rj1iEIoADktzot3rPC77fyMhbv0QuCeggqhAGRP5fZ+V/j9dh1qZdeR2cRO436tfdOqQigAaQ+AvRkp/H5vHxYLalCsnLLb5E+5m1shFIDshWN7vyv8/sgqW5+soJRmlVMyBmuQ9oL1jBkdDcjWJoPl3ea5jxUY+6ediVr/rM+Pa6aw/6+JraZQTRjMJFAgogCARNSi7XQKAMh0LsfgiAIAElGLttMpACDTuRyDIwoASEQt2k6nAIBM53IMjigAIBG1aDudAgAyncsxOKIAgETUou10CgDIdC7H4IgCABJRi7bTKQAg07kcgyMKAEhELdpOpwCATOdyDI4oACARtWg7nQIAMp3LMTiiAIBE1KLtdAoAyHQux+CIAgASUYu20ykAINO5HIMjCgBIRC3aTqcAgEzncgyOKAAgEbVoO50CADKdyzE4osD/Jgbw9r1yfBYAAAAASUVORK5CYII=;fontFamily=Times New Roman;" vertex="1" parent="r26zlcC6nCp4phhId66P-40">
          <mxGeometry x="8.474576271186441" y="16.551724137931036" width="57.495462794918346" height="57.495462794918346" as="geometry" />
        </mxCell>
        <mxCell id="r26zlcC6nCp4phhId66P-44" value="" style="shape=image;verticalLabelPosition=bottom;labelBackgroundColor=default;verticalAlign=top;aspect=fixed;imageAspect=0;image=data:image/png,iVBORw0KGgoAAAANSUhEUgAAAMgAAADICAYAAACtWK6eAAAAAXNSR0IArs4c6QAACYBJREFUeF7tneuZHDUQReVMcCQ2kYAjMY4EOxJwJDgTmFp28bjZmatRqaRS6/S//UZqlW7V0e33vilsKIACNxV4gzYogAK3FQAQqgMF7igAIJQHCgAINYACbQrgIG260WsTBQBkk0QzzTYFAKRNN3ptogCAbJJoptmmAIC06UavTRQAkE0SzTTbFACQNt3otYkCALJJoplmmwIA0qYbvTZRAEA2STTTbFMAQNp0o9cmCkQA8lMp5f0m+jHN3Ar8WUr55gkxCpC/PEHRFwU6KfChlPLZsy8A8ahH3+wKAEj2DBHfVAUAZKr8DJ5dAQDJniHim6oAgEyVn8GzKwAg2TNEfFMVAJCp8jN4dgWWBeSt9wZO9swQ3xAF/hajAMiQNDBIVgUAJGtmiCuFAgCSIg0EkVUBAMmamRPE9Wsp5d3lWSV7uPRls4f7vix0fgggJyjEbFOwJ61/P4BxjPG3RUABkGzVtXg8BoY5R81mbmJXgVyPi9cM5GgDIA7x6PqjAh8vf5ozPLJlhwRAHsnmoa0VxPXxtWNXqbt+rXjnwXRofUfHoPqUVAEAcSTGCmIHQGoKuMU9XqS3Q6yfkx5qAQiASAVqAFGFpAbJ+uSDmhd30u9kFgf5VxzP4dWLvO5CUwQ2/g4gjcJZNwDpB0iNSzlS1dwVQJqlA5Br6VQhKZkBRCn0wO81lj7imBYH+Z40rxZ2km6XfLNtCnz3oeGsr5oASL9Sq1ndH7lBeIzMrmJZvjJuAOLIyi73QezZKbW6m6v/0XjZuwZAR5pcXQHEJR+drxVouRdi4NnhVdYNQLJmZtG4HoEkOxyWAgBZtBAzh20PK6rDT/tcp53gZt8AJHuGFo7PHns3UF42Oxm357rcH3weqAmADBSbodZTAEDWyxkRD1QAQAaKzVDrKQAg6+WMiAcqACAOsb2PVziGPn3XLFe5AMRRagDiEE90BRCHtjys6BBvka4A4kgUgDjEW6QrgDgSBSAO8RbpCiCORAGIQ7xFugKII1EA4hBvka4A4kgUgDjEW6QrgDgStQoglmR7OI/t/wr8cnlo0R5mvLUBiKNqVgEk85tyDvm7dFWv6AKIQ2YAcYiXpCuAPCdi54824CC3aQQQAHn60nnWjzLPNhIAARAAuUMhgAAIgACINmrOQbRGO7bAQXAQHGSwg6h//WYfjVAfwDuGzPsgjuVbvQ/CSfrYq1gR+QAQAHEo0N414hALQJ7zwY3C9sLM0hNAOAfhHGTwOQgOgoNkMQB3HDgIDoKD4CB6IeE+iNZoxxY4CA6Cg+Ageu3DQbRGO7bAQXAQHAQH0WsfDqI12rEFDoKD4CA4iF77cBCt0Y4tcBAcBAfBQfTah4NojXZsgYPgIDgIDqLXPhxEa7RjiwgHUS9Mtfx3Xd4HcVRnxNOjjnCW6hoBSIQAAOJQFUDaxQMQzkE4Bxl8DtKO6+2eOIhDVRykXTwcBAfBQXAQvYJwFUtrtGMLHAQHwUFwEL324SBaox1bRDiIug/Ch+OuKu1tKcUEidw4SW9XNwKQiHxwFas9xyUiIY5wluoKIJyDcA4y+BwkYsE6tYNEL6mWkHsb3+a9rQ4OMtlBouGo2T+AAIisk1lXsWRgAxoACIDIMgMQKdGWDTjE4hCLk3RO0vXih4NojXZsgYPgIDgIDqLXPhxEa7RjCxwEB8FBcBC99kU4iI1q/4btequ5afdFh3u3RcsY0c+DOac0rTsOEuggr2U1/JGAUsqIMaZV7OCBAQRABpfcWsMBCICsVbGDowWQZIC0fDTsWDPqhZwPl3Ojz4MLbdXhIgBR+WmpgfDD6qiT9GNhqImMKCQAqVc5ApD60etbqrpy5xxA6pOxU0sASXaINaL43KvJiCCTjAEgAJKkFHOGASAAkrMyk0QFIACSpBRzhgEgAJKzMpNEBSCDATHBH9nev/I813X/lo+M2bNedq2dTSsQAYi6D9KS09Nc5tUp+bHFx8uf9s74rc3EtI/PscUoEAEIn/3pmCsA6Shmw64AZPAh1qM5ApBHFevbHkAApG9FnWxvAAIgJyvpvtMBEADpW1En2xuAAMjJSrrvdAAEQPpW1Mn2BiAAcrKS7jsdAAGQvhV1sr0BCICcrKT7TgdAAKRvRZ1sbwACICcr6b7TARAA6VtRJ9sbgADIyUq673QABED6VtTJ9gYgyQGxj1/bS1P3Nj4CF0clgCQHJC717LlGAQABkJo62bYNgADItsVfM3EAAZCaOtm2DYAAyLbFXzNxAAGQmjrZtg2AAMi2xV8zcQAZDIj6aFhN0rxtWv5BixpTfeBO9e/xe8S8AGQwIOoLeD0KRe0j4t8fqI+hqZh6/G4f2PvUY0dX+wAQAOlSUgBSL6PSqgV0tfC6F0X+w1R9gl9rqZLu23td75bCUnvGQXAQVSNVvwNIlUxPjZRWLaDjIPX6y5Zuu31lBJV0GVSHBi2FpYbFQXAQVSNVvwNIlUw4iJJJWaHq3+N3HKReRRwEB6mvljstcZB6GZVWLYeKauF1L4pZrmK5J1JKCRer4RykJenHYSIKS5V1hIOoMVt+D885gLSk5XufEcU7YoyjCgCS7BALB7kNKoDc1gYHeWCBDxeLQ6z/FLDvAdiiNnsLzzmHWL4Uj1jdR4zBIdaNOgAQAHlNAc5BOAfxkfHce8TqPmIMHAQHeTpm7v0trRHFO2IMAHEAYi87vXOut+qFqR4v/YwY4yiDGvPb5QN4NjfPNmKMY3zqRbAe8/Jo8tJXaaPq6qtaNGvOQdTxaI+Jsg8UmKGAvBoHIDPSwphZFACQLJkgjpQKAEjKtBBUFgUAJEsmiCOlAgCSMi0ElUUBAMmSCeJIqcAQQLJcE0+ZAYKaqoC6nzMEEDnIVIkYfGcF1D08Wbs97oPIQXbOEHOfqgCATJWfwbMrACDZM0R8UxUAkKnyM3h2BQAke4aIb6oCADJVfgbPrgCAZM8Q8U1VIAUgUxVgcBRwKCBvUfS4D+KIj64oMFUBAJkqP4NnVwBAsmeI+KYqACBT5Wfw7AoASPYMEd9UBQBkqvwMnl0BAMmeIeKbqkAXQNRLJ1NnyOAo4FBAvuxXcx/EMT5dUWBtBQBk7fwRfbACABIsMLtfWwEAWTt/RB+sAIAEC8zu11YAQNbOH9EHKwAgwQKz+7UVAJC180f0wQoASLDA7H5tBQBk7fwRfbACABIsMLtfWwEAWTt/RB+sAIAEC8zu11YAQNbOH9EHKwAgwQKz+7UVAJC180f0wQr8Az1fowUIJ+BtAAAAAElFTkSuQmCC;fontFamily=Times New Roman;" vertex="1" parent="r26zlcC6nCp4phhId66P-40">
          <mxGeometry x="110.50847457627121" y="16.551724137931036" width="57.495462794918346" height="57.495462794918346" as="geometry" />
        </mxCell>
        <mxCell id="r26zlcC6nCp4phhId66P-45" value="" style="shape=image;verticalLabelPosition=bottom;labelBackgroundColor=default;verticalAlign=top;aspect=fixed;imageAspect=0;image=data:image/png,iVBORw0KGgoAAAANSUhEUgAAAMgAAADICAYAAACtWK6eAAAAAXNSR0IArs4c6QAAC9hJREFUeF7tnYGR3LYOhplKEleSuBLblSSuxE4lSSpxXElycFaTO59WArg/SYj8NON5eXMQIP7AtyC1lPaHwoECKHBXgR/QBgVQ4L4CAEJ1oMCBAgBCeaAAgFADKFCnAB2kTjfOWkQBAFkk0QyzTgEAqdONsxZRAEAWSTTDrFMAQOp046xFFACQRRLNMOsUAJA63ThrEQUAJE+ifyqlvCulfC2l/F1K+TPPpa17JQAyPve/lFL+2LkMg+RzKeXj+Etc9woAZGzuPz11i/cnl/AbkIxLEoCM0/5e59i7ordMucYkCkDG6G5RvzxNoWzd4TlsuvXGY4iNVgEA0eoZ8fZPwBhAAmIpTQFEqabfV2R6tXllmuXXV2YJIDIpQ44AJCTXOGMAGaM9gIzRPRwVQMKSSU4AEImM7Z0ASHuN9yIAyBjdw1EBJCyZ5AQAkcjY3gmAtNeYDjJGY0lUAJHI+MLJtunQuoT9a33YdyR22OZG27e1/f/WcZfwDyDaNP/65M72To062OAoVh5AdILapkPbfJjhYIOjKAsAIhKylBLZOqKLuu/JOol9885060GlAeRBAW+nZ+oe24joIoLcAohAxNvU6uy5Dk0kvxdbtFsX4XhAAQB5QLxnp9oTgT3uWEWuFkAiat2xBRCBiLdHZgFEo2UqLwCiSQcdRKNjOi8AokkJgGh0TOcFQDQp8QKieOjJu4+LNYggtwAiEDGwBgEQjd7dvACIRmo6iEbHdF4ARJMSANHomM4LgGhSAiAaHdN5ARBNSgBEo2M6LwCiSQmAaHRM5wVANCkBEI2O6bwAiCYlAKLRMZ0XANGkBEA0OqbzAiCalACIRsd0XgBEkxIA0eiYzguAaFICIBod03kBEE1KAESjYzovAKJJCYBodEznBUA0KfECoonm88J2d59Oh1YAIhAxsN1dE83nBUB8OgGIQKczF3SQM4Uu+nc6iCZxAKLRMZ0XANGkBEA0OqbzAiCalACIRsd0XgBEkxIA0eiYzguAaFICIBod03kBEE1KAESjYzovAKJJCYBodEznBUA0KQEQjY7pvACIJiUAotExnRcA0aQEQDQ6pvMCIJqUAIhGx3ReAESTEgDR6JjOC4BoUgIgGh3TeQEQTUoARKNjOi8AokkJgGh0TOcFQDQpARCNjum8AIgmJQCi0TGdFwDRpARANDqm8wIgmpQAiEbHdF4ARJMSANHomM4LgGhSAiAaHdN5ARBNSgBEo2M6LyMAsd/5fldKed9Jjb+fYm3/Pt7+Wx0aQNSKJvHXG5DRhWSgfC6lGCjKY/S49sbCi+MEGe4JSJYiMkg+lFKsgFRHlrE9Hw+ACLLbCxCbVlkRZTkMkjfCi+kJiF37T45rBxCHSGcmvQD51HHNcTbm7e9vhV3EC4h1rl+dBb43jq37eT5sAMRbCQd2vQD58kBRCIa562IEIBbTitwK3NMFnl/41vW83RhABJXTC5B/BNeqdmGf5rZgVxzeDrJBaXBEIHk+JQQQRcacPnoB4i0g52VLzEYCYgPwQvL9eglAJOn3OekFiM27f/NdUjcrW6Rb8SkO7wfA99O6M0j2biYAiCJjTh+9AMm4SM8AyFEnuXenDUCcxa0wWxmQUYv0ve9frJPYh4gVvx1HC2wAUVS+00cvQDLexRq9BtlLkYFyNu0DEGdxK8x6ARK9i2WfoNFvuqNrHLNXbTmpXYPU5LAFIAam+f2x5oI6nPP19sERrYmHLy0rIDXFG4WwJsY9wa8KyPdTu4cLqrED667bd0mNQ/3nHkA0Ml8REG8n0iik82KQWOdXfYd1eGUAokncFQGJdlyNUhov3ToJgGgSdjVAMt52j2ZCOUW+GxtAomnZt78aIBnvKkYz0WWv2cqA2Bz29ztZ2Z5A9CbtaoBceXq15UT9yMJurlcG5Kz4I08fAsiZmm3+3rx+mwe46RL9xKqZX0ZjeFPmWRACiFdNrV3z+m0eYAJAbAhn7RxAtIXv9da8fpsHmAQQG8bR1hQA8Za01q55/TYPMBEgR3dNAERb+F5vzeu3eYCJADmaZgGIt6S1ds3rt3mAiQCxodzTKyMgylKsuWkSjV/zUF3z+m0eAEBe1IniGZQRe6gAJIp70D56C7YmIdEYwSF8M6eD1KjmO4cO4tPpmxWA3BeLDvK/Ns1nQM0DMMViiuX8YKSDOIWigxwLRQehgzDFOmAEQAAEQADENd9ovkRoHoA1CGsQV6n/91Lv6Is3mtdv8wAAAiAAcq5A9DsKbvNym/e8qjq8dIQO4knD+aKQrSYxHfesmWIFNKSDPN5Btici9zxF5/o1L/ILpPubqd2d21696j23+Qd88wATrUHY7u4t2352zeu3eYCJALGXPNhDU3tHxinWEdDRNWG/ko9Fal6/zQNMBMjRTlwAiRW2yrp5/TYPMAkgZ2siAFGVfMxP8/ptHmACQM7gsCECSKywVdbN67d5gMSAHL0cbnvNvr1Y7uz3OgBEVe5xP83rt3mAxIB4OoM3ZVfrIN7r9Y5/lF3z+m0eAEBe1E7PR24Vt6VHFb43bvP6bR4AQFIC8v72m4jeQsxq17x+mwcAkJSA2EXN8BMIzeu3eQAASQuI/fzau6eri247ydRNmtdv8wAAkhaQ7cJsuvXz00+abT/kmQmAs2tpXr/NAwBIekDOitD+3mOnbY8YnrG+sAGQsGS7J3hvm2a5ixUddY/i7REjOm5+5Tas2P4JAPJal+iHL4AEirHmS7zoDtWaGPeGACAAEijv16Y9irdHDADxlwEdxK9V6VG8PWIAiD/pAOLXCkBuWm2bIAPSvTK127H27+xQ/kxyj/VBjxhnmr36e5TycIDbCT0+3XvEeLSD1OpXcx6A1Kj23TkAIhAx8DyIJprPC4D4dDq0AhCBiACyK2K0tphiBWqx5hYsU6yXAtNBAgV3zzRKeW3IHsXbIwZrEH8FRGuLDuLXttS8qCy6K7Umxr0h2IY/z52lgAQPmx69OC7qvOalbtF81MSIQhgdd9qtJuGBcMKSCgDIkmln0F4FAMSrFHZLKgAgS6adQXsVABCvUtgtqQCALJl2Bu1VAEC8SmG3pAIAsmTaGbRXAQDxKoXdkgoAyJJpZ9BeBQDEqxR2SyoAIEumnUF7FVgWkJrt7l5RW9hlfBm04h1cLbS655PdvAG1rwaIDS0TJFeDw/QDkMkByQLJFeEAkAAcZnrFDrINcWQnuSocALIQIKM6yZXhAJDFAOkNydXhAJAFAbEhe1/yFpTnhfnRr/U+4rf3uSzSA4pfeQ0SGCamzxQAkEA5AEhArElMASSQSAAJiDWJKYAEEgkgAbEmMQWQQCIBJCDWJKYAEkik8qVugbCYDlRg6RfHfUn45sGBtUBokQLT7Ob1/oafSDfcLKCA8uXcd+VqTuAt8qfbbtcF8sYQOynwuZTyoXWsXoDY/NK6CAcKqBTosr2mFyC25cIAyfYGdFWy8NNfgS612yXITbuR28D7p4+ILRWwqZVNsZofPQGx7mFrEZtucaBArQJdFufbxfUExGIy1aotC84zBWznsq097H+7HL0BAZIuaZ0yiEFhUyvFb827BRoBCJC404PhTQGD480INUYBskFi6xHbg8PdrRHZzx9z+53Fj6MudSQg25i3p+7ePXsCD2BGVcTYuNvawu5Q/dV7OrU39AyAqFIS/Rnomriz6IVWzuzPknAbLkl3Jh2t/EIBiF8rs5xFLz5MnHmfJeF0EGfCb2YA4tQLQJxC3cxm0QtAnHmfJeF0EGfC6SAxoQBkTb3oIM68zwRI66cWuzyg48zbo2Zo5VRwJkBq3orhlOmb2UyAoJUz8zMB0nqnMFo5i2qi2+HT3NffUtfqoawuj3f6609iiVYOGWf6VNyGq+wkQ7ZYO/KmMkGrEyVnBOQ5KLZb+MfKakqxWa7y2qOnGShotaPazIBEiwR7FHilAIBQFChwoACAUB4oACDUAArUKUAHqdONsxZRAEAWSTTDrFMAQOp046xFFACQRRLNMOsUAJA63ThrEQUAZJFEM8w6BQCkTjfOWkQBAFkk0QyzToF/AU1mSvZuXZ8DAAAAAElFTkSuQmCC;fontFamily=Times New Roman;" vertex="1" parent="r26zlcC6nCp4phhId66P-40">
          <mxGeometry x="212.2033898305085" y="16.551724137931036" width="57.495462794918346" height="57.495462794918346" as="geometry" />
        </mxCell>
        <mxCell id="r26zlcC6nCp4phhId66P-46" value="" style="shape=image;verticalLabelPosition=bottom;labelBackgroundColor=default;verticalAlign=top;aspect=fixed;imageAspect=0;image=data:image/png,iVBORw0KGgoAAAANSUhEUgAAAMgAAADICAYAAACtWK6eAAAAAXNSR0IArs4c6QAADdBJREFUeF7tnetRHDsQRpuCPC43EuNIbCKxiQSIBBwJvnlAcacXLY9dvVo7mtFIZ6tc/oGkkT71kdR6ngk/FECBoAJnaIMCKBBWAECwDhSIKAAgmAcKAAg2gAJlCtCDlOlGrEEUAJBBKppilikAIGW6EWsQBQBkkIqmmGUKAEiZbsQaRAEAGaSiKWaZAgBSphuxBlEAQAapaIpZpgCAlOlGrEEUAJBBKppilikAIGW6EWsQBVYB5Fzkp+p7JvJPps5/nkX+urD7/zOjLhtMy2Yo19yZ2+vUtEYXIlevIpdGnVYp26KAXIj8mizid6lVvIr8fRH5Lh+wlCZVJd6FyIOIXFVJPDPRyfDuXkRuWtTIgXF7JnKZWRxfsN/PIvdLlW8xQGY2HhVJjaCZn+s5blvI0KvI9YvIXQt52edhZn0en0Wul4BkEUBO7Tl8FT21Iv8uIVCukdUoY+63PeFaa0AuL0SeTihPqCep3kguAUgNccQNtxSSJn4AEq6Gc5GnE4dV3sSXaCSrA1LTcJYQKJe+muXMzcOncC31IFUaSFfW6uVcApCQ46rO+p/Mylfn/sj5bWmsHQJEneazN6eyxu/blKhv0qO64eQWJuJ7PL6K3J9lTLi8ivyYwu1mPg9+6ovopE21X3VAQt3r5GRnfzsicjOGEAGkmsM8ki6Tvq+HFCwxzM420lJEAaTejBKA7Kb9q/qhAFJK/kE8ehC/kHPpQg8SMdSRWkoLryPpAiAAYmFjFxZAGGINZwgWSgAEQACEnnWnAEMsDMHSeQzXcABIGSBmo1o6Qs3FzJk3AC4qjVUXAAEQs4ECCD5IaihhNqqlI1hbSkv+AARAAISeFSc91WqO1FKmtPj895F0wQcpbCl1w5rFqGqG9Z15WGuI1ZsuAFIGCLt5RXzHfLvTBUAAxNy5sZKOk55y0rtrKS2UAAiAAAg9K7NYqVZzpJYypUXmLFZ3PSs+CC2lhY3helYAARAAiSgAIAACIADyocBMt5rsro4xW1adCN98V9OstFDYnS70IGU9SB1TnzHVlQCZsQR1krLqAiAAYrZE9mKxDpKarTEb1dIRrC2lJX8AAiAAQs/KQmGq1RyppUxpkblQaElmlbDWnhUfpKylfJwutdZ/Lfz0cu1FL9iOXQzdmy4AUgZId1sqLKSPtAUHQADEwkbKN+uu4QAQAAGQiAIAAiAAAiAfCsy01aS7oYSFEnwQ1kGGG2sDiF8BhlgMsSxsDNdwAAiAAAg+yHg+SM0Fu+kF3cvA++Pd+Wb0IJ32IOZuYZ4IADKPjvlPMZd+b/RXbkt1OzEegJwo4D46r9zOJGRjGyoBZKZ6BZCZhBSRy3ORh4BPMN9XMlJ6fns7vIk7i3kGOlFhowyxVIYLkatXkdu1INELq89Erp/b2eGsmvyatPl9aCZsd3eKjARIqnG/EHnwbYkPtPiXFyJPnjQfn0W+p77Vyt8BhB4k2xYB5EMqehB6kCNwAARAjoyCIdaHJAACIAASGXABCIAACIB8UQAnHSc920k/f5sC/nkYwTKLNe2/unsRuc7+6MoBAQRAsk0wBIiuE0wHyG4+JxQyLF/Y7AysEBBAACTb7GLbUbRnOBO5dzt0f/jWS/RD1unR7MxVCgggAGIyrdCsXk4iulL+8raNZDM/AAEQk7FGhk456TSzCTEnsxoGQAAk11bew5VAsjXnfF9YAAEQMyAaIeKw+9Lb1P6rnMkGqy/FicKImW3hepsSSjJ2/+q9wzct7c61lpMehB7EajNH4X2O+xYdcp8QAAIgABJRAEAABEAApNwG2M2b1o4hVlojnPQBnfR9kQEEQC4PJejt8up0FYdDAEhaPXoQepAvjQizWF8NAkAGBsR3kGqrK+eH1cgsFrNY6fFBOsSXO7Vc76E3lzRxt1U6++EQAAIgp9jPl7huZf3yReRutkRXTghAAGRlE2z78wACIG1b6Mq5AxAAWdkE2/48gABI2xa6cu4ABEBWNsG2Pw8gANK2ha6cOwABkJVNsO3PAwiAtG2hK+cOQABkZRNs+/MAAiBtW+jKuQMQAFnZBNv+PICE60c34P3yXdasUXRDnqVqQ+/+WdOxfJOw8yjgqztrvUXefdTL9O5rbeys8spt6B2MeeQmFRTwKlAFlNkBAQ7Md0UF9II9fRrCNDqJ5XdWQEqu1FxRTD7dpwKz3l88JyChZ4v7rAZK1awCgQeJivI7GyCxty9KnPKi0hBpKAUiEzfXcx06mw2QyHTepp4MG8rCNl7YJWxuTkAefK8izdndbbw+yf78CoSG9bPdhg8g81caKS6nAIAspzVf2qACALLBSiPLyykAIMtpzZc2qACAbLDSyPJyCgDIclrzpQ0qACAbrDSyvJwCALKc1nxpgwoAyAYrjSwvp8B2AAk9tabvYS+nF18aTYEzkVtPmWfb9n7qSroSrBm8Gq1iKO8mFDgZlGJA9Kp+EdH9V/xQoGkFdBRTuru3FBDOfjRtEmTuUIHSTbNFgHCsFgPcoAJFO3xLAKH32KB1kGWRkl7EDEjo5KC7xuWGikCBBhTQ66aOnh4v8UXMgMx1EVgDIpKFThWIHP82X+gwGyAi8v1Z5LFTzSnWhhSIzLACyIbqkaxWUgBAKglLsn0oACB91COlqKTAKIDodLLORHzTrSxuluzPdBn23xl8nfe0Xz9mO+ZKW6td0//h6v897y9vPtqp12JW1UXzvM+702Yrurzj1j0gqStMFZYXke8lxpbaIqNpT1OEd88iJVPW0b1pJ6athvtrsoLfoYZ3q7q48pgd6JAOPQOiTyY8RK66f9ekxNiMOwBMFZYy3s+VWWDIzegy9Sp6EaA2Hlk9YWVdvIx0C8gk5mvBsDRretkIxy4bzhiS2/VTvZKvTBZISnTJXRTbsi5D9SAlFeWMWIdb/8bAKjHgfXo5hlZiwLkAnqhLdBhaW5fQGaFUI5jbMA0DyCkVlWNopQacA+C5yG3oFa2UIbi/B3vAkXXJaZiGASRkZPv9XTr742a01Ek9OpzlhiveXiRx67w6vH+eRf66mZuQAxw04shJSnX2rzXt87c8e/cHqdMdmhAYXJei3bduFi50VsnkV2paTWw1iXTFh4YZdFZDOzUt+3IiDmVQWF/vFADWfH7aokvoZKdVF9/wZg1dYo1eqmfuzkk3GFlsqtPbyoda4YDhmIzYAp9r2Y5uwI8ZQmhoOPU4Rw1bxIib0SXkW/j8LAD5aAa8RhkSKDLs8B6rjDi5R4YTankiFWvqykM9gs/g3WLj02FrGdLFusvaokskL963X6wtuFGXVAeijaipXmIJNjHEslRWREz1QY7m5i2PrFjhsxhxpNKCY22LLqGwoSGWRRcrfLV1SRHSHSAxZ9Stat/HnHQVLNAKB1uT/UJjjpMeO4mW66QHrqeJrrVEDHO/2q/vg2sZgzfLWHVxxpc1eRGbaaqpy3CAVJ7OzF6FDgkfMjINv+Fp3s3qMhwgpxhajjOXemA0IXhqpf4UQ0tOZZ4CYAxsp/nPUM+WMsKMA3JVdSlcGN7mNK8rbKmgKQPeJV9iaLkruqUApgy4VV2mtagk2In1iCh/mboE0+jOB/lUUhMkxtXW/Rb04G7Yz4rnwrGPY92U5xYRc48om3SJLT56rMqkSy4cC+nihaRnQLTAORVWfKWktvaRVW11mvcr4LnG+7mScq5iNXfz+54ksdq/y3vpMYAN63IESe+A7AusrebVNEb+x20v2Rusbg0pMd5DQ750B4L0QJauvOkU8SxpuyGdzsV/c1v3Nb9zpL1rQDaqy3veK+nyXr+jAJLhJxIEBY4VABCsAgUiCgAI5oECAIINoECZAk32IMYp17KSEwsFMhRYFZDY5dW6b2oC5b+MMhAEBaopcPZ25ZLvYJ35IZ2S3by8LFWtakm4pgIlK/RmQNwc/1PO1Tw1C0vaKGBRIGfPni+9IkDcYlXW/VWWQhAWBWopUPJ4jualFJDd0deJSt0NevRQSa1Cki4KFCqQtaF1zh5kn1bO3qPCMhENBU5TwHoLZA1A3tPUqbVPF0EHn8DKLbLbg3W081YLrfuactMhXDsKhGaXphz+tsx++s6wfH4CcKZLwnfCFQ+xYrJHzkdnf2/Ouex2TGTsnETO5JiGQIHbXrLOqFhrINtgLQkDiEWtccICiKtrABnH6C0lBRAAsdjLcGEBBECGM3pLgQEEQCz2MlxYAAGQ4YzeUmAAARCLvQwXFkAAZDijtxQYQADEYi/DhQUQABnO6C0FBhAAsdjLcGEBBECGM3pLgQEEQCz2MlxYAAGQ4YzeUmAAARCLvQwXdlRAjo7cnot4z6u7c8FZhuEuaNanxQ5/ejv67ukxfttSIPJUnJ4HOXpfMlS66Zb7o8dN3bMM14E42Wkfxi86D+JOD95yHn1bBjpwbh9fRe5f3k6jmn4lgITeEjd9mMAosLQCJTebmAGxvKS0tAB8DwViCpRcj2sGpPQ9PqoOBRpQwPy6lxkQLWToDewGBCALKOBVYPGbFd17eUcXBFM/KNCaAg6OGzHMlO3LUNSDtCYA+UGBWgoASC1lSbcLBQCki2qkELUUAJBaypJuFwoASBfVSCFqKQAgtZQl3S4UAJAuqpFC1FIAQGopS7pdKAAgXVQjhailAIDUUpZ0u1AAQLqoRgpRSwEAqaUs6XahAIB0UY0UopYCAFJLWdLtQgEA6aIaKUQtBQCklrKk24UCANJFNVKIWgr8D9SU6lCFN3yzAAAAAElFTkSuQmCC;fontFamily=Times New Roman;" vertex="1" parent="r26zlcC6nCp4phhId66P-40">
          <mxGeometry x="212.2033898305085" y="148.96551724137927" width="57.495462794918346" height="57.495462794918346" as="geometry" />
        </mxCell>
        <mxCell id="r26zlcC6nCp4phhId66P-47" value="" style="shape=image;verticalLabelPosition=bottom;labelBackgroundColor=default;verticalAlign=top;aspect=fixed;imageAspect=0;image=data:image/png,iVBORw0KGgoAAAANSUhEUgAAAMgAAADICAYAAACtWK6eAAAAAXNSR0IArs4c6QAADaBJREFUeF7tnb/LLkcVx08ghUWKFCmuYKGgkDLpLISYTgXBxsLqJmAtSW1hki6k0H9AEqtYpEgjpEtSaWe6NIJXCCgoGPAWKYTkPW+evXeefWd3fp3dndnzWXi5F3Zmds73nM8zP3Z25gnhQgEUWFTgCbRBARRYVgBAiA4UWFEAQAgPFAAQYgAF6hSgBanTjVxOFAAQJ47GzDoFAKRON3I5UQBAnDgaM+sUAJA63cjlRAEAceJozKxTAEDqdCOXEwUAxImjMbNOAQCp041cThQAECeOxsw6BWKAfPtS1PRvXcn75/po/0fyxLMrEAKiQPxGRF4a2OgHIvKyiADLwE7sqeoTID8UkQ97qlhjXV4TkdcbyyA7CogCoi3H30+mBS3JyRx6lDkKyNuDd6uWtNNu1otHCctzz6GAAqKtx3xArr/AI12xCQW14TsjGUFd+1NAAfkyUi0NrJEgWeomagvCgL2/uBumRmcBRAWPtYQAMkwo9llRAOnTL9SqEwUApBNHUI0+FSgB5Cci8qsOzPjzwjsOulgdOOdsVSgF5E8dCLD0EhBAOnDO2aoAIGfzKPaYKgAgpnJS2NkUAJCzeRR7TBUAEFM5KexsCgDI2TyKPaYKAIipnMWF6fc3+qlBycdpugRIl8+wnL9Y7vIMAFKumVUO/f5G4ai9+OalVrmCfABSIJZhUv1qUz8zaLm0JdG1ZiMtKm2x95C8IwKi3ZI3ImqN9KLQ6hscFmNujA2AbCzwQvGt3aupWP3+/p1jTPDxVAA5xs8xQHRM8fFKdaYBfZgEQDb2H4BsLHBBC5IK9hhUb4rIB8eY0PVTdVxmMjYDkGP8HAv2GkCOqf0YT/1CRD4XkVdF5I+1VQaQWuXa8gFIm36luXWcpj9AxReAFEtmkqEGkE9vfgmfNXm6z0Kq9lkAkGOCpQaQf4rIvWOqe4qnprqwUSMB5Bjf1wDyXxF5elbd/4jIw2NM2O2p+qPwDYOnVa08ABAD5SuKsALk9yLyy4rnj5QlppWOKZamxJ8RkV9HfkwAJLLor9c3zQCSj2iNVkvvmYoXeJa2ID/Lt2uzlJ+dYKlJjdNjXSyvLUhqPHEIIJtFvFHBI63FApB8p9doBSARfQEkP+hGSgkgRt4CECMhOyumS0B6Hdwu+W5p8+qql0M7BEiN0xmDPHbMrmMQq6XXO8RV8SN6PaTUCpD3L2uNioUZKMO7Nwsyvz+r766A6DJqnSM+21W9/mYHIawA2aGqXT5iV0C0e6IOK9k4oEvVZpXquZsIIG0RtCsgWtWzQZISsM097blrAPmriDzX/uhTlJDyr+k076SYQnJ/4O7W9JGMimfyscyGoVQDiO5qP++Lb1jFros+BJBQkdLuljpOB1Pz63cFMmsZ8wD4i4j8IqOM3oGYm1ADyJknUzJcfJXkcEBKKxw7Z730EM3YVjhnPanWCpBUoJT6scf0VlpVL1a0EAVAylS0cjqAxHXfZAxS5uLr1ABSpp5VdwlAAOR298CzXQCS71Gr1pYuVr7mh6e0ejnb61IaS4EB5KKmp0H60tqxksA66wTGVjN+tCAl0dVBWoUkts4op2qfiMjzOQlPkIYWxGELMsVt2NXS9z363mfp+paIvHV5V1Q6hT4yJwDiGJBw9i9n7dj0zUvPCzGtYQQQx4CEY5FU0IdjtFRa6yA9sjwAcQyImj4FQKrbFJ4p4mH2aoISQJwDEnaz1l78fXnRyVPrEf6AhK1Y6gUpb9KPbPONnx1+arDUioTdq5yxinEVDy2OFsR5C6Lmh7NZMQDCDSl6/Yx4K4oABEBuP1hTCPSavwAMW49U12KrID2yXAABkFsFwsF6eHptGCCeBucM0mc/S56WmsR+kcPBergswuvgHEAA5A4nYSui3anw4E5vg3MAAZA7gMRa0di45Mgxwd7PZgzCGOQq5uZL4VMvEPcO2L2fByAAcifmdFZLxyT6UtDrNe2y80rkMJz/J0R5MnJff2hUz6IzQqzm1Pnk1msYb2N3LJ6snqSghLOEq+UCiJXslGOpQGynfsvys5frAIil7LZlTS8Pvb37WJqosFVXJCv2sxJl1IwuVoZIhUm8AhKuWi6UrCh51rQ5gBRpumtiAHkst3aJ/lCxN/G/RET/FLr5bqEAsms42z8MQB5rWrXhQuCS6tPHaEHsA3sqUd9nFE0pzqpiBYj26UeaLo51sQDkZkf2M63Fmr7x0JW5umSk5rIAZHrpaPVDWGNHaR4AWVDsTICoiWqPBmj2nPsGLYgudBxtiTyAOAFEzdRlEvpiqrYVKf31DdNroOnsok4Tj3QBiCNApunvrBkTwyg+6rkWJgCII0DU1CN+ybXl0mvEjb8BxBkg04C9dixS+qu89/NK65dKDyDOAEkFBPevFQAQAIGJFQUABEAABEC+nt4smWI823sQKKhTgBaEFqQucpzkAhAA6TrUdRbsyHPnAWRAQKZlI8XfNHeNwt3KTWu3WhcHtpgNIAMCMm0goIEzLR3RhYhnudS+6YXmkXCongAyICBTlUNQptaktTuiZc4/5skBzwLQ0J5p5XGrPTl1X0sDIAMDEoKijtSrZTlHy+4dGsj6vUnLtx66JEUh0cWUFsC1wkELsqLgiNO8rQPa2KZoJUFWOpU+L7u1/iV1zU1LC3KCFiTX2al04aeg08Zm/0hkun9Zxq7JWgFJ1e+I+wACII8UqDkYJzxLBEDyEOab9Dyduks1OW5+aE6qorkHf6bK6fE+LQgtyJ0WBEAeB8VwgEzTkC+sTEfeE5EfzQL/4WVPotxfqadERMsJL93T6IOMAj6+9Md7mYnJqPJtEm8tSE4s/UBEvhuJA42F2kvL0/gKL42rWJlXsZTa7aJlGrLWmJZ8o73E8wTIXluKtsRPmPd2k+s1QFqnIK0qWlpO1Tb3pQ8xSu8FkGFjaQmQ0VqOebwWbXFvFOw1xXgAZOhYWgJk6+3na4KpNE/pwLe0fIv0HgCZDiG10Gv3MpYAiRk1dV1SldSB2NORU4FS+cL7n4jI55kZptOY5uuZRnhHcHZAwnc28/59aomMxlDtOrVY6Gg8peLqTizFAFkaTKUG9JnxvEmyJUf0frbG2QGJxVLvP1xXsZQLyEjdlZDA2g3b1lbXWq527Q0Qa7vnB5Kqb7JPd9rkpzSv0Ec9KACJC7bWb7ZsSXsDxNpuAMkDcpdU1ettIrWz/iVdEqA3QKztBpBdQj/vIZaA5D2xPVVvgLRbdF0CgFgr2lAegDSIt1FWANlI2JpiAaRGtW3zAMi2+haVDiBFcu2SGEB2kTnvIQCSp9OeqQBkT7UTzwKQjpxxqQqAdOQTAOnIGQDSnzMApD+f0IJ05BMA6cgZtCD9OWNkQEoX8E22lubb22u0IHsrvvK8kQFRs6adEtcWQ05bhepHSFOekjNY9nYXgOyt+MkAaf0UtfdV1gACIE0KtG5kULucv6nSBZkBpECsrZOO2MVSTWq/mhthiyMA2TrqC8qPAaL7Hn1RUAZJbRWIfXrNB1O2GmeXdoaNJrKNHTghgBzkPAA5SPjCx74nIj8vzLN38lN+cvtvEXlmbyV5XrECurPI88W59s1wSkD+F9l/dV9ZeVqOAn8Tke/lJDwwjRtA9Nfq1QOF9v7o34rIczMRAOSgqIi1ILqD948Pqg+PFYm9CAWQgyIDQA4SfuWxANKRTwCkI2dcqgIgHfkEQDpyBoD05wwA6c8ntCAd+QRAOnIGLUh/zgCQ/nxCC9KRTwCkI2fQgvTnDADpzye0IB35BEA6cgYtSH/OAJD+fEIL0pFPYoCMsLS6IwnNqxIDRD9i+6b5k2wLXF2sGDu2V3faeFlEev3Mc+nb7hE+zrF1bV+lvX2zW4v6JrweishPR4ml2HFiSwdiqpGW5/NZuXLtVCQAsVK5rhxdzfvKQtYhYmnpvL3W7Wjq5LTPBSD2mpaUGNu0oST/4WmXAFlrRQ6vdEEFprOxC7KQ1FCB2h1bDKvQVtTaia06FnlXRO61PYLcKDCsAp+tAdK6qdmwqlBxFLgo8GAJkNhMFqqhgDsFlgBhCx13oYDBMQWWAHn0oiTIpNNyvb4HCW176jJu0n/1j+tYBfS9h/7pt+gjXFfvbWKALI091sYrIxhOHVEgR4GrGdxcQHrfZj/HcNKgQK4Cp9wXK9d40qFASgEASSnEfdcKAIhr92N8SgEASSnEfdcKAIhr92N8SgEASSnEfdcKAIhr92N8SgEASSnEfdcKAIhr92N8SgEASSnEfdcKAIhr92N8SgEASSnEfdcKAIhr92N8SgEASSnEfdcKAIhr92N8SgEASSnEfdcKAIhr92N8SgEASSnEfdcKAIhr92N8SgEASSnEfdcKAIhr92N8SgEASSnEfdcKAIhr92N8SgEASSnEfdcKAIhr92N8SgEASSnEfdcKAIhr92N8SgEASSnEfdcKAIhr92N8SgEASSnEfdcKAIhr92N8SgEASSnEfdcKAIhr92N8SgEASSnEfdcKrAISOwJaD/B8UUT0Xy4UOLMCV2d0xs4ovDrEMFACOM4cFtimCmjsX11LJ9d+eHPks7YkXCjgWoElQJZaEddiYbw/BdbOPl86L92fSljsVYEHa4BMfbL7N/95zatC2O1SAR1vvyMir6cACdXRbtedQYxL+TD6zAp8FBr3FfeheF7MY0iuAAAAAElFTkSuQmCC;fontFamily=Times New Roman;" vertex="1" parent="r26zlcC6nCp4phhId66P-40">
          <mxGeometry x="110.33898305084747" y="148.96551724137927" width="57.495462794918346" height="57.495462794918346" as="geometry" />
        </mxCell>
        <mxCell id="r26zlcC6nCp4phhId66P-48" value="" style="shape=image;verticalLabelPosition=bottom;labelBackgroundColor=default;verticalAlign=top;aspect=fixed;imageAspect=0;image=data:image/png,iVBORw0KGgoAAAANSUhEUgAAAMoAAADICAYAAACprX6jAAAAAXNSR0IArs4c6QAAGX9JREFUeF7tnX+MH8dVwN/u1XFjpXVEQnV3AsUWpRWqSlMaf5ukFNtUiEioLZGo+kO0toUQpRWFSoDu3NCzofjMH0ioQEEC4XOliCiNREL/aAj9cUZNE18EGEoRVQO5isbfL5GjOMQ0SpT7Lve+nj3vd787897Mzu7O7r6vFEXJzc7Mvvc++2bezLyJQH4igQolMD8/fyiKopUoijbH4/HJ0Wi0WWFzlVUdVVazVNxrCaSAAMChjCA2kyQ5NhqN1tsmHAGlbRoLvL/z8/P7oig6kwNkqtdRFK21zbsIKIEbXlu6h4DEcbySJMlRZp/Ru+BQbI1ZvtFiAkqj4u9G44uLi2csAMm/9LoajgU9dxFQumGrjbzF/Pw8TtJP+GhcwRKsdxFQfGi5Z3XMz88fxUgWAOzz/OrBehcBxbOmu1xdhYBMiQ29y3YwYD2kULKAEoBlowECwC1pV+I4nnypx+PxWQDYbNpgFCBHTJEsnRiTJDkxGo1OqnkMhoq5Xigo7yKgNAQKrjPEcXwkSRKO8aDRVLb2gIasE4PrRB1DwBcvXkTPsPNTaysYOubCAggaAJxt+mMhoNQMCmedoeYuwXA41NrBwsLCUzaGzVkjUUEA9KJcYBr3LgJKjVapvqhfq7FJVlM+QOEAUtK7bA6Hw/2sF6qgkIBSgVCLqvQZSvXd5ZKg4NceFw6dhoZc75IkyWHXNnzIS0DxIUWiDtdxfg1dmzThCoov42UMR9eHw+HhuuRR1I6AUrH0Q4ekDCgmwFzEqgk/NzrkSt9DQHHRKPMZG0jUGP8choNV9QejKMKIWHb3LbNlu2LYtu4J09YU36BgH/LeJQ0v272R/9ICin+ZTmrkQkJt3eCGVNUinXa/lNrRy40ysaRSBShpw+hd4jg+mA8xszpWQSEBpQKhMiGxOptBhWkp4KjnXcRQJSgu/anyGQHFs3SrgCTtImHsxgmvgFJO0QJKOflNPV0lJGr8btytmyTJft0KtoBSTtECSjn57TxdNSQcr9I1UHBi3/TWFYl6eQLEYuJuNSfRdY8Ach2TOBQ9W+JglVZSVc1RMpGvfWqtpvFDXeJRSgJTlydJu8lsz+qt0Bh1D5iiZVWAotZScOPk5CfhYStVhlmYabRePEkqgSq2wriuzPsExbQ6bxpS1mUZ4lEcJd0EJBbDPKu3cgXFdiOkrlMM+PFjg3u9GhuCCShWJnW1cFOQYNsLCwuJQ5eNj7iCsjPRdUw/pMn9VdjXpodgAoql1TUJSVXb9MuCkplPsI/wMrxIXjON7vkSUCxAaRIS5U2sDlFxX80XKKq9Sb4u3Zl3Gy8S0oReQGFaUwCQ4IEv7QbJ9Mgs83WmipnG/iUSSswAw5Rhtm+lzrq4yEL3jIDCkCZTwV6jW9luLSwsGCHBHcdVn/7jHrAqECca+1nb9EZNz0ny7yGgEKC0ABJca8DE17Ukj3PIpsL4FE0Vafx8fFGHBRSDGtsACc4F6j79l8kzzMkgwwalTuDZnVIFBRSNxFoCSeVDLpNBZVIucRNz66oL0otkOyugFKiuLZA0vQiXis4lkpWJaDWaNILrWQSUnKSYkICvVem8ohgTd3ykssAB13CKytkAU5Qgr0zbVT8roFw9p22TtTGvkzSLY+lshm2GJCsU4vhykJBToPUaFEaaHEp+U38v42W6AkkOmKms923zIjJH4e/XsgIlM+62ypfbRUjywKhk405J8pyU4Pmh3nkU317EoA9WJKfrkHi218aq6xUoVW0qNGjPuD1cIGnM7q0b7g0oHiDBsxBOebGKDh4JJNa22ugDvQDFFpJM1saZW59w6IbAZPYuseDJwiKQNGrzTo13HhQ1J8Ht6eTPZSOexd6nyTCMuoNddbKVIVRSwC0u0HlQmF/vUvulLO5Y5wzfBJIAgeo0KJxTdC5eRKdHTnuEDQgkAUKCXeo0KNT5cl/3e+TWDFzvXhdIAoWk06BQX3efniSvX6rtAnsQSAKGpNOgELl2ye3puf1fqRrRoHF1mdzXZZHrVyAJHJLOgkKFg6khF2cHMXWtM9UHiW61gI5MFzs5RyGGPtoIl8P2Fmrl3ZQ1RTxJi1jpJCimYY/JmzBDyVPqNe0YzufRzdtFlfOkFtlgK7raOVCIBUbt3MRhAr6jYNNZb2quIrC0gpPuhYdNoJjOQ1ChZEKd2uEcx0sJLOHD0kWPgoeFdq4NyKpAZ5A221x0KtVlXOcEBrBOgSVsWLoIinbBzwCK6yIhOfyyGdIJLOHC0kVQTB6lMFGcjTEbPIqXugWWMGERUK4ml9DCxVWbbkLvAqHAwpV6feV6BYpuMs9cHDRqpewcRULH9Rm9S0tdBOVQFEWY1HrmR0S9ylypoA07c6JehuHcidFohFcoyK9hCXQOFJSnKdSr+/K7DJFS3ZWIppHnU2QY1jAhqvmugqL1DsTKvItXMW2JMUXTcAvL2vZ115i313icWGBpHpZOgmJauzANv9R6Cg7bWOfgqUzypmFXavzce0cElmZh6SQo1OTcdB0z91gvZbiMPuwkpxZYmoWA03onQVHzFNMwijwjX3AeBTOvrI3HY5xXnBuNRsash7bnYQQWjrk2V6azoFCTc8ojlFEJtW2F2CEgc5Yywq/o2c6CwvAqleyvYixeGk9XimepyNJLVttpUCivgrLz6VmY7ZEX5wgsJa26gsc7DQrHq2CZMtc1pDphLiySc6O0PoGlAmsvUWXnQbEJ+eJ+LQz5mu5dz8ua40XUM2RCC03dMmcpYeC+Hu08KCgo7tc5I1S8sgG3jmCEC7LgqNzDeEPXwSRJ2Jd8UgktdArl9t3nENKXcXWpnl6A4ghLVs8TYCwWIqdsxBUSh2FYbffNdwkCzrv0BhQPsHDkOVOmLCQOsOy3GTo6vVQPH+oVKAoW3F2MR4W521RczcJ7OiLmMMyYQsn1Zfr+XO9ASRVOLQqWMYwqL/XkwCLzlTLaK362t6BkvMvKdqTrkA/R+ggzc/rBhEWGYBxhMsv0GpTM+L/UcKwuQLI6pcLSVXo1pm11qpiAotRps96Cay3bO5DP2q65+LYcChbTLmnffel6fQJKRsNcWKgE3XUaDZE+VsLFnpQhoOQE2TZYXBOSe7Kf3lQjoBSouk2wUFkuZfjlh2UBRSPHNsFCHDmW6JcHVgQUgxDbAotpTciUad+D/fSmCgGFUHUbYDEdFhNQ/LAsoDDkGDosBCiSRI+hY6qIgEJJyHKdpYnQsSnyJdtZmAomigkoFnIM1bMIKBZKdCwqoFgKLkRYOIn2LF9TiuckIKA4mERIsDDWUWSO4qDj/CMCiqMQQ4GFsd9LQHHUcfYxAaWEEEOARW4dLqFAi0cFFAthFRVtEhbKm2B/JepVUsHqcQHFgxybgIVKAp6+loDiQcGY+81PNVIL5+uOUvJxyIsLiXgUf3YpoHiSJRcU1Rwe/MKzImkaJHYvGLmNp+oSj8IWrbGggOJHjmmSvRM21dms4isvYn2+X0Cx0Yi+rIDiR45OoGSaTo8Wo4fZRE+Ty0iJyS+c0isJKH4ULKD4kWNZUDz1YrYaAcWPaAUUP3IUUDzJMdRqBBRPmiEm8+Q12WW6gZE0XcJw8ShlJHvtWQHFjxyNHkVdJ3EL56psy+6kWffxfklMEzvzE1AsJaopLqD4kSMJymg0WsvcOOw8OVfdxfzCJ7FO/G85uOVJiYZqBBRPMibOhEzl13IFRi1W4o3EE0DSn4DiSYkCSvWCtAElZ+Rp3uODcRzvS5JkEgbeHqZNFiPVdd3fzcMhoFSv02wL4lE8ydsVFB/Ni0fxIUVzHQKKJxkLKJ4EGWg1AoonxQgongQZaDUCiifFCCieBBloNQKKJ8UIKJ4EGWg1AoonxQgongQZaDUCiifFCCieBBloNQKKJ8UIKJ4EGWg1AoonxQgongQZaDUCSoFi8DRh5qDULbhiTulPrajrbhdeT1faqXpc/k60vRlF0TpVr9oBgMW+i4fH0gNk1HN9+buAojYVxnF8MEmSspsVu2Y3E8BwA2bfwektKOg14jg+ojvH0TWL9/Q+k239o9GI9FCe2gummt6BovZFHdm++lo3TApGOQF3JIjrw+uUT29AUUnq8HCTAOLPwpzTLvnrQj019QIU21xY9Yi+O63YpF1q61t3GhTxIrWaZae9S2dBKQOJOkmIIVIMleLPOqNjrSbqrzEMg+PZ/jT6R4bF80139V77ToLiAomPnMD+7DWMmtL1pCiKMEMlG5ouwlIKlNzCXBXaxayJVqFIS0gm0RvTMdsqXqqNddqmdHWBJUR7SnVVChTqEhsPBrE+HA4P29Rjus8wW4+k8bGR6rWyKjDC8jC2sHB159bzyVPW9tRJUJgZ5Xu7aFbCwGYeXVxcPMNYrMW0Soe5WfsFFHcNsb8AzDtD2PW5d7k/T3I+TDaeW0Bxtx2WYVM346rmWXW5d7WfTypYjpom+8qrkHNNAcXdhljGzRgGsOpx72a/n2R4FtYQTEBxtyPSwBneZHM4HO5374I8yZEAZeTqhrGpDJf5eqk6OP0gypD2pHu+sqiX2tZAvpvKjoiuu+hHvhj1NeO6fbKjUoCUABEFJb2KCRSuPWEnoyjS3XxG2lPtoAyHQxaEhEcwvhjlTWwmkqQVSAFSAtSeOsqrmEDh2hN2cmFhIXH98HYVlBXD10OGXKRp+y9AeBXjh09AMeijjEcxfDnwVN6J0WiEJ/PkV6MEqDC9aRFSQKkAFGrYZeOqa7SjXjRl8iqm4ZeAUg0o2mGXeJNmeTQFWHDz6cWLF48V9TBoUNRGNCfJRlH0Nd2DGG1iVqq9Vg335qjEBjNVqavYCne0qgjJOWb7UqwCCbjYBqFTrj1h1Etnl1p7Molga2vre5FpnF+B/KRKkUDrJBBF0YcElNapTTpctwQElLolLu21UgICSivVJp2uWwICSt0Sl/ZaKQEBpZVqk07XLQEKFFZy57o7Le2JBKqQgCnROQmKbE+vQiVSZ4gSMG29EVBC1Jj0qREJCCiNiF0abZsEBJS2aUz624gEBJRGxC6Ntk0CAkrbNCb9bUQCAkojYpdG2yYBAaVtGpP+NiKBzoOCJx1zydcmVzRw03g2opWON9pGnXQKFMzyYXl77+TaanU1NGat78s9J7WhmOoEG2TeqpzeNIz/Pmd7W0FVL9Z6UDxfToon3FBBAk0Ji8t8sHT52GxqD0InrQWFkSbVRhlFZTt9lVpZ4RQ9TyUb9NBmYzcNtA6UGgDJ61OAISy8BkCKdFLrffatAYXKB+Xha2Wsog8329rKUOkErxxnX0tn24apfJ06aQUoNSRn5upPvIuSVANeRKcjMmcxV7mmckGDYnnfYuE8A6Na2T+ocwX4v/JhY7Y8qRy57IpaWNCHTvC1s3rxpJNKM38GCwqV6VFjY5PLSTHfFyfUm+Ysy9xqyx5C9BEWR0hSnbAupk11EsfxEWY4eccUqkxsGCQotvMRX1dbc26HynmnSr9iITkcW0iUTjDMTt6kRQx5jtpcz10VLMGBYuNJbABRq8GsFXkbYKpSTICQPMXpk61OOJ4f27W8bdj7Byw4UJgTd5zAHSv6WmW2RxzcHgfr7g6czFu2x8Z4w1Ph6i/WE8fxCuNmW6xnP1fhHGMLrUwoOkG5cJcHfF8QFRQoTIUU3qFhY9gFhojgrRVdA8H0LrVEXpoAiBndClEnXj9gwYDCUUhRpnPlQY4YLgyysa9CYDjrBaYs7DYdCKksZ66o0wnXGzPe11knAODtAxYEKJx5iUYhONHDBS+vv2TPrkvPf3Tway/+1gP3pRVzPEvXImHE7VgomhlPwvnguShrfMPuy5d//c7jL93+hi/AbScuqXnLIVOGezW89jJfCQUU0xVyhQrhjlVdlILPbL3uBnjxnfsuv/CRtz0IEZyFA6fXGUbg7Qvm2m9fzzHedQYS5tDZuYuok+//9Ovhygff8iWIor+CA6sPcLy9jzlkGVBwDFh44YutJAivMHPXYtUKyfb/hQ/cClc+eCtO/ddgC07O371mHOapqE/r715ph07gUYjm7pl/919i4EZ30y8ubq6Nx+OyOrlF1waV18uWB6fy+eiFNSRz8ffGr9198ys/tPfV2IG5/7kCc89cserLNVhgE6JkbeE9Z3XRNKt621q4tE5eFT89fs3umzzpBMW4svDeNfxosxeMfcq+cVDyaxSM4UD6/pMJ4Eu3Lnz7ud+961e2x9KHsoJBUK775hB2f+sZuP4r3yFlhi7/8id+El5+8/yk7J5Hvr22908f83HWgmw7tAJ5nVgMgSc6+f7PvuHS/378HZ/CW6x96mTXU8/df/NvPDRoApamQZkacnEiMFOTt8eW9sFcRC6SITTXf+VJeM19F4w2ibA8+/t3TeYu+Ltp5ZEnr7tw8fWhGXLV/cleEsvUybWo1cbSAYjiRyBJbjT101Une//k0Qt7/v47OE6u9dcoKPkvFyMCM70IubGM9/RNeRKT9NCz3PjZR40CfvFdPwqXP/GOSZnrvjmCm+55uFaFNN1YgU4Sok/Xghv/sPyD8Gp4DAB+hPseN/z1BfIDltUJAnbzJ7/4fHzlpb3cNnyUaxKUvDehwsDTEZiNpTMAk1V5qx8K+nW//ID2mfwQDMHiDN2sOhFw4Zw3sYtUnl/+AkTwC7av1wadNAaKpTeZjoo9sXQIEv1txJSiKE+B85RnP3NXH73K1MeIuAR3Wifnj38IouReSva6v1PevmlPPwEFJ9CuL1jiuZ3kDmoznHZRcWZPj+WQq6iPlMtHUNKJPZbd9R/PPLj7n582T3JKCCOQR3f2xFnr5Inlf4EEfrzMe5h0kp8/TnTyn5ce3r3x34+XaZP77NbW1r0Rt3BV5UxRlcJtIxvL1LiZ7Cq6+5s+9bA2jJwJF6d1bcJgdT9ZcUcKmEL0Mzp5bPk9MAcPlX11agiW/Xiptv4dBqtvKtsu9/nGQTG5+JkV143jRwESL1taTO4+O/zaEWSUHMbVe65g21zOSifnlz8PEXzYx/ta6ySBO+HtqxhAqPzXKCgmF6/xJhgO9rLoZPqCoat/5i9y89IoOQEHTp+sXCMNN2Cvk6UhQHR1Aarkz1onAL8Dg9XPlGyW9XjbQCk97MpKBcO/OLkv+iEo6ZqK+vs6DFYPs6Ta4kKmRd+ZTaHMtSwbcVjpJIIH4cDq3Tb1u5ZtGhRtCLIOpZjCvwVj4l6AYpozzgZWjr8LIPmyq/EVPWepk3+Dweqbfbavq6tRUAilTJ8qLBkWLhKAKdJSAEovJvRWOtlYej9AtHNUwYfBWukkgufgwOoP+GiXqqNRUEzRlZmJfAWgmCaPuEKP8fup32C1UXlRyvTxdyudPL78YYjh8z7aTeswgTKjk76AYuXmKwDFSikAvfAoBCiHp/IYnF96H0TR/T5BMQ29Cj5eQxisLvpsP8ihFzFxnFZKBRNHy/FwL+YoVjrZWD6IpyB9GqpJJwUBlgswWH2rz/bbCMrsEU8Pi41ZQeC+L93ZlVmlJGswOO3lIFsdinVtgwBlWif/9NuL8Mrc065tFT1npxO4Hwar7/fZfqig4Jlo3AVc9Js5+Qgetq9kG1p4L2YzKv4NH8rvuYyOweCU/oE6tFVDG8TW+iKd/Nf2fTNedi1Qq/MzOomj34TbTv1hDWKBRienVNKJgnCkt5V50/wkuwlvRwlbyX6443Tnb+yy1sn5438GUfJRH8ZqGnYV6mQuegu87dS/+mibqqNRULBzxNHf6e31HucpJm8yO2nsx7ArNRYrnTxxzyFItnSjAsr+pv5up5PocRicusOqgRKFGweFOkU3s/DoeBYlKyPT6i+Wm5mf9GifF76/9e7hjePnAJKfKmGHk0Nyul0ShTpJ4Ci8fRUTttfyCwGUfSojiO604nSKoJJehTqPUuDiexHtylqbGn6hl9Dtq5vWycbSXQDRl1wtljr2MKuT6BswOHX1KGpNv8ZB4XzBZjICPrG0Aok+fY1OdhQk4k2uSY7yKjM62Vj+HAD8qq3dOulkPH4n3P4HX7dtq0z5UEChvAq+I37F8F6/NZh4FVixOQ5MfbWwgZkvV8+GXAVeBY80mPIS5D3LowDRnVyD5Ohk5mxQBJ+EA6t/xG3DV7kgQFFeBWGhsqpsRlG0Ph6PT47+5ijA3CTdqjHBBIYcb/zs143jX2x/Zmt9T7bVmwyJmj+qZydZWCZXkv/tL21BlPwdJMmPmep11gnAaRisLvsyfpt6ggGFOQRL320CzMs//NpvXfrjn39T3rOk6XD2fPVJdjK8qU2QAsmODdnkWrumk7txEfC2rCGW1glEvweDU5+2MW6fZYMCRcFCZf+YeX9M8Jzs2XWjbYbItKIMJJgp8lhfTjJyDckClp0qx3uvv5LsnrvBg05eBICPw2DVy8lW7jvny4UICkZafF3zQMplZ81EvIhWVp6v3uDrBOBeiJJPw4HTuPrf6C84UFJpuHzFbCSJc5LnP3bH6KWfWPxzeAXO9mHV3UY+RWXr0Mnlj9357MtvXbwPxskZuP30P5bts6/ngwVFDcNMe8GcZZBc96rR//3cG9/3wue+XGuI0bnDAT3ICBs79Ta5ftel0X2/+DMwOBVkWqigQVGw+ByKaa+oc9JuTx/yPBS7FvYPWJ7Bg5IZiqXAYDiYnXNYPS+AVGCEGWA6r5PWgJLVs1LQoTiOD27H8BGg9J90dy+CMTlQVHTBaQU20/sqU51sr4UdUcLolE7+H7a+9Ge51wQpAAAAAElFTkSuQmCC;fontFamily=Times New Roman;" vertex="1" parent="r26zlcC6nCp4phhId66P-40">
          <mxGeometry x="178.3050847457627" y="91.03448275862067" width="21.776406533575322" height="21.56079854809438" as="geometry" />
        </mxCell>
        <mxCell id="r26zlcC6nCp4phhId66P-49" value="" style="shape=image;verticalLabelPosition=bottom;labelBackgroundColor=default;verticalAlign=top;aspect=fixed;imageAspect=0;image=data:image/png,iVBORw0KGgoAAAANSUhEUgAAAMgAAADICAYAAACtWK6eAAAAAXNSR0IArs4c6QAAFMxJREFUeF7tnX+MZFWVx7/nVVU7hjisiUAMbpjBXRhlQROzCsiCiRCDEWEgQcFMSwvCYL/qrsYhCoIMgqBhpKu7qmVAsHEmApLIj8FIDGMiLM7gGhMdll3AhZnJSgxgMksb4tiv6p3Nq+5mhp7uevfe9+u+9877t86995zvOZ96P++9BDlEAVFgWQVItBEFRIHlFRBApDpEgT4KCCBSHqKAACI1IAqYKSBnEDPdpFVJFBBASpJoCdNMAQHETDdpVRIFBJCSJFrCNFNAADHTTVqVRAEBJMFEr2i1VnfIP5aYV7FD7yPm9zLhKGK8B8C7AZygOPxzAPYx4S/EeJWJ/kxM/8vgvVV2Xt5fr+9W7EfMNBUQQDQFW9L8jtuOrHSqHyHCh4npRBBOBrA6jq41+tgNxjNM/Cwzft+tdn6HK69+TaO9mC6hgABiUBbv+H7zeJ9xOnycBgeng7HKoJvkmxD2wMdTcPC0Q3jq719pvJD8oMUaQQBRyef09IqBN2fOZvCnAJwJ4P0qzSy0eRng7eTjF7Pv+oefY2hov4U+WuWSALJcOiYnV9bQPZ8rdC4xzrMqazE5w4RHCPyo1608hJGRmZi6LVQ3AsiidA60J9Yy8HmALyxUpkODoQcJeGDWHX041LREBgIIgOCegru4hAmXAjiiRPlfKtTXiXEPVXCv3LMApQak0ho/m4jWE/DZkkOxZPgMbGPmzd362ONl1aeUgNTa4+sA5zqAjytr4vXiphcB/2bPHduq1y7/1qUCpNZqXgrCmMYLuvxnON4IngNj3Ks37om3W3t7KwUgA62Ji5n4awBOsjcVOfKMsIt8+u5sffS+HHlt5GqhAalOjp9JFec6MJ9hpI406q8A0ZPc9W/ujIxtL6pUhQRkRXvTMV2ufguEwaImzqq4GFsq1PnmfnfDXqv8isGZwgFSnWp+lRibYtBGutBUgAkbOsON72k2s9q8MIDUJidPhuPfDuAUqxUvvnM74TtXeSMjzxQh1EIAUm2N30BEG4uQkKLEwMwbO/WxG/MeT64BGWjdfiI7lc1gPjXviSik/0Q7yO+un61f9Wxe48stILWp5pfBuCuvwpfKb8Ll3nDjB3mMOZeA1NrjdwJ0eR4FL7HPd3puY33e4s8VIAOtTWuYqj+UG/G8ldlb/u50HAzl6SPI3ABSaTc/4wBb5udy57ZCxHHs84HBrtv4WR60yAUgtcmmCwetPAgqPqoqQK7njk6pWmdlZz0gA+3mtxm4NiuBZNzkFCDgllm38Y3kRojes9WAyM149ATb3wPf5bljV9jqp7WA1NrN+9Gb+ipHCRR4wHMbF9kYp5WAVNsT2wh8jo2CiU/JKMCgxzruqHUzO60DROBIpgDz0KuNkFgFiMCRhzJO1kfbILEGELnnSLbwcta7NfckVgAiT6tyVr6puGvH063MAZH3HAeq7e5PnoW9MzO46be/SaUEbR/EhvckmQJSa08MA9y2PVFp+BfAMbjmg72hbvqPZwSSBdF91L2RRmY1khkg899WPZZG8dk+xsFwLPgqkBzImg+ck9W3W5kA0ts+wMdO+fAQWAoOgeSQv7R9xJ1TZ+sbnk/7zy4TQGrt5g75ZL0/HALJISjs9NxG6jNHUwek1m5uBmDttzdp/UP1O3Ms9kEutxYUSf/JVqqAyDTZuUTrwCFnkkV/FylP300NkN4CC+TsSusf2tZxTOAQSN6eTWL/pLQWgkgNkNrUxK/LvvpIFDgEkoMgIdrhDY9+PI0/wVQAkXWrzC6rlisAuScB0lp3K3FA5lc8DB7plvZQPXOc9chPsWdmBn8cHArVSiAB4DunJL2CY/KAlPyRrg4cT77ypx4Yx7xrpUAS+hfRM0j80W+igJR9IWkTOBbqQiBRIyTpBbMTA6S3BQGqe9TCLJ5VFDgEEr16qKCzKqmtFxIDpNZq/qis+3OowLH3rzO47JdPYOGyarmSCM4k29de0Lvs6neU+p6EscWrN76oh5WadSKA9HZ2cugJNReKZRUnHAefSQSS/nXCPp+VxE5XiQBSm5r4VRm3PUsCDoFE8Q+U6ElvePQTitbKZrEDMr9h5o+VPSiIYZJwCCRqRUJMX4h7Y9HYAalNNf8ALtdusmnAIZAoQbLLcxsfUrJUNIoVkPl9yO9WHLsQZmnCIZAolAzjsjj3cY8XkHbzPwGcoBBGIUyygEMgCS2d5zy38S+hVooGsQFSa4+vAyjYnqAUR5ZwCCRhJcaDnju2NcxK5fcYAZl4AeDjVAbNu80T512AM45+X98wVN9zRNVC9T3Jluf/q/fepRwHvei5o8fHEWssgFRa42c7RD+PwyHb+7AJDt0zSZkg8Zk/3a2PPR61nmIBpNpuPkqAdQsPRxVncXsb4RBIls4yA9s6buPcqDUQGZD5FUpSX20iauC67W2GQyBZOpuOgzVR90OMDMhAq3krE76uW3B5ss8DHALJoRVFjO/M1hvXRKm1yIDU2s3XABwRxQmb26rC8c9bpq0JQ27c30rF657bODJKYiIBMtCeWMvgh6I4YHPbPMIhZ5K3VxSBzp91Rx82rbNIgNTaEz8B+ELTwW1ul2c4BJKDK4se9NzRz5nWmjkgk5Mra47/hunANrcrAhwCyYEK83zncIyMzJjUnDEgtanxS8Bkz4W3SfRLtCkSHALJvAI+D3kjY/ealIgxINWp5sPEOM9kUFvbFBEOgQRgwiOd4cZak7ozA2R6ekXtzTf+ZjKgrW2KDIdAAniHHf5ODA3t160/I0AGJsfPZ4d+qjuYrfZlgKPskJg+zTICpEh7CpYJjpJDcqfnNtbr/kkbAtJ8CcCxuoPZZl9GOEoMyUue2/gn3RrUBqQo316VGY6yQmLybZY2IEXY40PgOPA/WqrPUgz2FtEHJOcLwgkch15kBJAEMyTDJoHlfj6JwQJz+oBMNXeDsUr3Ws4GexU4gpUOg1XWy3aUAhLCHm+4sVont3qA3HHbkbVu7VWdAWyxFTjCM1EGSLyKdxSuvDr4Al3p0AIkr1NrBQ6lWugZFR0S3am4WoBU2+PXEOgWdbmztxQ49HNQZEgYfG3HHbtVVRUtQGqt5n0gXKTaedZ2Aod5BlQhCVZvsWmyWGjEjPu9euPiULt5Az1A2s2XAWjd5Kg6EredwBFd0YJCsttzG8ovuXUB4eiyJ9+DwBGfxkWExHMbynWvbLii1VrdpW5wBrH6EDjiT0/RIKlw5dj99fpuFaWUAam2Jz5J4O0qnWZlExccQUGEvTTrF2PwLiW4Ni/SUSRIGHRmxx39pUp+lAGptSe/BPj3qHSahU1ccAS+X/+vH8P1Hz3ZOIxgic/grXPRjsJAorECvDIg1amJG4h5o41JjxMOAaR/hosACRNt7AyP3qhSy8qA1NrNzQCuUOk0TZu44RBAwrNXAEiU54YoA2LjHHQVOMLSvdRzfLnEOqBaVC1sfE+iM0ddGZBau/nvAE4LK7i0fo8DjsBXAaR/xqICspzGadXJMuM87bmNf1PxQQcQa3aPigsOASS8ROIAxEJIlHeh0gHEipeEccIhgKQHiG2QqL4szBUgccMhgKQLiE2QFA6QJOAQQNIHxBZICgXI4JoP4vSjjw7PZh+L4M148Hhy8SE36eY36VFehu6dmcFNv/1NpJxGaVwoQKIIsdB2uTOQAGIOSPCZe14/qRFAFuVdADH7m+n3FEsAOUjTWrtpxVMsszQDAoiZcgKIom4CiKJQQG8/8ijX5+ojJW8pgChqLIAoCiWAqAuVoaXcg0S4B4n61Gzr8/+NYE5IEQ45gyhmsdZuWvOpiaLLbzPTuQcx6b+obQoKSCKfmlj1saJuQQoguorN2RcUkPg/VrTxc3edlAsgOmodsC0iIEl97m7lhCnVtAsgqkq93a6IgABIYsKUvVNuVVIvgKiodKhNEQFJZsptq3kpCHebyZx9KwHELAdFBARwLvXckR+qKKL8uXselv3pF7AOIMGHjevWfEBFvyVt+j3mDT6YvP6jHzPu+6lXXkn1JWQRAUlk2Z+8LBy3XOXpABJ1Fl2/N+kBfIEvpkfam9gUEZBEFo4LEprnt+kCiBmSRQRE9S16oJjyJdY8ILlZvHpxOQggAsi8AgkuXp2z7Q8OLgkBRADpKZDk9gd53EBnoSwEEAFkjo8EN9DJ6xZsgTACiAASKJDoFmwo4CaeaU+5ladYZqDG1SrRTTx7N+o53QZaziBmJVaop1iJbwMdANJq/giEQTO5s2slgJhpXyhAGFu8euOLOkpoPeadP4N8GYy7dAaxwVYAMctCoQAhXO4NN36go4Q2IO/4fvN438fzOoPYYCuAmGWhSIA4Dtb8/SuNF3SU0AZk/oXh/wB4v85AWdsKIGYZKBAgL3tuQ7tmTQHJ3dwQAaTkgDDf5dXHtDeAMgJkoD2xlsEPmUmeTSsBxEz3opxByOcLZkfGtGvWCBBMT6+ovfnG38wkz6aVAGKme1EA8Q47/J0YGtqvq4IZIADyNkddB5DlFrpWFbffNtBRt5gOXmymuaRQEQDRmYO+OMfGgNQmxy+BQ9OqRZO1nQ4gWftq0/hFAATEQ97w2L0muhoDgsnJlTXHf8Nk0CzaCCBmqhcBEM93DsfIyIyJAuaA9CZQTfwE4AtNBk67jQBipnj+AaEHPXf0c2bRa06YWjxInp5mCSBmJZJ3QAh0/qw7+rBZ9BEBmX9p+BqAI0wdSKudAGKmdM4Bed1zG0eaRT7XKtIlVtDBQKt5KxO+HsWJNNoKIGYq5xkQYnxntt64xizymADJy7dZOoDkdVWT4BHyHweHjOtBd26M7TtMmXx7Fdtj3oM7qrabjxLwWePMpNBQAAkXuUiAMLCt4zbODY+6v0XkS6yg+zxMxRVAwkulSIDoTq1dTp1YAJm7WZ94AeDjwtOQjYUAEq57cQChFz139PjwiMMtYgRkfB1AW8KHzMZCAAnXvTiA8KDnjm0NjzjcIjZA5s4i9u5CJYCEF0NBAFHePSpckRge8x48SM3iFeAFkPByKAQgjMu8euOe8GjVLGI9g8yfRf4A4CS14dOzEkDCtc49IIRd3nDjQ+GRqlvEDshAa+JiJv6xugvpWAog4TrnHRBi+sJsffS+8EjVLWIHpHcWmZr4FZjPUHcjeUsBJFzjXANC9KQ3PPqJ8Cj1LBIBpDo5fiY59ISeK8laCyDh+uYZEPb5rM7I2PbwKPUsEgGkdxaxbIE5ASS8MHILiMGCcOFqzFkkBsiK9qZjuqjuUXUkaTsBJFzhvAJSQWfVfnfD3vAI9S0SAyRwpTrV/CoxNum7FX8LASRc0zwCwoQNneHG98KjM7NIFJDepVa7uQPAKWbuxddKAAnXMoeA7PTcxqnhkZlbJA/I5OTJcPyd5i7G01IACdcxd4D4zineyMgz4ZGZWyQOSO9SqzV+AxFtNHczeksdQKKPVpwebJ0wxcwbO/WxG5NWOhVAepdaUxO/BnOip8N+YgkgZqVkJSBEO7zh0Y+bRaTXKjVABlq3n8jk7NJzLz5rAcRMSxsBIfZPmq1f9axZRHqtUgNk7izSzGxvkX6ApLlSoV56srfut8pkJlNuDfb4iKJiqoDMPdUavxOgy6M4bdJ2OUBM+pI2cwpkAMidnttYn6b+qQMyB0n6j34FkPjLKmVAEn+ku5RCmQAy0Nq0hqkavB95d/xpW7pHASR+pVMEZJ/j4BTd3aHiiDgTQALHK+3mZxzgsTiCUOlDAFFRSc8mLUB84Jyu2/iZnnfxWGcGSO9Sa7LpwkErnlD69yKAxK9yOoCQ67mjU/F7r9ZjpoAELg60m99m4Fo1d82tBBBz7ZZrmTQgBNwy6za+Eb/n6j1mDsjcTXs2T7bUZRLL9BXguzxXf0/BuP20ApD5J1v3A/h83AFKf7lU4AHPbVxkg+fWABKIUW1PbCPwOTYIIz5kowCDHuu4o9YsY2sVIAJJNkVpy6i2wRHoYh0gAokt5ZquHzbCYS0gck+SbnFaMJo19xyLtbDyDLLgpDzdsqB0E3fBjqdVy4VpNSCB02m9J0m8DmSAQxSw4T1HWFqsB2TucmtiGOB2WDDye44U8FH3RhrW5zQXgARpn/92K9heIbUPHHNUbnlydZ8PDGb1bZWuULkBJAhsfj/EaRtWSdEVWux7Cuwk7nxptr7h+bzokStADty8NzcDuCIvIoufgQJ234zn9iZ9OceznL4rBa+pQMrTZDW962ueyzPIQkS9hSCcyuYsV0uJMxmF64toB/nd9WktsJCEfrkGZEEQG9bdSiI5ee4zrXWrktaoEID0HgXPreB4u9zAJ10yof3vhO9clfSKh6FexGRQGEDeOptYtGB2TDnKTTdJLySdhRCFAyQQsbf1Ale/BcJgFqKWbkzGlgp1vpnUFgRZ6llIQN46mwQ7XVWc62zbDi7LhMc6NtGT3PVvTmJnp1j9jNBZoQE58LRr4mJ2+Gtg+3bfjZC7LJvuIqbvxr1hZpYBLTd2KQBZCH5+H/cxACfYmIwc+PQcGONx7kNue8ylAuQtUNrj6wDnOoCPsz1BdvhHLwL+zZ47ttUOf9LzopSALMhbaY2fTUTrCbBmDnR6qQ8fiYFtzLy5Wx97PNy6mBalBmQhpcFHkNzFJUy4FMARxUy1clSvE+MequDeLJb6VPYyJUMBZJHQA+2JtdxbfogvTCkHlgxDDxLwwKw7+rAlDlnhhgCyXBomJ1fWKt3zGXQuMc6zIlsxO8GER6jLj3qoPISRkZmYuy9EdwKIShqnp1cM/PX/Ps2ET4HoTADHqjSz0OYlANsJ9IvZw1Y+jqGh/Rb6aJVLAohBOnoTtxinw8dpcHA6GKsMukm+CWEPfDwFB087hKfknkJfcgFEX7NDW9xx25GVTvUjRPgwMZ0IwskAVsfRtUYfu8F4homfZcbvu9XO73Dl1a9ptBfTJRQQQBIsixWt1uoO+ccS6Bgm/kdifi8TjiLGe+bn1qu+sHwOwD4m/IUYrzLRn8nnPzHRnio7L++v13cnGEapuxZASp1+CT5MAQEkTCH5vdQKCCClTr8EH6aAABKmkPxeagUEkFKnX4IPU0AACVNIfi+1AgJIqdMvwYcpIICEKSS/l1oBAaTU6ZfgwxQQQMIUkt9LrcD/A2HZzn0wxXlVAAAAAElFTkSuQmCC;fontFamily=Times New Roman;" vertex="1" parent="r26zlcC6nCp4phhId66P-40">
          <mxGeometry x="8.474576271186441" y="148.96551724137927" width="57.495462794918346" height="57.495462794918346" as="geometry" />
        </mxCell>
        <mxCell id="r26zlcC6nCp4phhId66P-50" value="L/U" style="text;html=1;align=center;verticalAlign=middle;resizable=0;points=[];autosize=1;strokeColor=none;fillColor=none;fontFamily=Times New Roman;" vertex="1" parent="r26zlcC6nCp4phhId66P-40">
          <mxGeometry x="17.22372881355933" y="206.46241379310345" width="40" height="30" as="geometry" />
        </mxCell>
        <mxCell id="r26zlcC6nCp4phhId66P-51" value="Charing Area" style="text;html=1;align=center;verticalAlign=middle;resizable=0;points=[];autosize=1;strokeColor=none;fillColor=none;fontFamily=Times New Roman;" vertex="1" parent="r26zlcC6nCp4phhId66P-40">
          <mxGeometry x="-7.78" y="-10" width="90" height="30" as="geometry" />
        </mxCell>
        <mxCell id="r26zlcC6nCp4phhId66P-52" value="Machine1" style="text;html=1;align=center;verticalAlign=middle;resizable=0;points=[];autosize=1;strokeColor=none;fillColor=none;fontFamily=Times New Roman;" vertex="1" parent="r26zlcC6nCp4phhId66P-40">
          <mxGeometry x="104.99898305084747" y="-10" width="70" height="30" as="geometry" />
        </mxCell>
        <mxCell id="r26zlcC6nCp4phhId66P-53" value="Machine2" style="text;html=1;align=center;verticalAlign=middle;resizable=0;points=[];autosize=1;strokeColor=none;fillColor=none;fontFamily=Times New Roman;" vertex="1" parent="r26zlcC6nCp4phhId66P-40">
          <mxGeometry x="205.95440677966104" y="-10" width="70" height="30" as="geometry" />
        </mxCell>
        <mxCell id="r26zlcC6nCp4phhId66P-54" value="Machine4" style="text;html=1;align=center;verticalAlign=middle;resizable=0;points=[];autosize=1;strokeColor=none;fillColor=none;fontFamily=Times New Roman;" vertex="1" parent="r26zlcC6nCp4phhId66P-40">
          <mxGeometry x="205.00338983050852" y="206.46241379310342" width="70" height="30" as="geometry" />
        </mxCell>
        <mxCell id="r26zlcC6nCp4phhId66P-55" value="Machine3" style="text;html=1;align=center;verticalAlign=middle;resizable=0;points=[];autosize=1;strokeColor=none;fillColor=none;fontFamily=Times New Roman;" vertex="1" parent="r26zlcC6nCp4phhId66P-40">
          <mxGeometry x="104.9984745762712" y="206.46241379310342" width="70" height="30" as="geometry" />
        </mxCell>
        <mxCell id="r26zlcC6nCp4phhId66P-56" style="edgeStyle=orthogonalEdgeStyle;rounded=0;orthogonalLoop=1;jettySize=auto;html=1;endArrow=none;startFill=0;fontFamily=Times New Roman;entryX=0.494;entryY=0.97;entryDx=0;entryDy=0;entryPerimeter=0;strokeColor=#007FFF;" edge="1" parent="r26zlcC6nCp4phhId66P-40" source="r26zlcC6nCp4phhId66P-44" target="r26zlcC6nCp4phhId66P-43">
          <mxGeometry relative="1" as="geometry">
            <mxPoint x="143.86440677966104" y="82.75862068965517" as="sourcePoint" />
            <mxPoint x="143.86440677966104" y="148.96551724137927" as="targetPoint" />
            <Array as="points">
              <mxPoint x="130" y="94" />
              <mxPoint x="37" y="94" />
            </Array>
          </mxGeometry>
        </mxCell>
        <mxCell id="r26zlcC6nCp4phhId66P-57" style="edgeStyle=orthogonalEdgeStyle;rounded=0;orthogonalLoop=1;jettySize=auto;html=1;endArrow=none;startFill=0;fontFamily=Times New Roman;entryX=0.75;entryY=1;entryDx=0;entryDy=0;strokeColor=#FF6666;" edge="1" parent="r26zlcC6nCp4phhId66P-40" source="r26zlcC6nCp4phhId66P-45" target="r26zlcC6nCp4phhId66P-44">
          <mxGeometry relative="1" as="geometry">
            <mxPoint x="245.8983050847458" y="82.75862068965517" as="sourcePoint" />
            <mxPoint x="245.8983050847458" y="148.96551724137927" as="targetPoint" />
            <Array as="points">
              <mxPoint x="241" y="110" />
              <mxPoint x="154" y="110" />
            </Array>
          </mxGeometry>
        </mxCell>
        <mxCell id="r26zlcC6nCp4phhId66P-68" value="" style="shape=image;verticalLabelPosition=bottom;labelBackgroundColor=default;verticalAlign=top;aspect=fixed;imageAspect=0;image=data:image/png,iVBORw0KGgoAAAANSUhEUgAAAMoAAADICAYAAACprX6jAAAAAXNSR0IArs4c6QAAGX9JREFUeF7tnX+MH8dVwN/u1XFjpXVEQnV3AsUWpRWqSlMaf5ukFNtUiEioLZGo+kO0toUQpRWFSoDu3NCzofjMH0ioQEEC4XOliCiNREL/aAj9cUZNE18EGEoRVQO5isbfL5GjOMQ0SpT7Lve+nj3vd787897Mzu7O7r6vFEXJzc7Mvvc++2bezLyJQH4igQolMD8/fyiKopUoijbH4/HJ0Wi0WWFzlVUdVVazVNxrCaSAAMChjCA2kyQ5NhqN1tsmHAGlbRoLvL/z8/P7oig6kwNkqtdRFK21zbsIKIEbXlu6h4DEcbySJMlRZp/Ru+BQbI1ZvtFiAkqj4u9G44uLi2csAMm/9LoajgU9dxFQumGrjbzF/Pw8TtJP+GhcwRKsdxFQfGi5Z3XMz88fxUgWAOzz/OrBehcBxbOmu1xdhYBMiQ29y3YwYD2kULKAEoBlowECwC1pV+I4nnypx+PxWQDYbNpgFCBHTJEsnRiTJDkxGo1OqnkMhoq5Xigo7yKgNAQKrjPEcXwkSRKO8aDRVLb2gIasE4PrRB1DwBcvXkTPsPNTaysYOubCAggaAJxt+mMhoNQMCmedoeYuwXA41NrBwsLCUzaGzVkjUUEA9KJcYBr3LgJKjVapvqhfq7FJVlM+QOEAUtK7bA6Hw/2sF6qgkIBSgVCLqvQZSvXd5ZKg4NceFw6dhoZc75IkyWHXNnzIS0DxIUWiDtdxfg1dmzThCoov42UMR9eHw+HhuuRR1I6AUrH0Q4ekDCgmwFzEqgk/NzrkSt9DQHHRKPMZG0jUGP8choNV9QejKMKIWHb3LbNlu2LYtu4J09YU36BgH/LeJQ0v272R/9ICin+ZTmrkQkJt3eCGVNUinXa/lNrRy40ysaRSBShpw+hd4jg+mA8xszpWQSEBpQKhMiGxOptBhWkp4KjnXcRQJSgu/anyGQHFs3SrgCTtImHsxgmvgFJO0QJKOflNPV0lJGr8btytmyTJft0KtoBSTtECSjn57TxdNSQcr9I1UHBi3/TWFYl6eQLEYuJuNSfRdY8Ach2TOBQ9W+JglVZSVc1RMpGvfWqtpvFDXeJRSgJTlydJu8lsz+qt0Bh1D5iiZVWAotZScOPk5CfhYStVhlmYabRePEkqgSq2wriuzPsExbQ6bxpS1mUZ4lEcJd0EJBbDPKu3cgXFdiOkrlMM+PFjg3u9GhuCCShWJnW1cFOQYNsLCwuJQ5eNj7iCsjPRdUw/pMn9VdjXpodgAoql1TUJSVXb9MuCkplPsI/wMrxIXjON7vkSUCxAaRIS5U2sDlFxX80XKKq9Sb4u3Zl3Gy8S0oReQGFaUwCQ4IEv7QbJ9Mgs83WmipnG/iUSSswAw5Rhtm+lzrq4yEL3jIDCkCZTwV6jW9luLSwsGCHBHcdVn/7jHrAqECca+1nb9EZNz0ny7yGgEKC0ABJca8DE17Ukj3PIpsL4FE0Vafx8fFGHBRSDGtsACc4F6j79l8kzzMkgwwalTuDZnVIFBRSNxFoCSeVDLpNBZVIucRNz66oL0otkOyugFKiuLZA0vQiXis4lkpWJaDWaNILrWQSUnKSYkICvVem8ohgTd3ykssAB13CKytkAU5Qgr0zbVT8roFw9p22TtTGvkzSLY+lshm2GJCsU4vhykJBToPUaFEaaHEp+U38v42W6AkkOmKms923zIjJH4e/XsgIlM+62ypfbRUjywKhk405J8pyU4Pmh3nkU317EoA9WJKfrkHi218aq6xUoVW0qNGjPuD1cIGnM7q0b7g0oHiDBsxBOebGKDh4JJNa22ugDvQDFFpJM1saZW59w6IbAZPYuseDJwiKQNGrzTo13HhQ1J8Ht6eTPZSOexd6nyTCMuoNddbKVIVRSwC0u0HlQmF/vUvulLO5Y5wzfBJIAgeo0KJxTdC5eRKdHTnuEDQgkAUKCXeo0KNT5cl/3e+TWDFzvXhdIAoWk06BQX3efniSvX6rtAnsQSAKGpNOgELl2ye3puf1fqRrRoHF1mdzXZZHrVyAJHJLOgkKFg6khF2cHMXWtM9UHiW61gI5MFzs5RyGGPtoIl8P2Fmrl3ZQ1RTxJi1jpJCimYY/JmzBDyVPqNe0YzufRzdtFlfOkFtlgK7raOVCIBUbt3MRhAr6jYNNZb2quIrC0gpPuhYdNoJjOQ1ChZEKd2uEcx0sJLOHD0kWPgoeFdq4NyKpAZ5A221x0KtVlXOcEBrBOgSVsWLoIinbBzwCK6yIhOfyyGdIJLOHC0kVQTB6lMFGcjTEbPIqXugWWMGERUK4ml9DCxVWbbkLvAqHAwpV6feV6BYpuMs9cHDRqpewcRULH9Rm9S0tdBOVQFEWY1HrmR0S9ylypoA07c6JehuHcidFohFcoyK9hCXQOFJSnKdSr+/K7DJFS3ZWIppHnU2QY1jAhqvmugqL1DsTKvItXMW2JMUXTcAvL2vZ115i313icWGBpHpZOgmJauzANv9R6Cg7bWOfgqUzypmFXavzce0cElmZh6SQo1OTcdB0z91gvZbiMPuwkpxZYmoWA03onQVHzFNMwijwjX3AeBTOvrI3HY5xXnBuNRsash7bnYQQWjrk2V6azoFCTc8ojlFEJtW2F2CEgc5Yywq/o2c6CwvAqleyvYixeGk9XimepyNJLVttpUCivgrLz6VmY7ZEX5wgsJa26gsc7DQrHq2CZMtc1pDphLiySc6O0PoGlAmsvUWXnQbEJ+eJ+LQz5mu5dz8ua40XUM2RCC03dMmcpYeC+Hu08KCgo7tc5I1S8sgG3jmCEC7LgqNzDeEPXwSRJ2Jd8UgktdArl9t3nENKXcXWpnl6A4ghLVs8TYCwWIqdsxBUSh2FYbffNdwkCzrv0BhQPsHDkOVOmLCQOsOy3GTo6vVQPH+oVKAoW3F2MR4W521RczcJ7OiLmMMyYQsn1Zfr+XO9ASRVOLQqWMYwqL/XkwCLzlTLaK362t6BkvMvKdqTrkA/R+ggzc/rBhEWGYBxhMsv0GpTM+L/UcKwuQLI6pcLSVXo1pm11qpiAotRps96Cay3bO5DP2q65+LYcChbTLmnffel6fQJKRsNcWKgE3XUaDZE+VsLFnpQhoOQE2TZYXBOSe7Kf3lQjoBSouk2wUFkuZfjlh2UBRSPHNsFCHDmW6JcHVgQUgxDbAotpTciUad+D/fSmCgGFUHUbYDEdFhNQ/LAsoDDkGDosBCiSRI+hY6qIgEJJyHKdpYnQsSnyJdtZmAomigkoFnIM1bMIKBZKdCwqoFgKLkRYOIn2LF9TiuckIKA4mERIsDDWUWSO4qDj/CMCiqMQQ4GFsd9LQHHUcfYxAaWEEEOARW4dLqFAi0cFFAthFRVtEhbKm2B/JepVUsHqcQHFgxybgIVKAp6+loDiQcGY+81PNVIL5+uOUvJxyIsLiXgUf3YpoHiSJRcU1Rwe/MKzImkaJHYvGLmNp+oSj8IWrbGggOJHjmmSvRM21dms4isvYn2+X0Cx0Yi+rIDiR45OoGSaTo8Wo4fZRE+Ty0iJyS+c0isJKH4ULKD4kWNZUDz1YrYaAcWPaAUUP3IUUDzJMdRqBBRPmiEm8+Q12WW6gZE0XcJw8ShlJHvtWQHFjxyNHkVdJ3EL56psy+6kWffxfklMEzvzE1AsJaopLqD4kSMJymg0WsvcOOw8OVfdxfzCJ7FO/G85uOVJiYZqBBRPMibOhEzl13IFRi1W4o3EE0DSn4DiSYkCSvWCtAElZ+Rp3uODcRzvS5JkEgbeHqZNFiPVdd3fzcMhoFSv02wL4lE8ydsVFB/Ni0fxIUVzHQKKJxkLKJ4EGWg1AoonxQgongQZaDUCiifFCCieBBloNQKKJ8UIKJ4EGWg1AoonxQgongQZaDUCiifFCCieBBloNQKKJ8UIKJ4EGWg1AoonxQgongQZaDUCSoFi8DRh5qDULbhiTulPrajrbhdeT1faqXpc/k60vRlF0TpVr9oBgMW+i4fH0gNk1HN9+buAojYVxnF8MEmSspsVu2Y3E8BwA2bfwektKOg14jg+ojvH0TWL9/Q+k239o9GI9FCe2gummt6BovZFHdm++lo3TApGOQF3JIjrw+uUT29AUUnq8HCTAOLPwpzTLvnrQj019QIU21xY9Yi+O63YpF1q61t3GhTxIrWaZae9S2dBKQOJOkmIIVIMleLPOqNjrSbqrzEMg+PZ/jT6R4bF80139V77ToLiAomPnMD+7DWMmtL1pCiKMEMlG5ouwlIKlNzCXBXaxayJVqFIS0gm0RvTMdsqXqqNddqmdHWBJUR7SnVVChTqEhsPBrE+HA4P29Rjus8wW4+k8bGR6rWyKjDC8jC2sHB159bzyVPW9tRJUJgZ5Xu7aFbCwGYeXVxcPMNYrMW0Soe5WfsFFHcNsb8AzDtD2PW5d7k/T3I+TDaeW0Bxtx2WYVM346rmWXW5d7WfTypYjpom+8qrkHNNAcXdhljGzRgGsOpx72a/n2R4FtYQTEBxtyPSwBneZHM4HO5374I8yZEAZeTqhrGpDJf5eqk6OP0gypD2pHu+sqiX2tZAvpvKjoiuu+hHvhj1NeO6fbKjUoCUABEFJb2KCRSuPWEnoyjS3XxG2lPtoAyHQxaEhEcwvhjlTWwmkqQVSAFSAtSeOsqrmEDh2hN2cmFhIXH98HYVlBXD10OGXKRp+y9AeBXjh09AMeijjEcxfDnwVN6J0WiEJ/PkV6MEqDC9aRFSQKkAFGrYZeOqa7SjXjRl8iqm4ZeAUg0o2mGXeJNmeTQFWHDz6cWLF48V9TBoUNRGNCfJRlH0Nd2DGG1iVqq9Vg335qjEBjNVqavYCne0qgjJOWb7UqwCCbjYBqFTrj1h1Etnl1p7Molga2vre5FpnF+B/KRKkUDrJBBF0YcElNapTTpctwQElLolLu21UgICSivVJp2uWwICSt0Sl/ZaKQEBpZVqk07XLQEKFFZy57o7Le2JBKqQgCnROQmKbE+vQiVSZ4gSMG29EVBC1Jj0qREJCCiNiF0abZsEBJS2aUz624gEBJRGxC6Ntk0CAkrbNCb9bUQCAkojYpdG2yYBAaVtGpP+NiKBzoOCJx1zydcmVzRw03g2opWON9pGnXQKFMzyYXl77+TaanU1NGat78s9J7WhmOoEG2TeqpzeNIz/Pmd7W0FVL9Z6UDxfToon3FBBAk0Ji8t8sHT52GxqD0InrQWFkSbVRhlFZTt9lVpZ4RQ9TyUb9NBmYzcNtA6UGgDJ61OAISy8BkCKdFLrffatAYXKB+Xha2Wsog8329rKUOkErxxnX0tn24apfJ06aQUoNSRn5upPvIuSVANeRKcjMmcxV7mmckGDYnnfYuE8A6Na2T+ocwX4v/JhY7Y8qRy57IpaWNCHTvC1s3rxpJNKM38GCwqV6VFjY5PLSTHfFyfUm+Ysy9xqyx5C9BEWR0hSnbAupk11EsfxEWY4eccUqkxsGCQotvMRX1dbc26HynmnSr9iITkcW0iUTjDMTt6kRQx5jtpcz10VLMGBYuNJbABRq8GsFXkbYKpSTICQPMXpk61OOJ4f27W8bdj7Byw4UJgTd5zAHSv6WmW2RxzcHgfr7g6czFu2x8Z4w1Ph6i/WE8fxCuNmW6xnP1fhHGMLrUwoOkG5cJcHfF8QFRQoTIUU3qFhY9gFhojgrRVdA8H0LrVEXpoAiBndClEnXj9gwYDCUUhRpnPlQY4YLgyysa9CYDjrBaYs7DYdCKksZ66o0wnXGzPe11knAODtAxYEKJx5iUYhONHDBS+vv2TPrkvPf3Tway/+1gP3pRVzPEvXImHE7VgomhlPwvnguShrfMPuy5d//c7jL93+hi/AbScuqXnLIVOGezW89jJfCQUU0xVyhQrhjlVdlILPbL3uBnjxnfsuv/CRtz0IEZyFA6fXGUbg7Qvm2m9fzzHedQYS5tDZuYuok+//9Ovhygff8iWIor+CA6sPcLy9jzlkGVBwDFh44YutJAivMHPXYtUKyfb/hQ/cClc+eCtO/ddgC07O371mHOapqE/r715ph07gUYjm7pl/919i4EZ30y8ubq6Nx+OyOrlF1waV18uWB6fy+eiFNSRz8ffGr9198ys/tPfV2IG5/7kCc89cserLNVhgE6JkbeE9Z3XRNKt621q4tE5eFT89fs3umzzpBMW4svDeNfxosxeMfcq+cVDyaxSM4UD6/pMJ4Eu3Lnz7ud+961e2x9KHsoJBUK775hB2f+sZuP4r3yFlhi7/8id+El5+8/yk7J5Hvr22908f83HWgmw7tAJ5nVgMgSc6+f7PvuHS/378HZ/CW6x96mTXU8/df/NvPDRoApamQZkacnEiMFOTt8eW9sFcRC6SITTXf+VJeM19F4w2ibA8+/t3TeYu+Ltp5ZEnr7tw8fWhGXLV/cleEsvUybWo1cbSAYjiRyBJbjT101Une//k0Qt7/v47OE6u9dcoKPkvFyMCM70IubGM9/RNeRKT9NCz3PjZR40CfvFdPwqXP/GOSZnrvjmCm+55uFaFNN1YgU4Sok/Xghv/sPyD8Gp4DAB+hPseN/z1BfIDltUJAnbzJ7/4fHzlpb3cNnyUaxKUvDehwsDTEZiNpTMAk1V5qx8K+nW//ID2mfwQDMHiDN2sOhFw4Zw3sYtUnl/+AkTwC7av1wadNAaKpTeZjoo9sXQIEv1txJSiKE+B85RnP3NXH73K1MeIuAR3Wifnj38IouReSva6v1PevmlPPwEFJ9CuL1jiuZ3kDmoznHZRcWZPj+WQq6iPlMtHUNKJPZbd9R/PPLj7n582T3JKCCOQR3f2xFnr5Inlf4EEfrzMe5h0kp8/TnTyn5ce3r3x34+XaZP77NbW1r0Rt3BV5UxRlcJtIxvL1LiZ7Cq6+5s+9bA2jJwJF6d1bcJgdT9ZcUcKmEL0Mzp5bPk9MAcPlX11agiW/Xiptv4dBqtvKtsu9/nGQTG5+JkV143jRwESL1taTO4+O/zaEWSUHMbVe65g21zOSifnlz8PEXzYx/ta6ySBO+HtqxhAqPzXKCgmF6/xJhgO9rLoZPqCoat/5i9y89IoOQEHTp+sXCMNN2Cvk6UhQHR1Aarkz1onAL8Dg9XPlGyW9XjbQCk97MpKBcO/OLkv+iEo6ZqK+vs6DFYPs6Ta4kKmRd+ZTaHMtSwbcVjpJIIH4cDq3Tb1u5ZtGhRtCLIOpZjCvwVj4l6AYpozzgZWjr8LIPmyq/EVPWepk3+Dweqbfbavq6tRUAilTJ8qLBkWLhKAKdJSAEovJvRWOtlYej9AtHNUwYfBWukkgufgwOoP+GiXqqNRUEzRlZmJfAWgmCaPuEKP8fup32C1UXlRyvTxdyudPL78YYjh8z7aTeswgTKjk76AYuXmKwDFSikAvfAoBCiHp/IYnF96H0TR/T5BMQ29Cj5eQxisLvpsP8ihFzFxnFZKBRNHy/FwL+YoVjrZWD6IpyB9GqpJJwUBlgswWH2rz/bbCMrsEU8Pi41ZQeC+L93ZlVmlJGswOO3lIFsdinVtgwBlWif/9NuL8Mrc065tFT1npxO4Hwar7/fZfqig4Jlo3AVc9Js5+Qgetq9kG1p4L2YzKv4NH8rvuYyOweCU/oE6tFVDG8TW+iKd/Nf2fTNedi1Qq/MzOomj34TbTv1hDWKBRienVNKJgnCkt5V50/wkuwlvRwlbyX6443Tnb+yy1sn5438GUfJRH8ZqGnYV6mQuegu87dS/+mibqqNRULBzxNHf6e31HucpJm8yO2nsx7ArNRYrnTxxzyFItnSjAsr+pv5up5PocRicusOqgRKFGweFOkU3s/DoeBYlKyPT6i+Wm5mf9GifF76/9e7hjePnAJKfKmGHk0Nyul0ShTpJ4Ci8fRUTttfyCwGUfSojiO604nSKoJJehTqPUuDiexHtylqbGn6hl9Dtq5vWycbSXQDRl1wtljr2MKuT6BswOHX1KGpNv8ZB4XzBZjICPrG0Aok+fY1OdhQk4k2uSY7yKjM62Vj+HAD8qq3dOulkPH4n3P4HX7dtq0z5UEChvAq+I37F8F6/NZh4FVixOQ5MfbWwgZkvV8+GXAVeBY80mPIS5D3LowDRnVyD5Ohk5mxQBJ+EA6t/xG3DV7kgQFFeBWGhsqpsRlG0Ph6PT47+5ijA3CTdqjHBBIYcb/zs143jX2x/Zmt9T7bVmwyJmj+qZydZWCZXkv/tL21BlPwdJMmPmep11gnAaRisLvsyfpt6ggGFOQRL320CzMs//NpvXfrjn39T3rOk6XD2fPVJdjK8qU2QAsmODdnkWrumk7txEfC2rCGW1glEvweDU5+2MW6fZYMCRcFCZf+YeX9M8Jzs2XWjbYbItKIMJJgp8lhfTjJyDckClp0qx3uvv5LsnrvBg05eBICPw2DVy8lW7jvny4UICkZafF3zQMplZ81EvIhWVp6v3uDrBOBeiJJPw4HTuPrf6C84UFJpuHzFbCSJc5LnP3bH6KWfWPxzeAXO9mHV3UY+RWXr0Mnlj9357MtvXbwPxskZuP30P5bts6/ngwVFDcNMe8GcZZBc96rR//3cG9/3wue+XGuI0bnDAT3ICBs79Ta5ftel0X2/+DMwOBVkWqigQVGw+ByKaa+oc9JuTx/yPBS7FvYPWJ7Bg5IZiqXAYDiYnXNYPS+AVGCEGWA6r5PWgJLVs1LQoTiOD27H8BGg9J90dy+CMTlQVHTBaQU20/sqU51sr4UdUcLolE7+H7a+9Ge51wQpAAAAAElFTkSuQmCC;fontFamily=Times New Roman;" vertex="1" parent="r26zlcC6nCp4phhId66P-40">
          <mxGeometry x="65.96745762711862" y="80.00448275862061" width="21.776406533575322" height="21.56079854809438" as="geometry" />
        </mxCell>
      </root>
    </mxGraphModel>
  </diagram>
</mxfile>
